<svg width="109.009064" height="146.559082" viewBox="0 0 109.009 146.559" fill="none" xmlns="http://www.w3.org/2000/svg" xmlns:xlink="http://www.w3.org/1999/xlink">
	<desc>
			Created with Pixso.
	</desc>
	<defs>
		<filter id="filter_85_274_dd" x="0.000000" y="105.272705" width="109.009064" height="41.286377" filterUnits="userSpaceOnUse" color-interpolation-filters="sRGB">
			<feFlood flood-opacity="0" result="BackgroundImageFix"/>
			<feBlend mode="normal" in="SourceGraphic" in2="BackgroundImageFix" result="shape"/>
			<feGaussianBlur stdDeviation="3.33334" result="effect_layerBlur_1"/>
		</filter>
		<linearGradient id="paint_linear_85_275_0" x1="10.178614" y1="133.516754" x2="99.187683" y2="133.516754" gradientUnits="userSpaceOnUse">
			<stop offset="0.007634" stop-color="#332205"/>
			<stop offset="0.518000" stop-color="#FFC75E"/>
			<stop offset="1.000000" stop-color="#332205"/>
		</linearGradient>
		<linearGradient id="paint_linear_85_276_0" x1="99.009117" y1="128.695724" x2="99.009117" y2="107.409424" gradientUnits="userSpaceOnUse">
			<stop stop-color="#C4964E"/>
			<stop offset="1.000000" stop-color="#332205"/>
		</linearGradient>
		<linearGradient id="paint_linear_85_276_1" x1="99.009117" y1="128.695724" x2="99.009117" y2="107.409424" gradientUnits="userSpaceOnUse">
			<stop stop-color="#FFDA93"/>
			<stop offset="1.000000" stop-color="#4F3304"/>
		</linearGradient>
		<linearGradient id="paint_linear_85_277_0" x1="17.685452" y1="22.673592" x2="90.966034" y2="22.673592" gradientUnits="userSpaceOnUse">
			<stop stop-color="#332205"/>
			<stop offset="0.518000" stop-color="#FFC75E"/>
			<stop offset="1.000000" stop-color="#332205"/>
		</linearGradient>
		<linearGradient id="paint_linear_85_278_0" x1="1088.832886" y1="455.265717" x2="1088.832886" y2="447.382202" gradientUnits="userSpaceOnUse">
			<stop stop-color="#25F1FF"/>
			<stop offset="0.002000" stop-color="#25F1FF"/>
			<stop offset="1.000000" stop-color="#000000" stop-opacity="0.000000"/>
		</linearGradient>
		<linearGradient id="paint_linear_85_279_0" x1="90.964561" y1="122.406052" x2="90.964561" y2="102.686050" gradientUnits="userSpaceOnUse">
			<stop stop-color="#FFC75E"/>
			<stop offset="1.000000" stop-color="#332205"/>
		</linearGradient>
		<radialGradient id="paint_radial_85_287_0" cx="0.000000" cy="0.000000" r="1.000000" gradientUnits="userSpaceOnUse" gradientTransform="translate(13.8255 15.659) rotate(87.7777) scale(96.0858 9.81796)">
			<stop stop-color="#ACFFEE"/>
			<stop offset="1.000000" stop-color="#0A1123" stop-opacity="0.000000"/>
		</radialGradient>
		<radialGradient id="paint_radial_85_288_0" cx="0.000000" cy="0.000000" r="1.000000" gradientUnits="userSpaceOnUse" gradientTransform="translate(78.8118 15.68) rotate(87.8545) scale(96.0615 9.14808)">
			<stop stop-color="#ACFFEE"/>
			<stop offset="1.000000" stop-color="#0A1123" stop-opacity="0.000000"/>
		</radialGradient>
		<linearGradient id="paint_linear_85_289_0" x1="91.211266" y1="18.518776" x2="91.211266" y2="3.031277" gradientUnits="userSpaceOnUse">
			<stop stop-color="#FFC75E"/>
			<stop offset="1.000000" stop-color="#332205"/>
		</linearGradient>
		<linearGradient id="paint_linear_85_290_0" x1="91.211266" y1="18.518776" x2="91.211266" y2="3.031277" gradientUnits="userSpaceOnUse">
			<stop stop-color="#FFC75E"/>
			<stop offset="1.000000" stop-color="#332205"/>
		</linearGradient>
		<linearGradient id="paint_linear_85_293_0" x1="73.134972" y1="12.962582" x2="73.134972" y2="5.104397" gradientUnits="userSpaceOnUse">
			<stop stop-color="#FFC75E"/>
			<stop offset="1.000000" stop-color="#332205"/>
		</linearGradient>
		<linearGradient id="paint_linear_85_294_0" x1="36.631226" y1="12.252975" x2="72.377838" y2="12.252975" gradientUnits="userSpaceOnUse">
			<stop stop-color="#332205"/>
			<stop offset="0.502000" stop-color="#C4964E"/>
			<stop offset="1.000000" stop-color="#332205"/>
		</linearGradient>
		<filter id="filter_85_295_dd" x="435.000000" y="-2207.500000" width="0.000000" height="0.000000" filterUnits="userSpaceOnUse" color-interpolation-filters="sRGB">
			<feFlood flood-opacity="0" result="BackgroundImageFix"/>
			<feColorMatrix in="SourceAlpha" type="matrix" values="0 0 0 0 0 0 0 0 0 0 0 0 0 0 0 0 0 0 127 0" result="hardAlpha"/>
			<feOffset dx="0" dy="0"/>
			<feGaussianBlur stdDeviation="2.33333"/>
			<feComposite in2="hardAlpha" operator="out" k2="-1" k3="1"/>
			<feColorMatrix type="matrix" values="0 0 0 0 1 0 0 0 0 0.92941 0 0 0 0 0.36863 0 0 0 0.81 0"/>
			<feBlend mode="normal" in2="BackgroundImageFix" result="effect_dropShadow_1"/>
			<feBlend mode="normal" in="SourceGraphic" in2="effect_dropShadow_1" result="shape"/>
		</filter>
		<filter id="filter_85_296_dd" x="435.000000" y="-2207.500000" width="0.000000" height="0.000000" filterUnits="userSpaceOnUse" color-interpolation-filters="sRGB">
			<feFlood flood-opacity="0" result="BackgroundImageFix"/>
			<feColorMatrix in="SourceAlpha" type="matrix" values="0 0 0 0 0 0 0 0 0 0 0 0 0 0 0 0 0 0 127 0" result="hardAlpha"/>
			<feOffset dx="0" dy="0"/>
			<feGaussianBlur stdDeviation="2.33333"/>
			<feComposite in2="hardAlpha" operator="out" k2="-1" k3="1"/>
			<feColorMatrix type="matrix" values="0 0 0 0 1 0 0 0 0 0.92941 0 0 0 0 0.36863 0 0 0 0.81 0"/>
			<feBlend mode="normal" in2="BackgroundImageFix" result="effect_dropShadow_1"/>
			<feBlend mode="normal" in="SourceGraphic" in2="effect_dropShadow_1" result="shape"/>
		</filter>
		<filter id="filter_85_297_dd" x="435.000000" y="-2207.500000" width="0.000000" height="0.000000" filterUnits="userSpaceOnUse" color-interpolation-filters="sRGB">
			<feFlood flood-opacity="0" result="BackgroundImageFix"/>
			<feColorMatrix in="SourceAlpha" type="matrix" values="0 0 0 0 0 0 0 0 0 0 0 0 0 0 0 0 0 0 127 0" result="hardAlpha"/>
			<feOffset dx="0" dy="0"/>
			<feGaussianBlur stdDeviation="2.33333"/>
			<feComposite in2="hardAlpha" operator="out" k2="-1" k3="1"/>
			<feColorMatrix type="matrix" values="0 0 0 0 1 0 0 0 0 0.92941 0 0 0 0 0.36863 0 0 0 0.81 0"/>
			<feBlend mode="normal" in2="BackgroundImageFix" result="effect_dropShadow_1"/>
			<feBlend mode="normal" in="SourceGraphic" in2="effect_dropShadow_1" result="shape"/>
		</filter>
		<linearGradient id="paint_linear_85_298_0" x1="72.384277" y1="8.044002" x2="72.384277" y2="0.500845" gradientUnits="userSpaceOnUse">
			<stop stop-color="#FFC75E"/>
			<stop offset="1.000000" stop-color="#332205"/>
		</linearGradient>
		<linearGradient id="paint_linear_85_299_0" x1="40.220726" y1="109.296402" x2="40.220726" y2="97.500000" gradientUnits="userSpaceOnUse">
			<stop stop-color="#FFFFFF"/>
			<stop offset="1.000000" stop-color="#E8FFF4"/>
		</linearGradient>
		<linearGradient id="paint_linear_85_300_0" x1="99.009117" y1="128.635574" x2="99.009117" y2="117.992424" gradientUnits="userSpaceOnUse">
			<stop offset="0.017137" stop-color="#FCFF93" stop-opacity="0.576471"/>
			<stop offset="0.977099" stop-color="#023338" stop-opacity="0.000000"/>
		</linearGradient>
		<linearGradient id="paint_linear_85_301_0" x1="99.009117" y1="133.395584" x2="99.009117" y2="122.752434" gradientUnits="userSpaceOnUse">
			<stop offset="0.017137" stop-color="#FCFF93" stop-opacity="0.576471"/>
			<stop offset="0.977099" stop-color="#023338" stop-opacity="0.000000"/>
		</linearGradient>
	</defs>
	<g filter="url(#filter_85_274_dd)">
		<path id="ellipse" d="M54.5045 115.273C79.0837 115.273 99.0091 120.038 99.0091 125.916C99.0091 131.794 79.0837 136.559 54.5045 136.559C29.9254 136.559 10 131.794 10 125.916C10 120.038 29.9254 115.273 54.5045 115.273Z" fill="#332205" fill-opacity="1.000000" fill-rule="evenodd"/>
	</g>
	<path id="path" d="M99.1877 122.803C99.1877 122.784 99.1841 122.769 99.1841 122.75C99.1841 122.737 99.1877 122.723 99.1877 122.708C99.1877 122.692 99.1841 122.674 99.1841 122.655C99.1841 122.642 99.1877 122.628 99.1877 122.615C99.1877 122.596 99.1841 122.578 99.1841 122.56L99.1841 122.424C99.1841 122.406 99.1806 122.388 99.1806 122.372C99.1806 122.356 99.1841 122.343 99.1841 122.329C99.1841 122.311 99.1806 122.295 99.1806 122.277C99.1806 122.263 99.1841 122.25 99.1841 122.234C99.1841 122.218 99.1806 122.2 99.1806 122.182C99.1806 122.168 99.1841 122.155 99.1841 122.141C99.1841 122.123 99.1806 122.105 99.1806 122.086C99.1806 122.073 99.1841 122.059 99.1841 122.046C99.1841 122.028 99.1806 122.01 99.1806 121.991L99.1806 121.855C99.1811 121.838 99.1799 121.821 99.1769 121.803C99.1769 121.79 99.1806 121.776 99.1806 121.76C99.1806 121.744 99.1769 121.726 99.1769 121.708C99.1769 121.694 99.1806 121.681 99.1806 121.667C99.1806 121.649 99.1769 121.631 99.1769 121.613C99.1769 121.599 99.1806 121.585 99.1806 121.572C99.1806 121.554 99.1769 121.536 99.1769 121.52C99.1769 121.504 99.1806 121.49 99.1806 121.477C99.1806 121.459 99.1769 121.441 99.1769 121.425L99.1769 121.289C99.1769 121.271 99.1733 121.252 99.1733 121.234C99.1733 121.221 99.1769 121.207 99.1769 121.194C99.1769 121.175 99.1733 121.157 99.1733 121.139C99.1733 121.125 99.1769 121.112 99.1769 121.098C99.1769 121.08 99.1733 121.062 99.1733 121.046C99.1733 121.03 99.1769 121.017 99.1769 121.003C99.1769 120.985 99.1733 120.969 99.1733 120.951C99.1733 120.938 99.1769 120.924 99.1769 120.908C99.1769 120.892 99.1733 120.874 99.1733 120.856L99.1733 120.72C99.1733 120.702 99.1698 120.684 99.1698 120.665C99.1698 120.652 99.1733 120.638 99.1733 120.625C99.1733 120.606 99.1698 120.588 99.1698 120.573C99.1698 120.557 99.1733 120.543 99.1733 120.53C99.1733 120.511 99.1698 120.495 99.1698 120.477C99.1698 120.464 99.1733 120.45 99.1733 120.434C99.1733 120.418 99.1698 120.4 99.1698 120.382C99.1698 120.368 99.1733 120.355 99.1733 120.341C99.1733 120.323 99.1698 120.305 99.1698 120.287L99.1698 120.151C99.1704 120.134 99.1693 120.116 99.1662 120.099C99.1662 120.083 99.1698 120.069 99.1698 120.056C99.1698 120.038 99.1662 120.022 99.1662 120.004C99.1662 119.99 99.1698 119.976 99.1698 119.96C99.1698 119.945 99.1662 119.927 99.1662 119.908C99.1662 119.895 99.1698 119.881 99.1698 119.868C99.1698 119.849 99.1662 119.831 99.1662 119.813C99.1662 119.8 99.1698 119.786 99.1698 119.772C99.1698 119.754 99.1662 119.736 99.1662 119.72L99.1662 119.582C99.1662 119.564 99.1627 119.548 99.1627 119.53C99.1627 119.516 99.1662 119.503 99.1662 119.487C99.1662 119.471 99.1627 119.453 99.1627 119.435C99.1627 119.421 99.1662 119.407 99.1662 119.394C99.1662 119.376 99.1627 119.358 99.1627 119.34C99.1627 119.326 99.1662 119.312 99.1662 119.299C99.1662 119.281 99.1627 119.262 99.1627 119.244C99.1627 119.231 99.1662 119.217 99.1662 119.204C99.1662 119.186 99.1627 119.17 99.1627 119.151L99.1627 119.015C99.1627 118.997 99.159 118.979 99.159 118.961C99.159 118.948 99.1627 118.934 99.1627 118.92C99.1627 118.902 99.159 118.884 99.159 118.866C99.159 118.852 99.1627 118.839 99.1627 118.825C99.1627 118.807 99.159 118.789 99.159 118.773C99.159 118.757 99.1627 118.743 99.1627 118.73C99.1627 118.712 99.159 118.696 99.159 118.678C99.159 118.664 99.1627 118.651 99.1627 118.635C99.1627 118.619 99.159 118.601 99.159 118.583L99.159 118.447C99.1596 118.428 99.1585 118.41 99.1555 118.392C99.1555 118.379 99.159 118.365 99.159 118.351C99.159 118.333 99.1555 118.315 99.1555 118.299C99.1555 118.283 99.159 118.27 99.159 118.256C99.159 118.238 99.1555 118.222 99.1555 118.204C99.1555 118.19 99.159 118.177 99.159 118.161C99.159 118.145 99.1555 118.127 99.1555 118.109C99.1555 118.095 99.159 118.082 99.159 118.068C99.159 112.202 79.2374 107.449 54.6689 107.449C30.1002 107.449 10.1786 112.201 10.1786 118.068C10.1782 118.085 10.1793 118.103 10.1822 118.12C10.1822 118.133 10.1786 118.147 10.1786 118.161C10.1786 118.179 10.1822 118.197 10.1822 118.215C10.1822 118.229 10.1786 118.242 10.1786 118.256C10.1786 118.274 10.1822 118.292 10.1822 118.31C10.1822 118.324 10.1786 118.337 10.1786 118.351C10.1786 118.369 10.1822 118.387 10.1822 118.403C10.1822 118.419 10.1786 118.432 10.1786 118.446C10.1786 118.464 10.1822 118.48 10.1822 118.498L10.1822 118.634C10.1816 118.652 10.1828 118.671 10.1857 118.689C10.1857 118.702 10.1822 118.716 10.1822 118.729C10.1822 118.748 10.1857 118.766 10.1857 118.781C10.1857 118.797 10.1822 118.811 10.1822 118.825C10.1822 118.843 10.1857 118.859 10.1857 118.877C10.1857 118.89 10.1822 118.906 10.1822 118.92C10.1822 118.938 10.1857 118.954 10.1857 118.972C10.1857 118.986 10.1822 118.999 10.1822 119.015C10.1822 119.031 10.1857 119.049 10.1857 119.067L10.1857 119.203C10.1852 119.221 10.1864 119.24 10.1894 119.258C10.1894 119.271 10.1857 119.285 10.1857 119.298C10.1857 119.316 10.1894 119.332 10.1894 119.35C10.1894 119.364 10.1857 119.38 10.1857 119.394C10.1857 119.412 10.1894 119.427 10.1894 119.446C10.1894 119.459 10.1857 119.473 10.1857 119.486C10.1857 119.505 10.1894 119.523 10.1894 119.541C10.1894 119.554 10.1857 119.568 10.1857 119.582C10.1857 119.6 10.1894 119.618 10.1894 119.636L10.1894 119.772C10.1888 119.789 10.19 119.807 10.1929 119.824C10.1929 119.838 10.1894 119.851 10.1894 119.867C10.1894 119.883 10.1929 119.901 10.1929 119.919C10.1929 119.933 10.1894 119.947 10.1894 119.96C10.1894 119.978 10.1929 119.996 10.1929 120.014C10.1929 120.028 10.1894 120.042 10.1894 120.055C10.1894 120.073 10.1929 120.092 10.1929 120.11C10.1929 120.123 10.1894 120.137 10.1894 120.15C10.1894 120.169 10.1929 120.187 10.1929 120.203L10.1929 120.341C10.1923 120.358 10.1936 120.376 10.1965 120.393C10.1965 120.407 10.1929 120.42 10.1929 120.434C10.1929 120.452 10.1965 120.47 10.1965 120.488C10.1965 120.502 10.1929 120.515 10.1929 120.529C10.1929 120.547 10.1965 120.565 10.1965 120.583C10.1965 120.597 10.1929 120.611 10.1929 120.624C10.1929 120.642 10.1965 120.66 10.1965 120.676C10.1965 120.692 10.1929 120.706 10.1929 120.719C10.1929 120.738 10.1965 120.753 10.1965 120.771L10.1965 120.907C10.196 120.926 10.1971 120.944 10.2001 120.962C10.2001 120.976 10.1965 120.989 10.1965 121.003C10.1965 121.021 10.2001 121.039 10.2001 121.055C10.2001 121.071 10.1965 121.084 10.1965 121.098C10.1965 121.116 10.2001 121.134 10.2001 121.15C10.2001 121.166 10.1965 121.179 10.1965 121.193C10.1965 121.211 10.2001 121.227 10.2001 121.245C10.2001 121.259 10.1965 121.272 10.1965 121.288C10.1965 121.304 10.2001 121.322 10.2001 121.34L10.2001 121.476C10.1993 121.494 10.2006 121.511 10.2036 121.529C10.2036 121.544 10.2001 121.558 10.2001 121.572C10.2001 121.59 10.2036 121.605 10.2036 121.624C10.2036 121.637 10.2001 121.653 10.2001 121.667C10.2001 121.685 10.2036 121.701 10.2036 121.719C10.2036 121.732 10.2001 121.746 10.2001 121.76C10.2001 121.778 10.2036 121.796 10.2036 121.814C10.2036 121.828 10.2001 121.841 10.2001 121.855C10.2001 121.873 10.2036 121.891 10.2036 121.909L10.2036 122.045C10.203 122.063 10.2043 122.08 10.2073 122.097C10.2073 122.111 10.2036 122.125 10.2036 122.14C10.2036 122.156 10.2073 122.174 10.2073 122.193C10.2073 122.206 10.2036 122.22 10.2036 122.233C10.2036 122.251 10.2073 122.27 10.2073 122.288C10.2073 122.301 10.2036 122.315 10.2036 122.329C10.2036 122.347 10.2073 122.365 10.2073 122.383C10.2073 122.396 10.2036 122.41 10.2036 122.424C10.2036 122.442 10.2073 122.46 10.2073 122.476L10.2073 122.614C10.2068 122.632 10.2079 122.649 10.2108 122.666C10.2108 122.68 10.2073 122.694 10.2073 122.707C10.2073 122.725 10.2108 122.743 10.2108 122.761C10.2108 122.775 10.2073 122.789 10.2073 122.802C10.2073 122.82 10.2108 122.838 10.2108 122.857C10.2108 122.87 10.2073 122.884 10.2073 122.897C10.2073 128.761 30.1252 133.517 54.6974 133.517C79.2697 133.517 99.1877 128.762 99.1877 122.898C99.1877 122.88 99.1841 122.862 99.1841 122.846C99.1841 122.83 99.1877 122.816 99.1877 122.803Z" fill="url(#paint_linear_85_275_0)" fill-opacity="1.000000" fill-rule="evenodd"/>
	<path id="path" d="M99.1841 122.75C99.1841 122.737 99.1877 122.723 99.1877 122.708C99.1877 122.692 99.1841 122.674 99.1841 122.655C99.1841 122.642 99.1877 122.628 99.1877 122.615C99.1877 122.596 99.1841 122.578 99.1841 122.56L99.1841 122.424C99.1841 122.406 99.1806 122.388 99.1806 122.372C99.1806 122.356 99.1841 122.343 99.1841 122.329C99.1841 122.311 99.1806 122.295 99.1806 122.277C99.1806 122.263 99.1841 122.25 99.1841 122.234C99.1841 122.218 99.1806 122.2 99.1806 122.182C99.1806 122.168 99.1841 122.155 99.1841 122.141C99.1841 122.123 99.1806 122.105 99.1806 122.086C99.1806 122.073 99.1841 122.059 99.1841 122.046C99.1841 122.028 99.1806 122.01 99.1806 121.991L99.1806 121.855C99.1811 121.838 99.1799 121.821 99.1769 121.803C99.1769 121.79 99.1806 121.776 99.1806 121.76C99.1806 121.744 99.1769 121.726 99.1769 121.708C99.1769 121.694 99.1806 121.681 99.1806 121.667C99.1806 121.649 99.1769 121.631 99.1769 121.613C99.1769 121.599 99.1806 121.585 99.1806 121.572C99.1806 121.554 99.1769 121.536 99.1769 121.52C99.1769 121.504 99.1806 121.49 99.1806 121.477C99.1806 121.459 99.1769 121.441 99.1769 121.425L99.1769 121.289C99.1769 121.271 99.1733 121.252 99.1733 121.234C99.1733 121.221 99.1769 121.207 99.1769 121.194C99.1769 121.175 99.1733 121.157 99.1733 121.139C99.1733 121.125 99.1769 121.112 99.1769 121.098C99.1769 121.08 99.1733 121.062 99.1733 121.046C99.1733 121.03 99.1769 121.017 99.1769 121.003C99.1769 120.985 99.1733 120.969 99.1733 120.951C99.1733 120.938 99.1769 120.924 99.1769 120.908C99.1769 120.892 99.1733 120.874 99.1733 120.856L99.1733 120.72C99.1733 120.702 99.1698 120.684 99.1698 120.665C99.1698 120.652 99.1733 120.638 99.1733 120.625C99.1733 120.606 99.1698 120.588 99.1698 120.573C99.1698 120.557 99.1733 120.543 99.1733 120.53C99.1733 120.511 99.1698 120.495 99.1698 120.477C99.1698 120.464 99.1733 120.45 99.1733 120.434C99.1733 120.418 99.1698 120.4 99.1698 120.382C99.1698 120.368 99.1733 120.355 99.1733 120.341C99.1733 120.323 99.1698 120.305 99.1698 120.287L99.1698 120.151C99.1704 120.134 99.1693 120.116 99.1662 120.099C99.1662 120.083 99.1698 120.069 99.1698 120.056C99.1698 120.038 99.1662 120.022 99.1662 120.004C99.1662 119.99 99.1698 119.976 99.1698 119.96C99.1698 119.945 99.1662 119.927 99.1662 119.908C99.1662 119.895 99.1698 119.881 99.1698 119.868C99.1698 119.849 99.1662 119.831 99.1662 119.813C99.1662 119.8 99.1698 119.786 99.1698 119.772C99.1698 119.754 99.1662 119.736 99.1662 119.72L99.1662 119.582C99.1662 119.564 99.1627 119.548 99.1627 119.53C99.1627 119.516 99.1662 119.503 99.1662 119.487C99.1662 119.471 99.1627 119.453 99.1627 119.435C99.1627 119.421 99.1662 119.407 99.1662 119.394C99.1662 119.376 99.1627 119.358 99.1627 119.34C99.1627 119.326 99.1662 119.312 99.1662 119.299C99.1662 119.281 99.1627 119.262 99.1627 119.244C99.1627 119.231 99.1662 119.217 99.1662 119.204C99.1662 119.186 99.1627 119.17 99.1627 119.151L99.1627 119.015C99.1627 118.997 99.159 118.979 99.159 118.961C99.159 118.948 99.1627 118.934 99.1627 118.92C99.1627 118.902 99.159 118.884 99.159 118.866C99.159 118.852 99.1627 118.839 99.1627 118.825C99.1627 118.807 99.159 118.789 99.159 118.773C99.159 118.757 99.1627 118.743 99.1627 118.73C99.1627 118.712 99.159 118.696 99.159 118.678C99.159 118.664 99.1627 118.651 99.1627 118.635C99.1627 118.619 99.159 118.601 99.159 118.583L99.159 118.447C99.1596 118.428 99.1585 118.41 99.1555 118.392C99.1555 118.379 99.159 118.365 99.159 118.351C99.159 118.333 99.1555 118.315 99.1555 118.299C99.1555 118.283 99.159 118.27 99.159 118.256C99.159 118.238 99.1555 118.222 99.1555 118.204C99.1555 118.19 99.159 118.177 99.159 118.161C99.159 118.145 99.1555 118.127 99.1555 118.109C99.1555 118.095 99.159 118.082 99.159 118.068C99.159 112.202 79.2374 107.449 54.6689 107.449C30.1002 107.449 10.1786 112.201 10.1786 118.068C10.1782 118.085 10.1793 118.103 10.1822 118.12C10.1822 118.133 10.1786 118.147 10.1786 118.161C10.1786 118.179 10.1822 118.197 10.1822 118.215C10.1822 118.229 10.1786 118.242 10.1786 118.256C10.1786 118.274 10.1822 118.292 10.1822 118.31C10.1822 118.324 10.1786 118.337 10.1786 118.351C10.1786 118.369 10.1822 118.387 10.1822 118.403C10.1822 118.419 10.1786 118.432 10.1786 118.446C10.1786 118.464 10.1822 118.48 10.1822 118.498L10.1822 118.634C10.1816 118.652 10.1828 118.671 10.1857 118.689C10.1857 118.702 10.1822 118.716 10.1822 118.729C10.1822 118.748 10.1857 118.766 10.1857 118.781C10.1857 118.797 10.1822 118.811 10.1822 118.825C10.1822 118.843 10.1857 118.859 10.1857 118.877C10.1857 118.89 10.1822 118.906 10.1822 118.92C10.1822 118.938 10.1857 118.954 10.1857 118.972C10.1857 118.986 10.1822 118.999 10.1822 119.015C10.1822 119.031 10.1857 119.049 10.1857 119.067L10.1857 119.203C10.1852 119.221 10.1864 119.24 10.1894 119.258C10.1894 119.271 10.1857 119.285 10.1857 119.298C10.1857 119.316 10.1894 119.332 10.1894 119.35C10.1894 119.364 10.1857 119.38 10.1857 119.394C10.1857 119.412 10.1894 119.427 10.1894 119.446C10.1894 119.459 10.1857 119.473 10.1857 119.486C10.1857 119.505 10.1894 119.523 10.1894 119.541C10.1894 119.554 10.1857 119.568 10.1857 119.582C10.1857 119.6 10.1894 119.618 10.1894 119.636L10.1894 119.772C10.1888 119.789 10.19 119.807 10.1929 119.824C10.1929 119.838 10.1894 119.851 10.1894 119.867C10.1894 119.883 10.1929 119.901 10.1929 119.919C10.1929 119.933 10.1894 119.947 10.1894 119.96C10.1894 119.978 10.1929 119.996 10.1929 120.014C10.1929 120.028 10.1894 120.042 10.1894 120.055C10.1894 120.073 10.1929 120.092 10.1929 120.11C10.1929 120.123 10.1894 120.137 10.1894 120.15C10.1894 120.169 10.1929 120.187 10.1929 120.203L10.1929 120.341C10.1923 120.358 10.1936 120.376 10.1965 120.393C10.1965 120.407 10.1929 120.42 10.1929 120.434C10.1929 120.452 10.1965 120.47 10.1965 120.488C10.1965 120.502 10.1929 120.515 10.1929 120.529C10.1929 120.547 10.1965 120.565 10.1965 120.583C10.1965 120.597 10.1929 120.611 10.1929 120.624C10.1929 120.642 10.1965 120.66 10.1965 120.676C10.1965 120.692 10.1929 120.706 10.1929 120.719C10.1929 120.738 10.1965 120.753 10.1965 120.771L10.1965 120.907C10.196 120.926 10.1971 120.944 10.2001 120.962C10.2001 120.976 10.1965 120.989 10.1965 121.003C10.1965 121.021 10.2001 121.039 10.2001 121.055C10.2001 121.071 10.1965 121.084 10.1965 121.098C10.1965 121.116 10.2001 121.134 10.2001 121.15C10.2001 121.166 10.1965 121.179 10.1965 121.193C10.1965 121.211 10.2001 121.227 10.2001 121.245C10.2001 121.259 10.1965 121.272 10.1965 121.288C10.1965 121.304 10.2001 121.322 10.2001 121.34L10.2001 121.476C10.1993 121.494 10.2006 121.511 10.2036 121.529C10.2036 121.544 10.2001 121.558 10.2001 121.572C10.2001 121.59 10.2036 121.605 10.2036 121.624C10.2036 121.637 10.2001 121.653 10.2001 121.667C10.2001 121.685 10.2036 121.701 10.2036 121.719C10.2036 121.732 10.2001 121.746 10.2001 121.76C10.2001 121.778 10.2036 121.796 10.2036 121.814C10.2036 121.828 10.2001 121.841 10.2001 121.855C10.2001 121.873 10.2036 121.891 10.2036 121.909L10.2036 122.045C10.203 122.063 10.2043 122.08 10.2073 122.097C10.2073 122.111 10.2036 122.125 10.2036 122.14C10.2036 122.156 10.2073 122.174 10.2073 122.193C10.2073 122.206 10.2036 122.22 10.2036 122.233C10.2036 122.251 10.2073 122.27 10.2073 122.288C10.2073 122.301 10.2036 122.315 10.2036 122.329C10.2036 122.347 10.2073 122.365 10.2073 122.383C10.2073 122.396 10.2036 122.41 10.2036 122.424C10.2036 122.442 10.2073 122.46 10.2073 122.476L10.2073 122.614C10.2068 122.632 10.2079 122.649 10.2108 122.666C10.2108 122.68 10.2073 122.694 10.2073 122.707C10.2073 122.725 10.2108 122.743 10.2108 122.761C10.2108 122.775 10.2073 122.789 10.2073 122.802C10.2073 122.82 10.2108 122.838 10.2108 122.857C10.2108 122.87 10.2073 122.884 10.2073 122.897C10.2073 128.761 30.1252 133.517 54.6974 133.517C79.2697 133.517 99.1877 128.762 99.1877 122.898C99.1877 122.88 99.1841 122.862 99.1841 122.846C99.1841 122.83 99.1877 122.816 99.1877 122.803C99.1877 122.784 99.1841 122.769 99.1841 122.75Z" stroke="#785111" stroke-opacity="0.697019" stroke-width="1.000000" stroke-linejoin="round"/>
	<path id="ellipse" d="M54.5045 107.409C79.0837 107.409 99.0091 112.175 99.0091 118.052C99.0091 123.931 79.0837 128.696 54.5045 128.696C29.9254 128.696 10 123.931 10 118.052C10 112.175 29.9254 107.409 54.5045 107.409Z" fill="url(#paint_linear_85_276_0)" fill-opacity="1.000000" fill-rule="evenodd"/>
	<path id="ellipse" d="M99.0091 118.052C99.0091 123.931 79.0837 128.696 54.5045 128.696C29.9254 128.696 10 123.931 10 118.052C10 112.175 29.9254 107.409 54.5045 107.409C79.0837 107.409 99.0091 112.175 99.0091 118.052Z" stroke="url(#paint_linear_85_276_1)" stroke-opacity="0.810000" stroke-width="1.000000" stroke-linejoin="round"/>
	<path id="path" d="M90.966 10.666C90.966 6.40454 74.5619 2.9502 54.3257 2.9502C34.0896 2.9502 17.6855 6.40454 17.6855 10.666C17.6849 10.6797 17.6861 10.6931 17.689 10.7068C17.6861 10.7209 17.6849 10.7354 17.6855 10.7498C17.6849 10.7634 17.6861 10.7771 17.689 10.7905C17.6842 10.8193 17.6842 10.8479 17.689 10.8767C17.686 10.8904 17.6849 10.9038 17.6855 10.9175C17.6849 10.9319 17.6861 10.9463 17.689 10.9607C17.6861 10.9741 17.6849 10.9878 17.6855 11.0015C17.6849 11.0159 17.6861 11.0303 17.689 11.0444C17.6861 11.0581 17.6849 11.0715 17.6855 11.0852C17.6849 11.0996 17.686 11.114 17.689 11.1284C17.6861 11.1418 17.6849 11.1555 17.6855 11.1692C17.6902 11.1978 17.6902 11.2266 17.6855 11.2554C17.6849 11.269 17.6861 11.2825 17.689 11.2961C17.6861 11.3103 17.6849 11.3247 17.6855 11.3391C17.6849 11.3528 17.6861 11.3665 17.689 11.3799C17.6861 11.3943 17.6849 11.4087 17.6855 11.4231C17.6849 11.4368 17.6861 11.4502 17.689 11.4639C17.6842 11.4924 17.6842 11.5212 17.689 11.55C17.686 11.5635 17.6849 11.5771 17.6855 11.5908C17.6849 11.6052 17.6861 11.6196 17.689 11.6338C17.686 11.6475 17.6849 11.6609 17.6855 11.6746C17.6849 11.689 17.6861 11.7034 17.689 11.7178C17.6861 11.7312 17.6849 11.7449 17.6855 11.7585C17.6849 11.7729 17.686 11.7874 17.689 11.8015C17.6861 11.8152 17.6849 11.8286 17.6855 11.8423C17.6902 11.8711 17.6902 11.8997 17.6855 11.9285C17.6849 11.9421 17.6861 11.9558 17.689 11.9692C17.686 11.9836 17.6849 11.998 17.6855 12.0125C17.6849 12.0261 17.6861 12.0396 17.689 12.0532C17.6861 12.0674 17.6849 12.0818 17.6855 12.0962C17.6849 12.1099 17.6861 12.1235 17.689 12.137C17.6861 12.1514 17.6849 12.1658 17.6855 12.1802C17.6849 12.1938 17.6861 12.2073 17.689 12.2209C17.6842 12.2495 17.6842 12.2783 17.689 12.3071C17.686 12.3206 17.6849 12.3342 17.6855 12.3479C17.6849 12.3623 17.6861 12.3767 17.689 12.3909C17.686 12.4045 17.6849 12.418 17.6855 12.4316C17.6849 12.446 17.6861 12.4604 17.689 12.4749C17.6861 12.4883 17.6849 12.502 17.6855 12.5156C17.6902 12.5442 17.6902 12.573 17.6855 12.6018C17.6849 12.6155 17.6861 12.6289 17.689 12.6426C17.686 12.6567 17.6849 12.6711 17.6855 12.6855C17.6849 12.6992 17.6861 12.7129 17.689 12.7263C17.6861 12.7407 17.6849 12.7551 17.6855 12.7695C17.6849 12.7832 17.6861 12.7966 17.689 12.8103C17.6861 12.8245 17.6849 12.8389 17.6855 12.8533C17.6849 12.8669 17.6861 12.8806 17.689 12.894C17.6842 12.9229 17.6842 12.9517 17.689 12.9802C17.6861 12.9939 17.6849 13.0073 17.6855 13.021C17.6849 13.0354 17.6861 13.0498 17.689 13.0642C17.686 13.0776 17.6849 13.0913 17.6855 13.105C17.6849 13.1194 17.6861 13.1338 17.689 13.1479C17.686 13.1616 17.6849 13.175 17.6855 13.1887C17.6849 13.2031 17.686 13.2175 17.689 13.2319C17.6861 13.2454 17.6849 13.259 17.6855 13.2727C17.6902 13.3013 17.6902 13.3301 17.6855 13.3589C17.6849 13.3726 17.6861 13.386 17.689 13.3997C17.686 13.4138 17.6849 13.4282 17.6855 13.4426C17.6849 13.4563 17.6861 13.47 17.689 13.4834C17.6861 13.4978 17.6849 13.5122 17.6855 13.5266C17.6849 13.5403 17.6861 13.5537 17.689 13.5674C17.6842 13.5962 17.6842 13.6248 17.689 13.6536C17.6861 13.667 17.6849 13.6807 17.6855 13.6943C17.6849 13.7087 17.6861 13.7231 17.689 13.7373C17.6861 13.751 17.6849 13.7644 17.6855 13.7781C17.6849 13.7925 17.6861 13.8069 17.689 13.8213C17.686 13.8347 17.6849 13.8484 17.6855 13.8621C17.6849 13.8765 17.686 13.8909 17.689 13.905C17.686 13.9187 17.6849 13.9321 17.6855 13.9458C17.6902 13.9746 17.6902 14.0034 17.6855 14.032C17.6849 14.0457 17.6861 14.0593 17.689 14.0728C17.686 14.0872 17.6849 14.1016 17.6855 14.116C17.6849 14.1296 17.6861 14.1431 17.689 14.1567C17.6861 14.1709 17.6849 14.1853 17.6855 14.1997C17.6849 14.2134 17.6861 14.2271 17.689 14.2405C17.6861 14.2549 17.6849 14.2693 17.6855 14.2837C17.6849 14.2974 17.6861 14.311 17.689 14.3245C17.6842 14.353 17.6842 14.3818 17.689 14.4106C17.6861 14.4241 17.6849 14.4377 17.6855 14.4514C17.6849 14.4658 17.6861 14.4802 17.689 14.4944C17.6861 14.5081 17.6849 14.5215 17.6855 14.5352C17.6849 14.5498 17.6861 14.564 17.689 14.5784C17.686 14.5918 17.6849 14.6055 17.6855 14.6191C17.6902 14.6479 17.6902 14.6765 17.6855 14.7053C17.6849 14.719 17.6861 14.7327 17.689 14.7461C17.686 14.7603 17.6849 14.7747 17.6855 14.7891C17.6849 14.8027 17.6861 14.8164 17.689 14.8298C17.6861 14.8442 17.6849 14.8586 17.6855 14.873C17.6849 14.8867 17.6861 14.9001 17.689 14.9138C17.6861 14.928 17.6849 14.9424 17.6855 14.9568C17.6855 19.2183 34.0896 22.6726 54.3257 22.6726C74.5619 22.6726 90.966 19.2183 90.966 14.9568C90.966 14.9434 90.9624 14.9275 90.9624 14.9138C90.9624 14.9001 90.966 14.8867 90.966 14.873C90.966 14.8594 90.9624 14.8435 90.9624 14.8298C90.9624 14.8164 90.966 14.8027 90.966 14.7891C90.966 14.7756 90.9624 14.7598 90.9624 14.7461C90.9624 14.7324 90.966 14.7188 90.966 14.7053C90.966 14.6917 90.9624 14.6758 90.9624 14.6621C90.9624 14.6487 90.966 14.635 90.966 14.6191C90.966 14.6033 90.9624 14.592 90.9624 14.5784C90.9624 14.5647 90.966 14.5488 90.966 14.5354C90.966 14.5217 90.9624 14.5081 90.9624 14.4944C90.9624 14.481 90.966 14.4651 90.966 14.4514C90.966 14.4377 90.9624 14.4243 90.9624 14.4106C90.9624 14.397 90.966 14.3811 90.966 14.3677C90.966 14.354 90.9624 14.3403 90.9624 14.3245C90.9624 14.3086 90.966 14.2974 90.966 14.2837C90.966 14.27 90.9624 14.2566 90.9624 14.2407C90.9624 14.2249 90.966 14.2134 90.966 14.2C90.966 14.1863 90.9624 14.1704 90.9624 14.1567C90.9624 14.1433 90.966 14.1296 90.966 14.116C90.966 14.1023 90.9624 14.0864 90.9624 14.073C90.9624 14.0593 90.966 14.0457 90.966 14.032C90.966 14.0186 90.9624 14.0027 90.9624 13.989C90.9624 13.9753 90.966 13.9619 90.966 13.946C90.966 13.9302 90.9624 13.9187 90.9624 13.9053C90.9624 13.8916 90.966 13.8779 90.966 13.8621C90.966 13.8462 90.9624 13.835 90.9624 13.8213C90.9624 13.8076 90.966 13.7917 90.966 13.7783C90.966 13.7646 90.9624 13.751 90.9624 13.7375C90.9624 13.7239 90.966 13.708 90.966 13.6943C90.966 13.6809 90.9624 13.6672 90.9624 13.6536C90.9624 13.6399 90.966 13.624 90.966 13.6106C90.966 13.5969 90.9624 13.5833 90.9624 13.5674C90.9624 13.5515 90.966 13.5403 90.966 13.5266C90.966 13.5129 90.9624 13.4971 90.9624 13.4836C90.9624 13.47 90.966 13.4563 90.966 13.4429C90.966 13.4292 90.9624 13.4133 90.9624 13.3997C90.9624 13.3862 90.966 13.3726 90.966 13.3589C90.966 13.3452 90.9624 13.3293 90.9624 13.3159C90.9624 13.3022 90.966 13.2886 90.966 13.2727C90.966 13.2571 90.9624 13.2456 90.9624 13.2319C90.9624 13.2185 90.966 13.2048 90.966 13.189C90.966 13.1731 90.9624 13.1619 90.9624 13.1482C90.9624 13.1345 90.966 13.1187 90.966 13.105C90.966 13.0916 90.9624 13.0779 90.9624 13.0642C90.9624 13.0508 90.966 13.0349 90.966 13.0212C90.966 13.0076 90.9624 12.9941 90.9624 12.9805C90.9624 12.9668 90.966 12.9509 90.966 12.9373C90.966 12.9238 90.9624 12.9102 90.9624 12.8943C90.9624 12.8784 90.966 12.8672 90.966 12.8535C90.966 12.8398 90.9624 12.8262 90.9624 12.8105C90.9624 12.7947 90.966 12.7832 90.966 12.7695C90.966 12.7561 90.9624 12.7402 90.9624 12.7266C90.9624 12.7129 90.966 12.6995 90.966 12.6858C90.966 12.6721 90.9624 12.6562 90.9624 12.6428C90.9624 12.6292 90.966 12.6155 90.966 12.6018C90.966 12.5884 90.9624 12.5725 90.9624 12.5588C90.9624 12.5452 90.966 12.5317 90.966 12.5159C90.966 12.5 90.9624 12.4885 90.9624 12.4749C90.9624 12.4614 90.966 12.4456 90.966 12.4319C90.966 12.4185 90.9624 12.4048 90.9624 12.3911C90.9624 12.3774 90.966 12.3616 90.966 12.3481C90.966 12.3345 90.9624 12.3208 90.9624 12.3074C90.9624 12.2937 90.966 12.2778 90.966 12.2642C90.966 12.2507 90.9624 12.2371 90.9624 12.2212C90.9624 12.2053 90.966 12.1938 90.966 12.1804C90.966 12.1667 90.9624 12.1531 90.9624 12.1372C90.9624 12.1213 90.966 12.1101 90.966 12.0964C90.966 12.0828 90.9624 12.0669 90.9624 12.0535C90.9624 12.0398 90.966 12.0261 90.966 12.0127C90.966 11.999 90.9624 11.9832 90.9624 11.9695C90.9624 11.9561 90.966 11.9424 90.966 11.9287C90.966 11.915 90.9624 11.8992 90.9624 11.8857C90.9624 11.8721 90.966 11.8584 90.966 11.8425C90.966 11.8267 90.9624 11.8154 90.9624 11.8018C90.9624 11.7881 90.966 11.7747 90.966 11.7588C90.966 11.7429 90.9624 11.7314 90.9624 11.718C90.9624 11.7043 90.966 11.6885 90.966 11.6748C90.966 11.6614 90.9624 11.6477 90.9624 11.634C90.9624 11.6204 90.966 11.6047 90.966 11.5911C90.966 11.5774 90.9624 11.5637 90.9624 11.5503C90.9624 11.5366 90.966 11.5208 90.966 11.5071C90.966 11.4937 90.9624 11.48 90.9624 11.4641C90.9624 11.4482 90.966 11.437 90.966 11.4233C90.966 11.4097 90.9624 11.396 90.9624 11.3801C90.9624 11.3645 90.966 11.353 90.966 11.3394C90.966 11.3259 90.9624 11.3101 90.9624 11.2964C90.9624 11.2827 90.966 11.2693 90.966 11.2556C90.966 11.2419 90.9624 11.2261 90.9624 11.2124C90.9624 11.199 90.966 11.1853 90.966 11.1694C90.966 11.1536 90.9624 11.1423 90.9624 11.1287C90.9624 11.115 90.966 11.1016 90.966 11.0857C90.966 11.0698 90.9624 11.0583 90.9624 11.0447C90.9624 11.0312 90.966 11.0154 90.966 11.0017C90.966 10.988 90.9624 10.9746 90.9624 10.9609C90.9624 10.9473 90.966 10.9314 90.966 10.918C90.966 10.9043 90.9624 10.8906 90.9624 10.877C90.9624 10.8635 90.966 10.8477 90.966 10.834C90.966 10.8203 90.9624 10.8069 90.9624 10.791C90.9624 10.7751 90.966 10.7637 90.966 10.7502C90.966 10.7366 90.9624 10.7227 90.9624 10.7068C90.9624 10.6931 90.966 10.6794 90.966 10.666Z" fill="url(#paint_linear_85_277_0)" fill-opacity="1.000000" fill-rule="evenodd"/>
	<g opacity="0.200000">
		<path id="path" d="M18.0429 14.5623C18.0423 14.5759 18.0435 14.5896 18.0464 14.603C18.0435 14.6174 18.0423 14.6316 18.0429 14.6462C18.0423 14.6599 18.0435 14.6733 18.0464 14.687C18.0435 14.7012 18.0423 14.7156 18.0429 14.73C18.0429 18.9912 34.447 22.4458 54.6832 22.4458C74.9193 22.4458 91.3235 18.9912 91.3235 14.73C91.3235 14.7163 91.3199 14.7004 91.3199 14.687C91.3199 14.6733 91.3235 14.6597 91.3235 14.6462C91.3235 14.6326 91.3199 14.6167 91.3199 14.603C91.3199 14.5896 91.3235 14.5759 91.3235 14.5623L18.0429 14.5623Z" fill="#000000" fill-opacity="0" fill-rule="evenodd"/>
		<path id="path" d="M18.0429 14.5623C18.0423 14.5759 18.0435 14.5896 18.0464 14.603C18.0435 14.6174 18.0423 14.6316 18.0429 14.6462C18.0423 14.6599 18.0435 14.6733 18.0464 14.687C18.0435 14.7012 18.0423 14.7156 18.0429 14.73C18.0429 18.9912 34.447 22.4458 54.6832 22.4458C74.9193 22.4458 91.3235 18.9912 91.3235 14.73C91.3235 14.7163 91.3199 14.7004 91.3199 14.687C91.3199 14.6733 91.3235 14.6597 91.3235 14.6462C91.3235 14.6326 91.3199 14.6167 91.3199 14.603C91.3199 14.5896 91.3235 14.5759 91.3235 14.5623" stroke="url(#paint_linear_85_278_0)" stroke-opacity="1.000000" stroke-width="1.000000"/>
	</g>
	<path id="path" d="M90.966 110.4C90.966 106.138 74.5619 102.684 54.3257 102.684C34.0896 102.684 17.6855 106.138 17.6855 110.4C17.6849 110.413 17.6861 110.427 17.689 110.44C17.6861 110.455 17.6849 110.469 17.6855 110.483C17.6849 110.497 17.6861 110.511 17.689 110.524C17.6842 110.553 17.6842 110.582 17.689 110.61C17.6861 110.624 17.6849 110.637 17.6855 110.651C17.6849 110.666 17.6861 110.68 17.689 110.694C17.6861 110.708 17.6849 110.721 17.6855 110.735C17.6849 110.749 17.6861 110.764 17.689 110.778C17.6861 110.792 17.6849 110.805 17.6855 110.819C17.6902 110.847 17.6902 110.876 17.6855 110.905C17.6849 110.918 17.6861 110.932 17.689 110.946C17.686 110.96 17.6849 110.974 17.6855 110.989C17.6849 111.002 17.6861 111.016 17.689 111.03C17.6861 111.044 17.6849 111.058 17.6855 111.073C17.6849 111.086 17.6861 111.1 17.689 111.113C17.6861 111.128 17.6849 111.142 17.6855 111.156C17.6849 111.17 17.6861 111.184 17.689 111.197C17.6842 111.226 17.6842 111.255 17.689 111.283C17.6861 111.297 17.6849 111.31 17.6855 111.324C17.6849 111.338 17.6861 111.353 17.689 111.367C17.6861 111.381 17.6849 111.394 17.6855 111.408C17.6849 111.422 17.6861 111.437 17.689 111.451C17.6861 111.464 17.6849 111.478 17.6855 111.492C17.6849 111.506 17.686 111.521 17.689 111.535C17.6861 111.548 17.6849 111.562 17.6855 111.576C17.6902 111.604 17.6902 111.633 17.6855 111.662C17.6849 111.675 17.6861 111.689 17.689 111.702C17.686 111.717 17.6849 111.731 17.6855 111.746C17.6849 111.759 17.6861 111.773 17.689 111.786C17.6861 111.801 17.6849 111.815 17.6855 111.829C17.6849 111.843 17.6861 111.857 17.689 111.87C17.6861 111.885 17.6849 111.899 17.6855 111.913C17.6849 111.927 17.6861 111.94 17.689 111.954C17.6842 111.983 17.6842 112.011 17.689 112.04C17.6861 112.054 17.6849 112.067 17.6855 112.081C17.6849 112.095 17.6861 112.11 17.689 112.124C17.6861 112.137 17.6849 112.151 17.6855 112.165C17.6849 112.179 17.6861 112.194 17.689 112.208C17.6861 112.221 17.6849 112.235 17.6855 112.249C17.6902 112.277 17.6902 112.306 17.6855 112.335C17.6849 112.348 17.6861 112.362 17.689 112.375C17.686 112.39 17.6849 112.404 17.6855 112.418C17.6849 112.432 17.6861 112.446 17.689 112.459C17.6861 112.474 17.6849 112.488 17.6855 112.502C17.6849 112.516 17.6861 112.53 17.689 112.543C17.6861 112.557 17.6849 112.572 17.6855 112.586C17.6849 112.6 17.6861 112.614 17.689 112.627C17.6842 112.656 17.6842 112.684 17.689 112.713C17.6861 112.727 17.6849 112.74 17.6855 112.754C17.6849 112.768 17.6861 112.782 17.689 112.797C17.6861 112.81 17.6849 112.824 17.6855 112.838C17.6849 112.852 17.6861 112.866 17.689 112.881C17.6861 112.894 17.6849 112.908 17.6855 112.922C17.6849 112.936 17.686 112.95 17.689 112.965C17.6861 112.978 17.6849 112.992 17.6855 113.005C17.6902 113.034 17.6902 113.063 17.6855 113.092C17.6849 113.105 17.6861 113.119 17.689 113.132C17.686 113.146 17.6849 113.161 17.6855 113.175C17.6849 113.189 17.6861 113.203 17.689 113.216C17.6861 113.23 17.6849 113.245 17.6855 113.259C17.6849 113.273 17.6861 113.286 17.689 113.3C17.6842 113.329 17.6842 113.357 17.689 113.386C17.6861 113.4 17.6849 113.413 17.6855 113.427C17.6849 113.441 17.6861 113.456 17.689 113.47C17.6861 113.483 17.6849 113.497 17.6855 113.511C17.6849 113.525 17.6861 113.539 17.689 113.554C17.6861 113.567 17.6849 113.581 17.6855 113.594C17.6849 113.609 17.686 113.623 17.689 113.637C17.6861 113.651 17.6849 113.665 17.6855 113.678C17.6902 113.707 17.6902 113.736 17.6855 113.764C17.6849 113.778 17.6861 113.792 17.689 113.805C17.686 113.82 17.6849 113.834 17.6855 113.848C17.6849 113.862 17.686 113.875 17.689 113.889C17.6861 113.903 17.6849 113.918 17.6855 113.932C17.6849 113.946 17.6861 113.959 17.689 113.973C17.6861 113.987 17.6849 114.001 17.6855 114.016C17.6849 114.03 17.6861 114.043 17.689 114.057C17.6842 114.085 17.6842 114.114 17.689 114.143C17.6861 114.156 17.6849 114.17 17.6855 114.184C17.6849 114.198 17.6861 114.212 17.689 114.227C17.6861 114.24 17.6849 114.254 17.6855 114.268C17.6849 114.282 17.6861 114.296 17.689 114.311C17.6861 114.324 17.6849 114.338 17.6855 114.351C17.6902 114.38 17.6902 114.409 17.6855 114.438C17.6849 114.451 17.6861 114.465 17.689 114.478C17.686 114.492 17.6849 114.507 17.6855 114.521C17.6849 114.535 17.6861 114.549 17.689 114.562C17.6861 114.576 17.6849 114.591 17.6855 114.605C17.6849 114.619 17.6861 114.632 17.689 114.646C17.6861 114.66 17.6849 114.675 17.6855 114.689C17.6855 118.95 34.0896 122.405 54.3257 122.405C74.5619 122.405 90.966 118.95 90.966 114.689C90.966 114.675 90.9624 114.659 90.9624 114.646C90.9624 114.632 90.966 114.619 90.966 114.605C90.966 114.592 90.9624 114.576 90.9624 114.562C90.9624 114.548 90.966 114.535 90.966 114.521C90.966 114.508 90.9624 114.492 90.9624 114.478C90.9624 114.465 90.966 114.451 90.966 114.438C90.966 114.424 90.9624 114.408 90.9624 114.394C90.9624 114.381 90.966 114.367 90.966 114.351C90.966 114.335 90.9624 114.324 90.9624 114.311C90.9624 114.297 90.966 114.281 90.966 114.268C90.966 114.254 90.9624 114.24 90.9624 114.227C90.9624 114.213 90.966 114.197 90.966 114.184C90.966 114.17 90.9624 114.156 90.9624 114.143C90.9624 114.129 90.966 114.113 90.966 114.1C90.966 114.086 90.9624 114.073 90.9624 114.057C90.9624 114.041 90.966 114.03 90.966 114.016C90.966 114.002 90.9624 113.989 90.9624 113.973C90.9624 113.957 90.966 113.946 90.966 113.932C90.966 113.918 90.9624 113.903 90.9624 113.889C90.9624 113.875 90.966 113.862 90.966 113.848C90.966 113.835 90.9624 113.819 90.9624 113.805C90.9624 113.792 90.966 113.778 90.966 113.764C90.966 113.751 90.9624 113.735 90.9624 113.721C90.9624 113.708 90.966 113.694 90.966 113.678C90.966 113.663 90.9624 113.651 90.9624 113.637C90.9624 113.624 90.966 113.61 90.966 113.594C90.966 113.579 90.9624 113.567 90.9624 113.554C90.9624 113.54 90.966 113.524 90.966 113.511C90.966 113.497 90.9624 113.483 90.9624 113.47C90.9624 113.456 90.966 113.44 90.966 113.427C90.966 113.413 90.9624 113.4 90.9624 113.386C90.9624 113.373 90.966 113.357 90.966 113.343C90.966 113.329 90.9624 113.316 90.9624 113.3C90.9624 113.284 90.966 113.273 90.966 113.259C90.966 113.246 90.9624 113.23 90.9624 113.216C90.9624 113.202 90.966 113.189 90.966 113.175C90.966 113.162 90.9624 113.146 90.9624 113.132C90.9624 113.119 90.966 113.105 90.966 113.092C90.966 113.078 90.9624 113.062 90.9624 113.048C90.9624 113.035 90.966 113.021 90.966 113.005C90.966 112.99 90.9624 112.978 90.9624 112.965C90.9624 112.951 90.966 112.937 90.966 112.922C90.966 112.906 90.9624 112.894 90.9624 112.881C90.9624 112.867 90.966 112.851 90.966 112.838C90.966 112.824 90.9624 112.811 90.9624 112.797C90.9624 112.783 90.966 112.767 90.966 112.754C90.966 112.74 90.9624 112.727 90.9624 112.713C90.9624 112.699 90.966 112.684 90.966 112.67C90.966 112.656 90.9624 112.643 90.9624 112.627C90.9624 112.611 90.966 112.6 90.966 112.586C90.966 112.573 90.9624 112.559 90.9624 112.543C90.9624 112.527 90.966 112.516 90.966 112.502C90.966 112.489 90.9624 112.473 90.9624 112.459C90.9624 112.446 90.966 112.432 90.966 112.418C90.966 112.405 90.9624 112.389 90.9624 112.375C90.9624 112.362 90.966 112.348 90.966 112.335C90.966 112.321 90.9624 112.305 90.9624 112.292C90.9624 112.278 90.966 112.264 90.966 112.249C90.966 112.233 90.9624 112.221 90.9624 112.208C90.9624 112.194 90.966 112.178 90.966 112.165C90.966 112.151 90.9624 112.137 90.9624 112.124C90.9624 112.11 90.966 112.094 90.966 112.081C90.966 112.067 90.9624 112.054 90.9624 112.04C90.9624 112.027 90.966 112.011 90.966 111.997C90.966 111.983 90.9624 111.97 90.9624 111.954C90.9624 111.938 90.966 111.927 90.966 111.913C90.966 111.9 90.9624 111.886 90.9624 111.87C90.9624 111.854 90.966 111.843 90.966 111.829C90.966 111.816 90.9624 111.8 90.9624 111.786C90.9624 111.773 90.966 111.759 90.966 111.746C90.966 111.732 90.9624 111.716 90.9624 111.702C90.9624 111.689 90.966 111.675 90.966 111.662C90.966 111.648 90.9624 111.632 90.9624 111.619C90.9624 111.605 90.966 111.591 90.966 111.576C90.966 111.56 90.9624 111.548 90.9624 111.535C90.9624 111.521 90.966 111.508 90.966 111.492C90.966 111.476 90.9624 111.465 90.9624 111.451C90.9624 111.438 90.966 111.422 90.966 111.408C90.966 111.394 90.9624 111.381 90.9624 111.367C90.9624 111.354 90.966 111.338 90.966 111.324C90.966 111.311 90.9624 111.297 90.9624 111.283C90.9624 111.27 90.966 111.254 90.966 111.24C90.966 111.227 90.9624 111.213 90.9624 111.197C90.9624 111.181 90.966 111.17 90.966 111.156C90.966 111.143 90.9624 111.129 90.9624 111.113C90.9624 111.097 90.966 111.086 90.966 111.073C90.966 111.059 90.9624 111.043 90.9624 111.03C90.9624 111.016 90.966 111.002 90.966 110.989C90.966 110.975 90.9624 110.959 90.9624 110.946C90.9624 110.932 90.966 110.918 90.966 110.905C90.966 110.891 90.9624 110.875 90.9624 110.862C90.9624 110.848 90.966 110.834 90.966 110.819C90.966 110.803 90.9624 110.792 90.9624 110.778C90.9624 110.764 90.966 110.749 90.966 110.735C90.966 110.721 90.9624 110.708 90.9624 110.694C90.9624 110.681 90.966 110.665 90.966 110.651C90.966 110.637 90.9624 110.624 90.9624 110.61C90.9624 110.597 90.966 110.581 90.966 110.567C90.966 110.554 90.9624 110.54 90.9624 110.524C90.9624 110.508 90.966 110.497 90.966 110.483C90.966 110.47 90.9624 110.456 90.9624 110.44C90.9624 110.427 90.966 110.413 90.966 110.4Z" fill="url(#paint_linear_85_279_0)" fill-opacity="1.000000" fill-rule="evenodd"/>
	<path id="path" d="M91.2127 11.3276L91.2127 115.161L17.8571 115.161L17.8571 11.3276L91.2127 11.3276Z" fill="#6E624D" fill-opacity="0.479876" fill-rule="evenodd"/>
	<path id="path" d="M91.2127 115.161L17.8571 115.161L17.8571 11.3276L91.2127 11.3276L91.2127 115.161Z" stroke="#FFC75E" stroke-opacity="1.000000" stroke-width="1.000000" stroke-linejoin="round"/>
	<path id="path" d="M91.2127 11.3276L91.2127 115.161L17.8571 115.161L17.8571 11.3276L91.2127 11.3276Z" fill="#512E09" fill-opacity="0.466667" fill-rule="evenodd"/>
	<path id="path" d="M91.2127 115.161L17.8571 115.161L17.8571 11.3276L91.2127 11.3276L91.2127 115.161Z" stroke="#FFC75E" stroke-opacity="1.000000" stroke-width="1.000000" stroke-linejoin="round"/>
	<path id="path" d="M91.2127 115.155C91.2127 119.432 74.7943 122.898 54.5367 122.898C34.2791 122.898 17.8571 119.43 17.8571 115.155C17.8571 110.88 34.2791 107.41 54.5367 107.41C74.7943 107.41 91.2127 110.878 91.2127 115.155Z" fill="#785111" fill-opacity="1.000000" fill-rule="evenodd"/>
	<path id="path" d="M54.5367 122.898C34.2791 122.898 17.8571 119.43 17.8571 115.155C17.8571 110.88 34.2791 107.41 54.5367 107.41C74.7943 107.41 91.2127 110.878 91.2127 115.155C91.2127 119.432 74.7943 122.898 54.5367 122.898Z" stroke="#FFC75E" stroke-opacity="1.000000" stroke-width="1.000000" stroke-linejoin="round"/>
	<path id="path" d="M91.2127 115.155C91.2127 119.432 74.7943 122.898 54.5367 122.898C34.2791 122.898 17.8571 119.43 17.8571 115.155C17.8571 110.88 34.2791 107.41 54.5367 107.41C74.7943 107.41 91.2127 110.878 91.2127 115.155Z" fill="#785111" fill-opacity="1.000000" fill-rule="evenodd"/>
	<path id="path" d="M54.5367 122.898C34.2791 122.898 17.8571 119.43 17.8571 115.155C17.8571 110.88 34.2791 107.41 54.5367 107.41C74.7943 107.41 91.2127 110.878 91.2127 115.155C91.2127 119.432 74.7943 122.898 54.5367 122.898Z" stroke="#FFC75E" stroke-opacity="1.000000" stroke-width="1.000000" stroke-linejoin="round"/>
	<g opacity="0.300000">
		<path id="rect" d="M26.5921 15.8452L26.5793 121.173L17.8535 121.173L17.5515 11.9282L26.5921 15.8452Z" fill="url(#paint_radial_85_287_0)" fill-opacity="0.400000" fill-rule="evenodd"/>
	</g>
	<g opacity="0.300000">
		<path id="rect" d="M90.9735 11.95L91.1341 121.173L82.4084 121.173L82.5699 16.0701L90.9735 11.95Z" fill="url(#paint_radial_85_288_0)" fill-opacity="0.400000" fill-rule="evenodd"/>
	</g>
	<path id="path" d="M91.2127 10.7747C91.2127 15.052 74.7943 18.5176 54.5367 18.5176C34.2791 18.5176 17.8571 15.0496 17.8571 10.7747C17.8571 6.49976 34.2791 3.02954 54.5367 3.02954C74.7943 3.02954 91.2127 6.49756 91.2127 10.7747Z" fill="url(#paint_linear_85_289_0)" fill-opacity="1.000000" fill-rule="evenodd"/>
	<path id="path" d="M54.5367 18.5176C34.2791 18.5176 17.8571 15.0496 17.8571 10.7747C17.8571 6.49976 34.2791 3.02954 54.5367 3.02954C74.7943 3.02954 91.2127 6.49756 91.2127 10.7747C91.2127 15.052 74.7943 18.5176 54.5367 18.5176Z" stroke="#FFC75E" stroke-opacity="1.000000" stroke-width="1.000000" stroke-linejoin="round"/>
	<path id="path" d="M91.2127 10.7747C91.2127 15.052 74.7943 18.5176 54.5367 18.5176C34.2791 18.5176 17.8571 15.0496 17.8571 10.7747C17.8571 6.49976 34.2791 3.02954 54.5367 3.02954C74.7943 3.02954 91.2127 6.49756 91.2127 10.7747Z" fill="url(#paint_linear_85_290_0)" fill-opacity="1.000000" fill-rule="evenodd"/>
	<path id="path" d="M54.5367 18.5176C34.2791 18.5176 17.8571 15.0496 17.8571 10.7747C17.8571 6.49976 34.2791 3.02954 54.5367 3.02954C74.7943 3.02954 91.2127 6.49756 91.2127 10.7747C91.2127 15.052 74.7943 18.5176 54.5367 18.5176Z" stroke="#FFC75E" stroke-opacity="1.000000" stroke-width="1.000000" stroke-linejoin="round"/>
	<g opacity="0.200000">
		<path id="path" d="M54.4938 22.8201C34.2576 22.8201 17.8535 19.3542 17.8535 15.0793C17.8535 10.8044 34.2577 7.33643 54.4938 7.33643C74.73 7.33643 91.1341 10.8022 91.1341 15.0793C91.1341 19.3567 74.73 22.8201 54.4938 22.8201Z" stroke="#FFC75E" stroke-opacity="1.000000" stroke-width="1.000000" stroke-linejoin="round"/>
	</g>
	<g opacity="0.200000">
		<path id="ellipse" d="M91.1341 106.651C91.1341 110.927 74.7296 114.393 54.4938 114.393C34.258 114.393 17.8535 110.927 17.8535 106.651C17.8535 102.376 34.258 98.9097 54.4938 98.9097C74.7296 98.9097 91.1341 102.376 91.1341 106.651Z" stroke="#FFED5E" stroke-opacity="1.000000" stroke-width="1.000000" stroke-linejoin="round"/>
	</g>
	<path id="path" d="M73.1357 9.03394C73.1357 11.2053 64.8103 12.9619 54.5367 12.9619C44.2632 12.9619 35.9378 11.2031 35.9378 9.03394C35.9378 6.86475 44.2668 5.10352 54.5367 5.10352C64.8103 5.10352 73.1357 6.86255 73.1357 9.03394Z" fill="url(#paint_linear_85_293_0)" fill-opacity="1.000000" fill-rule="evenodd"/>
	<path id="path" d="M54.5367 12.9619C44.2632 12.9619 35.9378 11.2031 35.9378 9.03394C35.9378 6.86475 44.2668 5.10352 54.5367 5.10352C64.8103 5.10352 73.1357 6.86255 73.1357 9.03394C73.1357 11.2053 64.8103 12.9619 54.5367 12.9619Z" stroke="#483310" stroke-opacity="1.000000" stroke-width="2.000000" stroke-linejoin="round"/>
	<path id="path" d="M72.3778 4.69775C72.3778 2.61011 64.3742 0.916992 54.5045 0.916992C44.6349 0.916992 36.6312 2.61011 36.6312 4.69775C36.6312 4.70923 36.6348 4.72046 36.6348 4.73413C36.6348 4.7478 36.6312 4.75903 36.6312 4.77026C36.6312 4.78174 36.6348 4.79517 36.6348 4.80884C36.6348 4.82251 36.6312 4.83154 36.6312 4.84521C36.6312 4.85889 36.6348 4.87012 36.6348 4.88135C36.6348 4.89282 36.6312 4.90649 36.6312 4.91992C36.6312 4.93359 36.6348 4.94263 36.6348 4.9563C36.6348 4.96997 36.6312 4.9812 36.6312 4.99243C36.6312 5.00391 36.6348 5.01758 36.6348 5.02881C36.6348 5.04004 36.6312 5.05371 36.6312 5.06738C36.6312 5.08105 36.6348 5.09229 36.6348 5.10352C36.6348 5.11499 36.6312 5.12866 36.6312 5.13989C36.6312 5.15137 36.6348 5.16479 36.6348 5.17847C36.6348 5.19214 36.6312 5.20337 36.6312 5.21484C36.6312 5.22607 36.6348 5.23975 36.6348 5.25098C36.6348 5.26245 36.6312 5.27588 36.6312 5.28955C36.6312 5.30322 36.6348 5.31445 36.6348 5.32593C36.6348 5.33716 36.6312 5.35083 36.6312 5.36206C36.6312 5.37354 36.6348 5.38696 36.6348 5.40063C36.6348 5.41431 36.6312 5.42554 36.6312 5.43701C36.6312 5.44824 36.6348 5.46191 36.6348 5.47314C36.6348 5.48462 36.6312 5.49805 36.6312 5.51172C36.6312 5.52539 36.6348 5.53662 36.6348 5.5481C36.6348 5.55933 36.6312 5.573 36.6312 5.58423C36.6312 5.5957 36.6348 5.60913 36.6348 5.6228C36.6348 5.63647 36.6312 5.64551 36.6312 5.65918C36.6312 5.67261 36.6348 5.68408 36.6348 5.69531C36.6348 5.70679 36.6312 5.72021 36.6312 5.73389C36.6312 5.74756 36.6348 5.75659 36.6348 5.77026C36.6348 5.78369 36.6312 5.79517 36.6312 5.8064C36.6312 5.81787 36.6348 5.8313 36.6348 5.84497C36.6348 5.85864 36.6312 5.86768 36.6312 5.88135C36.6312 5.89478 36.6348 5.90625 36.6348 5.91748C36.6348 5.92896 36.6312 5.94238 36.6312 5.95605C36.6312 5.96973 36.6348 5.97876 36.6348 5.99243C36.6348 6.00586 36.6312 6.01733 36.6312 6.02856C36.6312 6.04004 36.6348 6.05347 36.6348 6.06494C36.6348 6.07617 36.6312 6.08984 36.6312 6.10352C36.6312 6.11719 36.6348 6.12842 36.6348 6.13965C36.6348 6.15112 36.6312 6.16455 36.6312 6.17603C36.6312 6.18726 36.6348 6.20093 36.6348 6.2146C36.6348 6.22827 36.6312 6.2395 36.6312 6.25073C36.6312 6.26221 36.6348 6.27563 36.6348 6.28711C36.6348 6.29834 36.6312 6.31201 36.6312 6.32568C36.6312 6.33936 36.6348 6.35059 36.6348 6.36182C36.6348 6.37329 36.6312 6.38696 36.6312 6.39819C36.6312 6.40942 36.6348 6.4231 36.6348 6.43677C36.6348 6.45044 36.6312 6.46167 36.6312 6.4729C36.6312 6.48438 36.6348 6.49805 36.6348 6.50928C36.6348 6.52051 36.6312 6.53418 36.6312 6.54785C36.6312 6.56152 36.6348 6.57275 36.6348 6.58398C36.6348 6.59546 36.6312 6.60913 36.6312 6.62036C36.6312 6.63184 36.6348 6.64526 36.6348 6.65894C36.6348 6.67261 36.6312 6.68164 36.6312 6.69531C36.6312 6.70874 36.6348 6.72021 36.6348 6.73145C36.6348 6.74292 36.6312 6.75635 36.6312 6.77002C36.6312 6.78369 36.6348 6.79272 36.6348 6.8064C36.6348 6.81982 36.6312 6.8313 36.6312 6.84253C36.6312 6.854 36.6348 6.86743 36.6348 6.8811C36.6348 6.89478 36.6312 6.90381 36.6312 6.91748C36.6312 6.93091 36.6348 6.94238 36.6348 6.95361C36.6348 6.96509 36.6312 6.97852 36.6312 6.99219C36.6312 7.00586 36.6348 7.01489 36.6348 7.02856C36.6348 7.04199 36.6312 7.05347 36.6312 7.0647C36.6312 7.07617 36.6348 7.0896 36.6348 7.10107C36.6348 7.1123 36.6312 7.12598 36.6312 7.13965C36.6312 7.15308 36.6348 7.16455 36.6348 7.17578C36.6348 7.18726 36.6312 7.20068 36.6312 7.21216C36.6312 7.22339 36.6348 7.23706 36.6348 7.25073C36.6348 7.26416 36.6312 7.27563 36.6312 7.28687C36.6312 7.29834 36.6348 7.31177 36.6348 7.32324C36.6348 7.33447 36.6312 7.34814 36.6312 7.36182C36.6312 7.37524 36.6348 7.38672 36.6348 7.39795C36.6348 7.40942 36.6312 7.42285 36.6312 7.43433C36.6312 7.44556 36.6348 7.45923 36.6348 7.4729C36.6348 7.48657 36.6312 7.4978 36.6312 7.50903C36.6312 7.52051 36.6348 7.53394 36.6348 7.54541C36.6348 7.55664 36.6312 7.57031 36.6312 7.58398C36.6312 7.59766 36.6348 7.60889 36.6348 7.62012C36.6348 7.63159 36.6312 7.64502 36.6312 7.65649C36.6312 7.66772 36.6348 7.6814 36.6348 7.69507C36.6348 7.70874 36.6312 7.71777 36.6312 7.7312C36.6312 7.74487 36.6348 7.75635 36.6348 7.76758C36.6348 7.77881 36.6312 7.79248 36.6312 7.80615C36.6312 7.81982 36.6348 7.82886 36.6348 7.84229C36.6348 7.85596 36.6312 7.86743 36.6312 7.87866C36.6312 7.88989 36.6348 7.90356 36.6348 7.91724C36.6348 7.93091 36.6312 7.93994 36.6312 7.95337C36.6312 7.96704 36.6348 7.97852 36.6348 7.98975C36.6348 8.00122 36.6312 8.01465 36.6312 8.02612C36.6312 8.03735 36.6348 8.05103 36.6348 8.0647C36.6348 8.07812 36.6312 8.0896 36.6312 8.10083C36.6312 8.1123 36.6348 8.12573 36.6348 8.13721C36.6348 8.14844 36.6312 8.16211 36.6312 8.17578C36.6312 8.18921 36.6348 8.20068 36.6348 8.21191C36.6348 8.22339 36.6312 8.23682 36.6312 8.24829C36.6312 8.25952 36.6348 8.27319 36.6348 8.28687C36.6348 8.30029 36.6312 8.31177 36.6312 8.323C36.6312 8.33447 36.6348 8.3479 36.6348 8.35938C36.6348 8.37061 36.6312 8.38428 36.6312 8.39795C36.6312 8.41138 36.6348 8.42285 36.6348 8.43408C36.6348 8.44556 36.6312 8.45898 36.6312 8.47046C36.6312 10.5581 44.6349 12.2512 54.5045 12.2512C64.3742 12.2512 72.3778 10.5581 72.3778 8.47046C72.3778 8.45898 72.3743 8.44556 72.3743 8.43408C72.3743 8.42285 72.3778 8.40918 72.3778 8.39795C72.3778 8.38647 72.3743 8.3728 72.3743 8.35938C72.3743 8.3457 72.3778 8.33447 72.3778 8.323C72.3778 8.31177 72.3743 8.2981 72.3743 8.28687C72.3743 8.27539 72.3778 8.26172 72.3778 8.24829C72.3778 8.23462 72.3743 8.22559 72.3743 8.21191C72.3743 8.19824 72.3778 8.18701 72.3778 8.17578C72.3778 8.16431 72.3743 8.15063 72.3743 8.13721C72.3743 8.12354 72.3778 8.1145 72.3778 8.10083C72.3778 8.08716 72.3743 8.07593 72.3743 8.0647C72.3743 8.05322 72.3778 8.03955 72.3778 8.02612C72.3778 8.01245 72.3743 8.00342 72.3743 7.98975C72.3743 7.97607 72.3778 7.96484 72.3778 7.95337C72.3778 7.94214 72.3743 7.92847 72.3743 7.91724C72.3743 7.90576 72.3778 7.89233 72.3778 7.87866C72.3778 7.86499 72.3743 7.85376 72.3743 7.84229C72.3743 7.83105 72.3778 7.81738 72.3778 7.80615C72.3778 7.79468 72.3743 7.78125 72.3743 7.76758C72.3743 7.75391 72.3778 7.74268 72.3778 7.7312C72.3778 7.71997 72.3743 7.7063 72.3743 7.69507C72.3743 7.68359 72.3778 7.67017 72.3778 7.65649C72.3778 7.64282 72.3743 7.63159 72.3743 7.62012C72.3743 7.60889 72.3778 7.59521 72.3778 7.58398C72.3778 7.57251 72.3743 7.55908 72.3743 7.54541C72.3743 7.53174 72.3778 7.52051 72.3778 7.50903C72.3778 7.4978 72.3743 7.48413 72.3743 7.4729C72.3743 7.46143 72.3778 7.448 72.3778 7.43433C72.3778 7.42065 72.3743 7.40942 72.3743 7.39795C72.3743 7.38672 72.3778 7.37305 72.3778 7.36182C72.3778 7.35034 72.3743 7.33691 72.3743 7.32324C72.3743 7.30957 72.3778 7.30054 72.3778 7.28687C72.3778 7.27319 72.3743 7.26196 72.3743 7.25073C72.3743 7.23926 72.3778 7.22583 72.3778 7.21216C72.3778 7.19849 72.3743 7.18945 72.3743 7.17578C72.3743 7.16211 72.3778 7.15088 72.3778 7.13965C72.3778 7.12817 72.3743 7.11475 72.3743 7.10107C72.3743 7.0874 72.3778 7.07837 72.3778 7.0647C72.3778 7.05103 72.3743 7.03979 72.3743 7.02856C72.3743 7.01709 72.3778 7.00342 72.3778 6.99219C72.3778 6.98096 72.3743 6.96729 72.3743 6.95361C72.3743 6.93994 72.3778 6.92871 72.3778 6.91748C72.3778 6.90601 72.3743 6.89233 72.3743 6.8811C72.3743 6.86987 72.3778 6.8562 72.3778 6.84253C72.3778 6.82886 72.3743 6.81763 72.3743 6.8064C72.3743 6.79492 72.3778 6.78125 72.3778 6.77002C72.3778 6.75879 72.3743 6.74512 72.3743 6.73145C72.3743 6.71777 72.3778 6.70654 72.3778 6.69531C72.3778 6.68384 72.3743 6.67017 72.3743 6.65894C72.3743 6.64746 72.3778 6.63403 72.3778 6.62036C72.3778 6.60669 72.3743 6.59546 72.3743 6.58398C72.3743 6.57275 72.3778 6.55908 72.3778 6.54785C72.3778 6.53638 72.3743 6.52295 72.3743 6.50928C72.3743 6.49561 72.3778 6.48657 72.3778 6.4729C72.3778 6.45947 72.3743 6.448 72.3743 6.43677C72.3743 6.42529 72.3778 6.41187 72.3778 6.39819C72.3778 6.38452 72.3743 6.37549 72.3743 6.36182C72.3743 6.34839 72.3778 6.33691 72.3778 6.32568C72.3778 6.31421 72.3743 6.30078 72.3743 6.28711C72.3743 6.27344 72.3778 6.2644 72.3778 6.25073C72.3778 6.2373 72.3743 6.22583 72.3743 6.2146C72.3743 6.20312 72.3778 6.1897 72.3778 6.17603C72.3778 6.16235 72.3743 6.15332 72.3743 6.13965C72.3743 6.12622 72.3778 6.11475 72.3778 6.10352C72.3778 6.09204 72.3743 6.07861 72.3743 6.06494C72.3743 6.05127 72.3778 6.04224 72.3778 6.02856C72.3778 6.01514 72.3743 6.00366 72.3743 5.99243C72.3743 5.98096 72.3778 5.96753 72.3778 5.95605C72.3778 5.94482 72.3743 5.93115 72.3743 5.91748C72.3743 5.90405 72.3778 5.89258 72.3778 5.88135C72.3778 5.86987 72.3743 5.85645 72.3743 5.84497C72.3743 5.83374 72.3778 5.82007 72.3778 5.8064C72.3778 5.79297 72.3743 5.78149 72.3743 5.77026C72.3743 5.75879 72.3778 5.74536 72.3778 5.73389C72.3778 5.72266 72.3743 5.70898 72.3743 5.69531C72.3743 5.68164 72.3778 5.67041 72.3778 5.65918C72.3778 5.64771 72.3743 5.63428 72.3743 5.6228C72.3743 5.61157 72.3778 5.5979 72.3778 5.58423C72.3778 5.57056 72.3743 5.55933 72.3743 5.5481C72.3743 5.53662 72.3778 5.52295 72.3778 5.51172C72.3778 5.50049 72.3743 5.48682 72.3743 5.47314C72.3743 5.45947 72.3778 5.45044 72.3778 5.43701C72.3778 5.42334 72.3743 5.41187 72.3743 5.40063C72.3743 5.38916 72.3778 5.37573 72.3778 5.36206C72.3778 5.34839 72.3743 5.33936 72.3743 5.32593C72.3743 5.31226 72.3778 5.30078 72.3778 5.28955C72.3778 5.27808 72.3743 5.26465 72.3743 5.25098C72.3743 5.2373 72.3778 5.22827 72.3778 5.21484C72.3778 5.20117 72.3743 5.1897 72.3743 5.17847C72.3743 5.16699 72.3778 5.15356 72.3778 5.13989C72.3778 5.12622 72.3743 5.11719 72.3743 5.10352C72.3743 5.09009 72.3778 5.07861 72.3778 5.06738C72.3778 5.05591 72.3743 5.04248 72.3743 5.02881C72.3743 5.01514 72.3778 5.0061 72.3778 4.99243C72.3778 4.979 72.3743 4.96753 72.3743 4.9563C72.3743 4.94482 72.3778 4.9314 72.3778 4.91992C72.3778 4.90869 72.3743 4.89502 72.3743 4.88135C72.3743 4.86792 72.3778 4.85645 72.3778 4.84521C72.3778 4.83374 72.3743 4.82031 72.3743 4.80884C72.3743 4.79761 72.3778 4.78394 72.3778 4.77026C72.3778 4.75684 72.3743 4.74536 72.3743 4.73413C72.3743 4.72046 72.3778 4.70923 72.3778 4.69775Z" fill="url(#paint_linear_85_294_0)" fill-opacity="1.000000" fill-rule="evenodd"/>
	<path id="path" d="M72.385 4.27173C72.385 6.35474 64.392 8.04346 54.5367 8.04346C44.6815 8.04346 36.6885 6.35474 36.6885 4.27173C36.6885 2.18872 44.6778 0.5 54.5367 0.5C64.3921 0.5 72.385 2.18872 72.385 4.27173Z" fill="url(#paint_linear_85_298_0)" fill-opacity="1.000000" fill-rule="evenodd"/>
	<path id="path" d="M54.5367 8.04346C44.6815 8.04346 36.6885 6.35474 36.6885 4.27173C36.6885 2.18872 44.6778 0.5 54.5367 0.5C64.3921 0.5 72.385 2.18872 72.385 4.27173C72.385 6.35474 64.392 8.04346 54.5367 8.04346Z" stroke="#FFC75E" stroke-opacity="1.000000" stroke-width="1.000000" stroke-linejoin="round"/>
	<g opacity="0.200000">
		<path id=" 27" d="M54.7147 97.5C69.1591 97.5349 81.39 99.521 85.8074 102.272C78.022 101.205 67.0018 102.002 52.068 105.973C43.4741 108.257 35.8955 109.112 29.816 109.296C24.3917 108.043 21.0813 106.374 21.0813 104.54C21.0813 101.375 30.9443 98.6973 44.5167 97.811C47.7664 97.6167 51.1849 97.5088 54.7147 97.5Z" fill="url(#paint_linear_85_299_0)" fill-opacity="1.000000" fill-rule="evenodd"/>
	</g>
	<path id="ellipse" d="M99.0091 117.992C99.0091 123.87 79.0837 128.635 54.5045 128.635C29.9254 128.635 10 123.87 10 117.992" stroke="url(#paint_linear_85_300_0)" stroke-opacity="0.807843" stroke-width="1.000000" stroke-linejoin="round"/>
	<path id="ellipse" d="M99.0091 122.752C99.0091 128.63 79.0837 133.396 54.5045 133.396C29.9254 133.396 10 128.63 10 122.752" stroke="url(#paint_linear_85_301_0)" stroke-opacity="0.807843" stroke-width="1.000000" stroke-linejoin="round"/>
</svg>
