<svg width="109.009064" height="146.558960" viewBox="0 0 109.009 146.559" fill="none" xmlns="http://www.w3.org/2000/svg" xmlns:xlink="http://www.w3.org/1999/xlink">
	<desc>
			Created with Pixso.
	</desc>
	<defs>
		<filter id="filter_85_333_dd" x="0.000000" y="105.272705" width="109.009064" height="41.286255" filterUnits="userSpaceOnUse" color-interpolation-filters="sRGB">
			<feFlood flood-opacity="0" result="BackgroundImageFix"/>
			<feBlend mode="normal" in="SourceGraphic" in2="BackgroundImageFix" result="shape"/>
			<feGaussianBlur stdDeviation="3.33334" result="effect_layerBlur_1"/>
		</filter>
		<linearGradient id="paint_linear_85_334_0" x1="10.178614" y1="133.516632" x2="99.187683" y2="133.516632" gradientUnits="userSpaceOnUse">
			<stop offset="0.007634" stop-color="#003467"/>
			<stop offset="0.518000" stop-color="#97AFFF"/>
			<stop offset="1.000000" stop-color="#003467"/>
		</linearGradient>
		<linearGradient id="paint_linear_85_335_0" x1="99.009117" y1="128.695724" x2="99.009117" y2="107.409424" gradientUnits="userSpaceOnUse">
			<stop stop-color="#7490EA"/>
			<stop offset="1.000000" stop-color="#0A0238"/>
		</linearGradient>
		<linearGradient id="paint_linear_85_335_1" x1="99.009117" y1="128.695724" x2="99.009117" y2="107.409424" gradientUnits="userSpaceOnUse">
			<stop stop-color="#003AFF" stop-opacity="0.807843"/>
			<stop offset="1.000000" stop-color="#023338"/>
		</linearGradient>
		<linearGradient id="paint_linear_85_336_0" x1="17.685452" y1="22.673592" x2="90.966034" y2="22.673592" gradientUnits="userSpaceOnUse">
			<stop stop-color="#003467"/>
			<stop offset="0.518000" stop-color="#97AFFF"/>
			<stop offset="1.000000" stop-color="#003467"/>
		</linearGradient>
		<linearGradient id="paint_linear_85_337_0" x1="1088.832886" y1="455.265594" x2="1088.832886" y2="447.382080" gradientUnits="userSpaceOnUse">
			<stop stop-color="#B7C8FF"/>
			<stop offset="0.002000" stop-color="#25F1FF"/>
			<stop offset="1.000000" stop-color="#000000" stop-opacity="0.000000"/>
		</linearGradient>
		<linearGradient id="paint_linear_85_338_0" x1="90.964561" y1="122.405930" x2="90.964561" y2="102.685928" gradientUnits="userSpaceOnUse">
			<stop stop-color="#7490EA"/>
			<stop offset="1.000000" stop-color="#001F67"/>
		</linearGradient>
		<radialGradient id="paint_radial_85_346_0" cx="0.000000" cy="0.000000" r="1.000000" gradientUnits="userSpaceOnUse" gradientTransform="translate(13.8255 15.6588) rotate(87.7777) scale(96.0858 9.81796)">
			<stop stop-color="#B7C8FF"/>
			<stop offset="1.000000" stop-color="#0A1123" stop-opacity="0.000000"/>
		</radialGradient>
		<radialGradient id="paint_radial_85_347_0" cx="0.000000" cy="0.000000" r="1.000000" gradientUnits="userSpaceOnUse" gradientTransform="translate(78.8132 15.6799) rotate(87.8549) scale(96.0616 9.47547)">
			<stop stop-color="#B7C8FF"/>
			<stop offset="1.000000" stop-color="#0A1123" stop-opacity="0.000000"/>
		</radialGradient>
		<linearGradient id="paint_linear_85_348_0" x1="91.211266" y1="18.518898" x2="91.211266" y2="3.031399" gradientUnits="userSpaceOnUse">
			<stop stop-color="#7490EA"/>
			<stop offset="1.000000" stop-color="#001F67"/>
		</linearGradient>
		<linearGradient id="paint_linear_85_349_0" x1="91.211266" y1="18.518898" x2="91.211266" y2="3.031399" gradientUnits="userSpaceOnUse">
			<stop stop-color="#7490EA"/>
			<stop offset="1.000000" stop-color="#001F67"/>
		</linearGradient>
		<linearGradient id="paint_linear_85_352_0" x1="73.134972" y1="12.962582" x2="73.134972" y2="5.104397" gradientUnits="userSpaceOnUse">
			<stop stop-color="#7490EA"/>
			<stop offset="1.000000" stop-color="#001F67"/>
		</linearGradient>
		<linearGradient id="paint_linear_85_353_0" x1="36.631226" y1="12.252975" x2="72.377838" y2="12.252975" gradientUnits="userSpaceOnUse">
			<stop stop-color="#172972"/>
			<stop offset="0.502000" stop-color="#97AFFF"/>
			<stop offset="1.000000" stop-color="#172972"/>
		</linearGradient>
		<filter id="filter_85_354_dd" x="45.507080" y="86.500000" width="19.000031" height="19.000000" filterUnits="userSpaceOnUse" color-interpolation-filters="sRGB">
			<feFlood flood-opacity="0" result="BackgroundImageFix"/>
			<feColorMatrix in="SourceAlpha" type="matrix" values="0 0 0 0 0 0 0 0 0 0 0 0 0 0 0 0 0 0 127 0" result="hardAlpha"/>
			<feOffset dx="0" dy="0"/>
			<feGaussianBlur stdDeviation="2.33333"/>
			<feComposite in2="hardAlpha" operator="out" k2="-1" k3="1"/>
			<feColorMatrix type="matrix" values="0 0 0 0 0.55294 0 0 0 0 0.34118 0 0 0 0 1 0 0 0 1 0"/>
			<feBlend mode="normal" in2="BackgroundImageFix" result="effect_dropShadow_1"/>
			<feBlend mode="normal" in="SourceGraphic" in2="effect_dropShadow_1" result="shape"/>
		</filter>
		<filter id="filter_85_355_dd" x="39.040771" y="92.942505" width="18.000000" height="18.000000" filterUnits="userSpaceOnUse" color-interpolation-filters="sRGB">
			<feFlood flood-opacity="0" result="BackgroundImageFix"/>
			<feColorMatrix in="SourceAlpha" type="matrix" values="0 0 0 0 0 0 0 0 0 0 0 0 0 0 0 0 0 0 127 0" result="hardAlpha"/>
			<feOffset dx="0" dy="0"/>
			<feGaussianBlur stdDeviation="2.33333"/>
			<feComposite in2="hardAlpha" operator="out" k2="-1" k3="1"/>
			<feColorMatrix type="matrix" values="0 0 0 0 0.55294 0 0 0 0 0.34118 0 0 0 0 1 0 0 0 1 0"/>
			<feBlend mode="normal" in2="BackgroundImageFix" result="effect_dropShadow_1"/>
			<feBlend mode="normal" in="SourceGraphic" in2="effect_dropShadow_1" result="shape"/>
		</filter>
		<filter id="filter_85_356_dd" x="49.518066" y="102.908936" width="18.000000" height="18.000000" filterUnits="userSpaceOnUse" color-interpolation-filters="sRGB">
			<feFlood flood-opacity="0" result="BackgroundImageFix"/>
			<feColorMatrix in="SourceAlpha" type="matrix" values="0 0 0 0 0 0 0 0 0 0 0 0 0 0 0 0 0 0 127 0" result="hardAlpha"/>
			<feOffset dx="0" dy="0"/>
			<feGaussianBlur stdDeviation="2.33333"/>
			<feComposite in2="hardAlpha" operator="out" k2="-1" k3="1"/>
			<feColorMatrix type="matrix" values="0 0 0 0 0.55294 0 0 0 0 0.34118 0 0 0 0 1 0 0 0 1 0"/>
			<feBlend mode="normal" in2="BackgroundImageFix" result="effect_dropShadow_1"/>
			<feBlend mode="normal" in="SourceGraphic" in2="effect_dropShadow_1" result="shape"/>
		</filter>
		<linearGradient id="paint_linear_85_357_0" x1="72.384277" y1="8.044002" x2="72.384277" y2="0.500845" gradientUnits="userSpaceOnUse">
			<stop stop-color="#7490EA"/>
			<stop offset="1.000000" stop-color="#001F67"/>
		</linearGradient>
		<linearGradient id="paint_linear_85_358_0" x1="72.384277" y1="8.044002" x2="72.384277" y2="0.500845" gradientUnits="userSpaceOnUse">
			<stop stop-color="#7490EA"/>
			<stop offset="1.000000" stop-color="#001F67"/>
		</linearGradient>
		<linearGradient id="paint_linear_85_358_1" x1="72.385117" y1="8.043526" x2="72.385117" y2="0.500000" gradientUnits="userSpaceOnUse">
			<stop stop-color="#B3C4FF"/>
			<stop offset="0.976848" stop-color="#1A3D7A"/>
		</linearGradient>
		<linearGradient id="paint_linear_85_360_0" x1="99.009117" y1="128.635696" x2="99.009117" y2="117.992546" gradientUnits="userSpaceOnUse">
			<stop offset="0.017137" stop-color="#B7C8FF"/>
			<stop offset="0.977099" stop-color="#023338" stop-opacity="0.000000"/>
		</linearGradient>
		<linearGradient id="paint_linear_85_361_0" x1="99.009117" y1="133.395706" x2="99.009117" y2="122.752556" gradientUnits="userSpaceOnUse">
			<stop offset="0.017137" stop-color="#B7C8FF"/>
			<stop offset="0.977099" stop-color="#023338" stop-opacity="0.000000"/>
		</linearGradient>
	</defs>
	<g filter="url(#filter_85_333_dd)">
		<path id="ellipse" d="M54.5045 115.273C79.0837 115.273 99.0091 120.038 99.0091 125.916C99.0091 131.794 79.0837 136.559 54.5045 136.559C29.9254 136.559 10 131.794 10 125.916C10 120.038 29.9254 115.273 54.5045 115.273Z" fill="#003467" fill-opacity="1.000000" fill-rule="evenodd"/>
	</g>
	<path id="path" d="M99.1877 122.803C99.1877 122.784 99.1841 122.769 99.1841 122.75C99.1841 122.737 99.1877 122.723 99.1877 122.707C99.1877 122.692 99.1841 122.673 99.1841 122.655C99.1841 122.642 99.1877 122.628 99.1877 122.615C99.1877 122.596 99.1841 122.578 99.1841 122.56L99.1841 122.424C99.1841 122.406 99.1806 122.388 99.1806 122.372C99.1806 122.356 99.1841 122.343 99.1841 122.329C99.1841 122.311 99.1806 122.295 99.1806 122.277C99.1806 122.263 99.1841 122.25 99.1841 122.234C99.1841 122.218 99.1806 122.2 99.1806 122.182C99.1806 122.168 99.1841 122.154 99.1841 122.141C99.1841 122.123 99.1806 122.104 99.1806 122.086C99.1806 122.073 99.1841 122.059 99.1841 122.046C99.1841 122.027 99.1806 122.009 99.1806 121.991L99.1806 121.855C99.1811 121.838 99.1799 121.82 99.1769 121.803C99.1769 121.789 99.1806 121.776 99.1806 121.76C99.1806 121.744 99.1769 121.726 99.1769 121.708C99.1769 121.694 99.1806 121.681 99.1806 121.667C99.1806 121.649 99.1769 121.631 99.1769 121.613C99.1769 121.599 99.1806 121.585 99.1806 121.572C99.1806 121.554 99.1769 121.536 99.1769 121.52C99.1769 121.504 99.1806 121.49 99.1806 121.477C99.1806 121.458 99.1769 121.44 99.1769 121.425L99.1769 121.289C99.1769 121.27 99.1733 121.252 99.1733 121.234C99.1733 121.221 99.1769 121.207 99.1769 121.193C99.1769 121.175 99.1733 121.157 99.1733 121.139C99.1733 121.125 99.1769 121.112 99.1769 121.098C99.1769 121.08 99.1733 121.062 99.1733 121.046C99.1733 121.03 99.1769 121.017 99.1769 121.003C99.1769 120.985 99.1733 120.969 99.1733 120.951C99.1733 120.937 99.1769 120.924 99.1769 120.908C99.1769 120.892 99.1733 120.874 99.1733 120.856L99.1733 120.72C99.1733 120.702 99.1698 120.683 99.1698 120.665C99.1698 120.652 99.1733 120.638 99.1733 120.625C99.1733 120.606 99.1698 120.588 99.1698 120.572C99.1698 120.557 99.1733 120.543 99.1733 120.529C99.1733 120.511 99.1698 120.495 99.1698 120.477C99.1698 120.464 99.1733 120.45 99.1733 120.434C99.1733 120.418 99.1698 120.4 99.1698 120.382C99.1698 120.368 99.1733 120.355 99.1733 120.341C99.1733 120.323 99.1698 120.305 99.1698 120.287L99.1698 120.151C99.1704 120.133 99.1693 120.116 99.1662 120.099C99.1662 120.083 99.1698 120.069 99.1698 120.056C99.1698 120.037 99.1662 120.022 99.1662 120.003C99.1662 119.99 99.1698 119.976 99.1698 119.96C99.1698 119.945 99.1662 119.926 99.1662 119.908C99.1662 119.895 99.1698 119.881 99.1698 119.868C99.1698 119.849 99.1662 119.831 99.1662 119.813C99.1662 119.799 99.1698 119.786 99.1698 119.772C99.1698 119.754 99.1662 119.736 99.1662 119.72L99.1662 119.582C99.1662 119.564 99.1627 119.548 99.1627 119.53C99.1627 119.516 99.1662 119.503 99.1662 119.487C99.1662 119.471 99.1627 119.453 99.1627 119.435C99.1627 119.421 99.1662 119.407 99.1662 119.394C99.1662 119.376 99.1627 119.358 99.1627 119.339C99.1627 119.326 99.1662 119.312 99.1662 119.299C99.1662 119.281 99.1627 119.262 99.1627 119.244C99.1627 119.231 99.1662 119.217 99.1662 119.203C99.1662 119.185 99.1627 119.169 99.1627 119.151L99.1627 119.015C99.1627 118.997 99.159 118.979 99.159 118.961C99.159 118.947 99.1627 118.934 99.1627 118.92C99.1627 118.902 99.159 118.884 99.159 118.866C99.159 118.852 99.1627 118.839 99.1627 118.825C99.1627 118.807 99.159 118.789 99.159 118.773C99.159 118.757 99.1627 118.743 99.1627 118.73C99.1627 118.712 99.159 118.696 99.159 118.678C99.159 118.664 99.1627 118.65 99.1627 118.635C99.1627 118.619 99.159 118.601 99.159 118.582L99.159 118.446C99.1596 118.428 99.1585 118.41 99.1555 118.392C99.1555 118.378 99.159 118.365 99.159 118.351C99.159 118.333 99.1555 118.315 99.1555 118.299C99.1555 118.283 99.159 118.27 99.159 118.256C99.159 118.238 99.1555 118.222 99.1555 118.204C99.1555 118.19 99.159 118.177 99.159 118.161C99.159 118.145 99.1555 118.127 99.1555 118.109C99.1555 118.095 99.159 118.082 99.159 118.068C99.159 112.202 79.2374 107.449 54.6689 107.449C30.1002 107.449 10.1786 112.201 10.1786 118.068C10.1782 118.085 10.1793 118.102 10.1822 118.12C10.1822 118.133 10.1786 118.147 10.1786 118.16C10.1786 118.179 10.1822 118.197 10.1822 118.215C10.1822 118.228 10.1786 118.242 10.1786 118.256C10.1786 118.274 10.1822 118.292 10.1822 118.31C10.1822 118.324 10.1786 118.337 10.1786 118.351C10.1786 118.369 10.1822 118.387 10.1822 118.403C10.1822 118.419 10.1786 118.432 10.1786 118.446C10.1786 118.464 10.1822 118.48 10.1822 118.498L10.1822 118.634C10.1816 118.652 10.1828 118.67 10.1857 118.688C10.1857 118.702 10.1822 118.716 10.1822 118.729C10.1822 118.747 10.1857 118.766 10.1857 118.781C10.1857 118.797 10.1822 118.811 10.1822 118.824C10.1822 118.843 10.1857 118.859 10.1857 118.877C10.1857 118.89 10.1822 118.906 10.1822 118.92C10.1822 118.938 10.1857 118.954 10.1857 118.972C10.1857 118.985 10.1822 118.999 10.1822 119.015C10.1822 119.031 10.1857 119.049 10.1857 119.067L10.1857 119.203C10.1852 119.221 10.1864 119.239 10.1894 119.257C10.1894 119.271 10.1857 119.285 10.1857 119.298C10.1857 119.316 10.1894 119.332 10.1894 119.35C10.1894 119.364 10.1857 119.38 10.1857 119.393C10.1857 119.411 10.1894 119.427 10.1894 119.446C10.1894 119.459 10.1857 119.473 10.1857 119.486C10.1857 119.504 10.1894 119.523 10.1894 119.541C10.1894 119.554 10.1857 119.568 10.1857 119.581C10.1857 119.6 10.1894 119.618 10.1894 119.636L10.1894 119.772C10.1888 119.789 10.19 119.807 10.1929 119.824C10.1929 119.838 10.1894 119.851 10.1894 119.867C10.1894 119.883 10.1929 119.901 10.1929 119.919C10.1929 119.933 10.1894 119.946 10.1894 119.96C10.1894 119.978 10.1929 119.996 10.1929 120.014C10.1929 120.028 10.1894 120.042 10.1894 120.055C10.1894 120.073 10.1929 120.091 10.1929 120.11C10.1929 120.123 10.1894 120.137 10.1894 120.15C10.1894 120.168 10.1929 120.187 10.1929 120.203L10.1929 120.341C10.1923 120.358 10.1936 120.376 10.1965 120.393C10.1965 120.406 10.1929 120.42 10.1929 120.434C10.1929 120.452 10.1965 120.47 10.1965 120.488C10.1965 120.502 10.1929 120.515 10.1929 120.529C10.1929 120.547 10.1965 120.565 10.1965 120.583C10.1965 120.597 10.1929 120.61 10.1929 120.624C10.1929 120.642 10.1965 120.66 10.1965 120.676C10.1965 120.692 10.1929 120.706 10.1929 120.719C10.1929 120.737 10.1965 120.753 10.1965 120.771L10.1965 120.907C10.196 120.926 10.1971 120.944 10.2001 120.962C10.2001 120.975 10.1965 120.989 10.1965 121.003C10.1965 121.021 10.2001 121.039 10.2001 121.055C10.2001 121.071 10.1965 121.084 10.1965 121.098C10.1965 121.116 10.2001 121.134 10.2001 121.15C10.2001 121.166 10.1965 121.179 10.1965 121.193C10.1965 121.211 10.2001 121.227 10.2001 121.245C10.2001 121.259 10.1965 121.272 10.1965 121.288C10.1965 121.304 10.2001 121.322 10.2001 121.34L10.2001 121.476C10.1993 121.494 10.2006 121.511 10.2036 121.528C10.2036 121.544 10.2001 121.558 10.2001 121.571C10.2001 121.59 10.2036 121.605 10.2036 121.624C10.2036 121.637 10.2001 121.653 10.2001 121.667C10.2001 121.685 10.2036 121.701 10.2036 121.719C10.2036 121.732 10.2001 121.746 10.2001 121.76C10.2001 121.778 10.2036 121.796 10.2036 121.814C10.2036 121.828 10.2001 121.841 10.2001 121.855C10.2001 121.873 10.2036 121.891 10.2036 121.909L10.2036 122.045C10.203 122.062 10.2043 122.08 10.2073 122.097C10.2073 122.111 10.2036 122.125 10.2036 122.14C10.2036 122.156 10.2073 122.174 10.2073 122.193C10.2073 122.206 10.2036 122.22 10.2036 122.233C10.2036 122.251 10.2073 122.27 10.2073 122.288C10.2073 122.301 10.2036 122.315 10.2036 122.328C10.2036 122.347 10.2073 122.365 10.2073 122.383C10.2073 122.396 10.2036 122.41 10.2036 122.424C10.2036 122.442 10.2073 122.46 10.2073 122.476L10.2073 122.614C10.2068 122.631 10.2079 122.649 10.2108 122.666C10.2108 122.68 10.2073 122.693 10.2073 122.707C10.2073 122.725 10.2108 122.743 10.2108 122.761C10.2108 122.775 10.2073 122.789 10.2073 122.802C10.2073 122.82 10.2108 122.838 10.2108 122.857C10.2108 122.87 10.2073 122.884 10.2073 122.897C10.2073 128.761 30.1252 133.517 54.6974 133.517C79.2697 133.517 99.1877 128.762 99.1877 122.898C99.1877 122.88 99.1841 122.861 99.1841 122.846C99.1841 122.83 99.1877 122.816 99.1877 122.803Z" fill="url(#paint_linear_85_334_0)" fill-opacity="1.000000" fill-rule="evenodd"/>
	<path id="path" d="M99.1841 122.75C99.1841 122.737 99.1877 122.723 99.1877 122.707C99.1877 122.692 99.1841 122.673 99.1841 122.655C99.1841 122.642 99.1877 122.628 99.1877 122.615C99.1877 122.596 99.1841 122.578 99.1841 122.56L99.1841 122.424C99.1841 122.406 99.1806 122.388 99.1806 122.372C99.1806 122.356 99.1841 122.343 99.1841 122.329C99.1841 122.311 99.1806 122.295 99.1806 122.277C99.1806 122.263 99.1841 122.25 99.1841 122.234C99.1841 122.218 99.1806 122.2 99.1806 122.182C99.1806 122.168 99.1841 122.154 99.1841 122.141C99.1841 122.123 99.1806 122.104 99.1806 122.086C99.1806 122.073 99.1841 122.059 99.1841 122.046C99.1841 122.027 99.1806 122.009 99.1806 121.991L99.1806 121.855C99.1811 121.838 99.1799 121.82 99.1769 121.803C99.1769 121.789 99.1806 121.776 99.1806 121.76C99.1806 121.744 99.1769 121.726 99.1769 121.708C99.1769 121.694 99.1806 121.681 99.1806 121.667C99.1806 121.649 99.1769 121.631 99.1769 121.613C99.1769 121.599 99.1806 121.585 99.1806 121.572C99.1806 121.554 99.1769 121.536 99.1769 121.52C99.1769 121.504 99.1806 121.49 99.1806 121.477C99.1806 121.458 99.1769 121.44 99.1769 121.425L99.1769 121.289C99.1769 121.27 99.1733 121.252 99.1733 121.234C99.1733 121.221 99.1769 121.207 99.1769 121.193C99.1769 121.175 99.1733 121.157 99.1733 121.139C99.1733 121.125 99.1769 121.112 99.1769 121.098C99.1769 121.08 99.1733 121.062 99.1733 121.046C99.1733 121.03 99.1769 121.017 99.1769 121.003C99.1769 120.985 99.1733 120.969 99.1733 120.951C99.1733 120.937 99.1769 120.924 99.1769 120.908C99.1769 120.892 99.1733 120.874 99.1733 120.856L99.1733 120.72C99.1733 120.702 99.1698 120.683 99.1698 120.665C99.1698 120.652 99.1733 120.638 99.1733 120.625C99.1733 120.606 99.1698 120.588 99.1698 120.572C99.1698 120.557 99.1733 120.543 99.1733 120.529C99.1733 120.511 99.1698 120.495 99.1698 120.477C99.1698 120.464 99.1733 120.45 99.1733 120.434C99.1733 120.418 99.1698 120.4 99.1698 120.382C99.1698 120.368 99.1733 120.355 99.1733 120.341C99.1733 120.323 99.1698 120.305 99.1698 120.287L99.1698 120.151C99.1704 120.133 99.1693 120.116 99.1662 120.099C99.1662 120.083 99.1698 120.069 99.1698 120.056C99.1698 120.037 99.1662 120.022 99.1662 120.003C99.1662 119.99 99.1698 119.976 99.1698 119.96C99.1698 119.945 99.1662 119.926 99.1662 119.908C99.1662 119.895 99.1698 119.881 99.1698 119.868C99.1698 119.849 99.1662 119.831 99.1662 119.813C99.1662 119.799 99.1698 119.786 99.1698 119.772C99.1698 119.754 99.1662 119.736 99.1662 119.72L99.1662 119.582C99.1662 119.564 99.1627 119.548 99.1627 119.53C99.1627 119.516 99.1662 119.503 99.1662 119.487C99.1662 119.471 99.1627 119.453 99.1627 119.435C99.1627 119.421 99.1662 119.407 99.1662 119.394C99.1662 119.376 99.1627 119.358 99.1627 119.339C99.1627 119.326 99.1662 119.312 99.1662 119.299C99.1662 119.281 99.1627 119.262 99.1627 119.244C99.1627 119.231 99.1662 119.217 99.1662 119.203C99.1662 119.185 99.1627 119.169 99.1627 119.151L99.1627 119.015C99.1627 118.997 99.159 118.979 99.159 118.961C99.159 118.947 99.1627 118.934 99.1627 118.92C99.1627 118.902 99.159 118.884 99.159 118.866C99.159 118.852 99.1627 118.839 99.1627 118.825C99.1627 118.807 99.159 118.789 99.159 118.773C99.159 118.757 99.1627 118.743 99.1627 118.73C99.1627 118.712 99.159 118.696 99.159 118.678C99.159 118.664 99.1627 118.65 99.1627 118.635C99.1627 118.619 99.159 118.601 99.159 118.582L99.159 118.446C99.1596 118.428 99.1585 118.41 99.1555 118.392C99.1555 118.378 99.159 118.365 99.159 118.351C99.159 118.333 99.1555 118.315 99.1555 118.299C99.1555 118.283 99.159 118.27 99.159 118.256C99.159 118.238 99.1555 118.222 99.1555 118.204C99.1555 118.19 99.159 118.177 99.159 118.161C99.159 118.145 99.1555 118.127 99.1555 118.109C99.1555 118.095 99.159 118.082 99.159 118.068C99.159 112.202 79.2374 107.449 54.6689 107.449C30.1002 107.449 10.1786 112.201 10.1786 118.068C10.1782 118.085 10.1793 118.102 10.1822 118.12C10.1822 118.133 10.1786 118.147 10.1786 118.16C10.1786 118.179 10.1822 118.197 10.1822 118.215C10.1822 118.228 10.1786 118.242 10.1786 118.256C10.1786 118.274 10.1822 118.292 10.1822 118.31C10.1822 118.324 10.1786 118.337 10.1786 118.351C10.1786 118.369 10.1822 118.387 10.1822 118.403C10.1822 118.419 10.1786 118.432 10.1786 118.446C10.1786 118.464 10.1822 118.48 10.1822 118.498L10.1822 118.634C10.1816 118.652 10.1828 118.67 10.1857 118.688C10.1857 118.702 10.1822 118.716 10.1822 118.729C10.1822 118.747 10.1857 118.766 10.1857 118.781C10.1857 118.797 10.1822 118.811 10.1822 118.824C10.1822 118.843 10.1857 118.859 10.1857 118.877C10.1857 118.89 10.1822 118.906 10.1822 118.92C10.1822 118.938 10.1857 118.954 10.1857 118.972C10.1857 118.985 10.1822 118.999 10.1822 119.015C10.1822 119.031 10.1857 119.049 10.1857 119.067L10.1857 119.203C10.1852 119.221 10.1864 119.239 10.1894 119.257C10.1894 119.271 10.1857 119.285 10.1857 119.298C10.1857 119.316 10.1894 119.332 10.1894 119.35C10.1894 119.364 10.1857 119.38 10.1857 119.393C10.1857 119.411 10.1894 119.427 10.1894 119.446C10.1894 119.459 10.1857 119.473 10.1857 119.486C10.1857 119.504 10.1894 119.523 10.1894 119.541C10.1894 119.554 10.1857 119.568 10.1857 119.581C10.1857 119.6 10.1894 119.618 10.1894 119.636L10.1894 119.772C10.1888 119.789 10.19 119.807 10.1929 119.824C10.1929 119.838 10.1894 119.851 10.1894 119.867C10.1894 119.883 10.1929 119.901 10.1929 119.919C10.1929 119.933 10.1894 119.946 10.1894 119.96C10.1894 119.978 10.1929 119.996 10.1929 120.014C10.1929 120.028 10.1894 120.042 10.1894 120.055C10.1894 120.073 10.1929 120.091 10.1929 120.11C10.1929 120.123 10.1894 120.137 10.1894 120.15C10.1894 120.168 10.1929 120.187 10.1929 120.203L10.1929 120.341C10.1923 120.358 10.1936 120.376 10.1965 120.393C10.1965 120.406 10.1929 120.42 10.1929 120.434C10.1929 120.452 10.1965 120.47 10.1965 120.488C10.1965 120.502 10.1929 120.515 10.1929 120.529C10.1929 120.547 10.1965 120.565 10.1965 120.583C10.1965 120.597 10.1929 120.61 10.1929 120.624C10.1929 120.642 10.1965 120.66 10.1965 120.676C10.1965 120.692 10.1929 120.706 10.1929 120.719C10.1929 120.737 10.1965 120.753 10.1965 120.771L10.1965 120.907C10.196 120.926 10.1971 120.944 10.2001 120.962C10.2001 120.975 10.1965 120.989 10.1965 121.003C10.1965 121.021 10.2001 121.039 10.2001 121.055C10.2001 121.071 10.1965 121.084 10.1965 121.098C10.1965 121.116 10.2001 121.134 10.2001 121.15C10.2001 121.166 10.1965 121.179 10.1965 121.193C10.1965 121.211 10.2001 121.227 10.2001 121.245C10.2001 121.259 10.1965 121.272 10.1965 121.288C10.1965 121.304 10.2001 121.322 10.2001 121.34L10.2001 121.476C10.1993 121.494 10.2006 121.511 10.2036 121.528C10.2036 121.544 10.2001 121.558 10.2001 121.571C10.2001 121.59 10.2036 121.605 10.2036 121.624C10.2036 121.637 10.2001 121.653 10.2001 121.667C10.2001 121.685 10.2036 121.701 10.2036 121.719C10.2036 121.732 10.2001 121.746 10.2001 121.76C10.2001 121.778 10.2036 121.796 10.2036 121.814C10.2036 121.828 10.2001 121.841 10.2001 121.855C10.2001 121.873 10.2036 121.891 10.2036 121.909L10.2036 122.045C10.203 122.062 10.2043 122.08 10.2073 122.097C10.2073 122.111 10.2036 122.125 10.2036 122.14C10.2036 122.156 10.2073 122.174 10.2073 122.193C10.2073 122.206 10.2036 122.22 10.2036 122.233C10.2036 122.251 10.2073 122.27 10.2073 122.288C10.2073 122.301 10.2036 122.315 10.2036 122.328C10.2036 122.347 10.2073 122.365 10.2073 122.383C10.2073 122.396 10.2036 122.41 10.2036 122.424C10.2036 122.442 10.2073 122.46 10.2073 122.476L10.2073 122.614C10.2068 122.631 10.2079 122.649 10.2108 122.666C10.2108 122.68 10.2073 122.693 10.2073 122.707C10.2073 122.725 10.2108 122.743 10.2108 122.761C10.2108 122.775 10.2073 122.789 10.2073 122.802C10.2073 122.82 10.2108 122.838 10.2108 122.857C10.2108 122.87 10.2073 122.884 10.2073 122.897C10.2073 128.761 30.1252 133.517 54.6974 133.517C79.2697 133.517 99.1877 128.762 99.1877 122.898C99.1877 122.88 99.1841 122.861 99.1841 122.846C99.1841 122.83 99.1877 122.816 99.1877 122.803C99.1877 122.784 99.1841 122.769 99.1841 122.75Z" stroke="#001235" stroke-opacity="0.811304" stroke-width="1.000000" stroke-linejoin="round"/>
	<path id="ellipse" d="M54.5045 107.409C79.0837 107.409 99.0091 112.175 99.0091 118.053C99.0091 123.931 79.0837 128.696 54.5045 128.696C29.9254 128.696 10 123.931 10 118.053C10 112.175 29.9254 107.409 54.5045 107.409Z" fill="url(#paint_linear_85_335_0)" fill-opacity="1.000000" fill-rule="evenodd"/>
	<path id="ellipse" d="M99.0091 118.053C99.0091 123.931 79.0837 128.696 54.5045 128.696C29.9254 128.696 10 123.931 10 118.053C10 112.175 29.9254 107.409 54.5045 107.409C79.0837 107.409 99.0091 112.175 99.0091 118.053Z" stroke="url(#paint_linear_85_335_1)" stroke-opacity="0.810000" stroke-width="1.000000" stroke-linejoin="round"/>
	<path id="path" d="M90.966 10.6659C90.966 6.40454 74.5619 2.9502 54.3257 2.9502C34.0896 2.9502 17.6855 6.40454 17.6855 10.6659C17.6849 10.6796 17.6861 10.6932 17.689 10.7068C17.6861 10.7211 17.6849 10.7354 17.6855 10.7498C17.6849 10.7634 17.6861 10.7771 17.689 10.7906C17.6842 10.8193 17.6842 10.848 17.689 10.8767C17.686 10.8903 17.6849 10.9038 17.6855 10.9176C17.6849 10.932 17.6861 10.9463 17.689 10.9606C17.6861 10.9741 17.6849 10.9878 17.6855 11.0015C17.6849 11.0159 17.6861 11.0302 17.689 11.0444C17.6861 11.058 17.6849 11.0717 17.6855 11.0853C17.6849 11.0997 17.686 11.114 17.689 11.1283C17.6861 11.1418 17.6849 11.1555 17.6855 11.1692C17.6902 11.1979 17.6902 11.2266 17.6855 11.2552C17.6849 11.2689 17.6861 11.2826 17.689 11.2961C17.6861 11.3104 17.6849 11.3247 17.6855 11.3391C17.6849 11.3528 17.6861 11.3665 17.689 11.38C17.6861 11.3943 17.6849 11.4087 17.6855 11.423C17.6849 11.4366 17.6861 11.4503 17.689 11.4639C17.6842 11.4926 17.6842 11.5212 17.689 11.5499C17.686 11.5635 17.6849 11.5771 17.6855 11.5908C17.6849 11.6052 17.6861 11.6195 17.689 11.6338C17.686 11.6473 17.6849 11.661 17.6855 11.6747C17.6849 11.6891 17.6861 11.7035 17.689 11.7177C17.6861 11.7312 17.6849 11.7449 17.6855 11.7585C17.6849 11.7729 17.686 11.7872 17.689 11.8015C17.6861 11.8151 17.6849 11.8287 17.6855 11.8424C17.6902 11.8711 17.6902 11.8998 17.6855 11.9285C17.6849 11.9421 17.6861 11.9558 17.689 11.9694C17.686 11.9836 17.6849 11.9979 17.6855 12.0123C17.6849 12.026 17.6861 12.0397 17.689 12.0532C17.6861 12.0675 17.6849 12.0818 17.6855 12.0962C17.6849 12.11 17.6861 12.1235 17.689 12.1371C17.6861 12.1514 17.6849 12.1656 17.6855 12.1801C17.6849 12.1937 17.6861 12.2074 17.689 12.2209C17.6842 12.2496 17.6842 12.2783 17.689 12.307C17.686 12.3206 17.6849 12.3342 17.6855 12.3479C17.6849 12.3623 17.6861 12.3766 17.689 12.3909C17.686 12.4044 17.6849 12.4181 17.6855 12.4318C17.6849 12.4462 17.6861 12.4604 17.689 12.4749C17.6861 12.4883 17.6849 12.502 17.6855 12.5156C17.6902 12.5443 17.6902 12.573 17.6855 12.6017C17.6849 12.6154 17.6861 12.629 17.689 12.6426C17.686 12.6569 17.6849 12.6711 17.6855 12.6857C17.6849 12.6992 17.6861 12.7129 17.689 12.7264C17.6861 12.7407 17.6849 12.755 17.6855 12.7694C17.6849 12.7831 17.6861 12.7968 17.689 12.8103C17.6861 12.8246 17.6849 12.839 17.6855 12.8533C17.6849 12.8671 17.6861 12.8806 17.689 12.8942C17.6842 12.9229 17.6842 12.9515 17.689 12.9802C17.6861 12.9938 17.6849 13.0074 17.6855 13.0211C17.6849 13.0355 17.6861 13.0498 17.689 13.0641C17.686 13.0776 17.6849 13.0913 17.6855 13.105C17.6849 13.1194 17.6861 13.1337 17.689 13.1479C17.686 13.1615 17.6849 13.1752 17.6855 13.1888C17.6849 13.2032 17.686 13.2175 17.689 13.2319C17.6861 13.2454 17.6849 13.259 17.6855 13.2727C17.6902 13.3014 17.6902 13.3301 17.6855 13.3588C17.6849 13.3724 17.6861 13.3861 17.689 13.3997C17.686 13.4139 17.6849 13.4282 17.6855 13.4427C17.6849 13.4563 17.6861 13.47 17.689 13.4835C17.6861 13.4978 17.6849 13.5121 17.6855 13.5266C17.6849 13.5402 17.6861 13.5538 17.689 13.5674C17.6842 13.5961 17.6842 13.6248 17.689 13.6536C17.6861 13.667 17.6849 13.6807 17.6855 13.6943C17.6849 13.7087 17.6861 13.723 17.689 13.7373C17.6861 13.7509 17.6849 13.7645 17.6855 13.7782C17.6849 13.7926 17.6861 13.8069 17.689 13.8212C17.686 13.8347 17.6849 13.8484 17.6855 13.8621C17.6849 13.8765 17.686 13.8907 17.689 13.9052C17.686 13.9186 17.6849 13.9323 17.6855 13.9459C17.6902 13.9746 17.6902 14.0033 17.6855 14.032C17.6849 14.0457 17.6861 14.0593 17.689 14.0729C17.686 14.0872 17.6849 14.1014 17.6855 14.116C17.6849 14.1296 17.6861 14.1432 17.689 14.1567C17.6861 14.171 17.6849 14.1853 17.6855 14.1998C17.6849 14.2135 17.6861 14.2271 17.689 14.2406C17.6861 14.2549 17.6849 14.2693 17.6855 14.2837C17.6849 14.2974 17.6861 14.3109 17.689 14.3245C17.6842 14.3531 17.6842 14.3818 17.689 14.4106C17.6861 14.4241 17.6849 14.4377 17.6855 14.4514C17.6849 14.4658 17.6861 14.4801 17.689 14.4945C17.6861 14.5079 17.6849 14.5216 17.6855 14.5353C17.6849 14.5497 17.6861 14.5641 17.689 14.5784C17.686 14.5919 17.6849 14.6055 17.6855 14.6191C17.6902 14.6478 17.6902 14.6765 17.6855 14.7053C17.6849 14.719 17.6861 14.7325 17.689 14.7461C17.686 14.7604 17.6849 14.7747 17.6855 14.7891C17.6849 14.8027 17.6861 14.8164 17.689 14.83C17.6861 14.8442 17.6849 14.8585 17.6855 14.873C17.6849 14.8867 17.6861 14.9003 17.689 14.9138C17.6861 14.9281 17.6849 14.9424 17.6855 14.9569C17.6855 19.2183 34.0896 22.6726 54.3257 22.6726C74.5619 22.6726 90.966 19.2183 90.966 14.9569C90.966 14.9432 90.9624 14.9274 90.9624 14.9138C90.9624 14.9003 90.966 14.8866 90.966 14.873C90.966 14.8594 90.9624 14.8435 90.9624 14.83C90.9624 14.8164 90.966 14.8027 90.966 14.7891C90.966 14.7755 90.9624 14.7596 90.9624 14.7461C90.9624 14.7325 90.966 14.7189 90.966 14.7053C90.966 14.6917 90.9624 14.6758 90.9624 14.6622C90.9624 14.6486 90.966 14.635 90.966 14.6191C90.966 14.6033 90.9624 14.5919 90.9624 14.5784C90.9624 14.5647 90.966 14.5488 90.966 14.5353C90.966 14.5217 90.9624 14.5081 90.9624 14.4945C90.9624 14.4808 90.966 14.465 90.966 14.4514C90.966 14.4379 90.9624 14.4242 90.9624 14.4106C90.9624 14.397 90.966 14.3811 90.966 14.3676C90.966 14.354 90.9624 14.3403 90.9624 14.3245C90.9624 14.3086 90.966 14.2974 90.966 14.2837C90.966 14.2701 90.9624 14.2565 90.9624 14.2406C90.9624 14.2247 90.966 14.2135 90.966 14.1998C90.966 14.1862 90.9624 14.1704 90.9624 14.1567C90.9624 14.1432 90.966 14.1296 90.966 14.116C90.966 14.1023 90.9624 14.0865 90.9624 14.0729C90.9624 14.0593 90.966 14.0457 90.966 14.0321C90.966 14.0184 90.9624 14.0027 90.9624 13.989C90.9624 13.9755 90.966 13.9618 90.966 13.946C90.966 13.9302 90.9624 13.9188 90.9624 13.9052C90.9624 13.8916 90.966 13.8779 90.966 13.8622C90.966 13.8463 90.9624 13.835 90.9624 13.8213C90.9624 13.8077 90.966 13.7919 90.966 13.7783C90.966 13.7646 90.9624 13.7511 90.9624 13.7374C90.9624 13.7239 90.966 13.708 90.966 13.6943C90.966 13.6808 90.9624 13.6672 90.9624 13.6536C90.9624 13.64 90.966 13.6241 90.966 13.6105C90.966 13.5969 90.9624 13.5834 90.9624 13.5675C90.9624 13.5516 90.966 13.5403 90.966 13.5266C90.966 13.5131 90.9624 13.4972 90.9624 13.4836C90.9624 13.47 90.966 13.4564 90.966 13.4427C90.966 13.4292 90.9624 13.4133 90.9624 13.3998C90.9624 13.3861 90.966 13.3726 90.966 13.3589C90.966 13.3453 90.9624 13.3295 90.9624 13.3159C90.9624 13.3022 90.966 13.2887 90.966 13.2728C90.966 13.257 90.9624 13.2456 90.9624 13.2321C90.9624 13.2184 90.966 13.2048 90.966 13.189C90.966 13.1731 90.9624 13.1617 90.9624 13.1482C90.9624 13.1345 90.966 13.1187 90.966 13.1051C90.966 13.0916 90.9624 13.0779 90.9624 13.0643C90.9624 13.0507 90.966 13.0348 90.966 13.0212C90.966 13.0077 90.9624 12.994 90.9624 12.9805C90.9624 12.9668 90.966 12.9509 90.966 12.9374C90.966 12.9238 90.9624 12.9102 90.9624 12.8943C90.9624 12.8784 90.966 12.8671 90.966 12.8535C90.966 12.8398 90.9624 12.8263 90.9624 12.8104C90.9624 12.7946 90.966 12.7832 90.966 12.7697C90.966 12.756 90.9624 12.7401 90.9624 12.7266C90.9624 12.713 90.966 12.6993 90.966 12.6858C90.966 12.6721 90.9624 12.6562 90.9624 12.6427C90.9624 12.6292 90.966 12.6155 90.966 12.6019C90.966 12.5883 90.9624 12.5724 90.9624 12.5588C90.9624 12.5453 90.966 12.5316 90.966 12.5157C90.966 12.5 90.9624 12.4886 90.9624 12.475C90.9624 12.4614 90.966 12.4456 90.966 12.4319C90.966 12.4183 90.9624 12.4047 90.9624 12.3911C90.9624 12.3776 90.966 12.3617 90.966 12.348C90.966 12.3345 90.9624 12.3208 90.9624 12.3073C90.9624 12.2937 90.966 12.2778 90.966 12.2642C90.966 12.2506 90.9624 12.2371 90.9624 12.2212C90.9624 12.2053 90.966 12.194 90.966 12.1803C90.966 12.1667 90.9624 12.1531 90.9624 12.1373C90.9624 12.1215 90.966 12.1101 90.966 12.0964C90.966 12.0829 90.9624 12.067 90.9624 12.0535C90.9624 12.0398 90.966 12.0262 90.966 12.0126C90.966 11.999 90.9624 11.9832 90.9624 11.9696C90.9624 11.9559 90.966 11.9424 90.966 11.9287C90.966 11.9152 90.9624 11.8993 90.9624 11.8857C90.9624 11.8721 90.966 11.8585 90.966 11.8427C90.966 11.8268 90.9624 11.8154 90.9624 11.8018C90.9624 11.7882 90.966 11.7747 90.966 11.7588C90.966 11.7429 90.9624 11.7316 90.9624 11.7179C90.9624 11.7043 90.966 11.6885 90.966 11.6749C90.966 11.6613 90.9624 11.6477 90.9624 11.634C90.9624 11.6205 90.966 11.6046 90.966 11.5911C90.966 11.5774 90.9624 11.5638 90.9624 11.5502C90.9624 11.5366 90.966 11.5208 90.966 11.5072C90.966 11.4935 90.9624 11.48 90.9624 11.4641C90.9624 11.4482 90.966 11.4369 90.966 11.4233C90.966 11.4097 90.9624 11.3961 90.9624 11.3802C90.9624 11.3644 90.966 11.353 90.966 11.3395C90.966 11.3258 90.9624 11.3099 90.9624 11.2964C90.9624 11.2828 90.966 11.2692 90.966 11.2556C90.966 11.2419 90.9624 11.2261 90.9624 11.2125C90.9624 11.199 90.966 11.1853 90.966 11.1694C90.966 11.1536 90.9624 11.1422 90.9624 11.1287C90.9624 11.115 90.966 11.1014 90.966 11.0856C90.966 11.0697 90.9624 11.0583 90.9624 11.0448C90.9624 11.0311 90.966 11.0153 90.966 11.0017C90.966 10.9882 90.9624 10.9745 90.9624 10.9609C90.9624 10.9473 90.966 10.9315 90.966 10.9178C90.966 10.9043 90.9624 10.8906 90.9624 10.8771C90.9624 10.8634 90.966 10.8475 90.966 10.834C90.966 10.8204 90.9624 10.8068 90.9624 10.791C90.9624 10.7751 90.966 10.7638 90.966 10.7501C90.966 10.7366 90.9624 10.7227 90.9624 10.7068C90.9624 10.6931 90.966 10.6796 90.966 10.6659Z" fill="url(#paint_linear_85_336_0)" fill-opacity="1.000000" fill-rule="evenodd"/>
	<g opacity="0.200000">
		<path id="path" d="M18.0429 14.5621C18.0423 14.5758 18.0435 14.5894 18.0464 14.6029C18.0435 14.6172 18.0423 14.6316 18.0429 14.646C18.0423 14.6597 18.0435 14.6732 18.0464 14.6868C18.0435 14.701 18.0423 14.7155 18.0429 14.7299C18.0429 18.9912 34.447 22.4456 54.6832 22.4456C74.9193 22.4456 91.3235 18.9912 91.3235 14.7299C91.3235 14.7163 91.3199 14.7004 91.3199 14.6868C91.3199 14.6732 91.3235 14.6597 91.3235 14.646C91.3235 14.6323 91.3199 14.6166 91.3199 14.6029C91.3199 14.5894 91.3235 14.5758 91.3235 14.5621L18.0429 14.5621Z" fill="#000000" fill-opacity="0" fill-rule="evenodd"/>
		<path id="path" d="M18.0429 14.5621C18.0423 14.5758 18.0435 14.5894 18.0464 14.6029C18.0435 14.6172 18.0423 14.6316 18.0429 14.646C18.0423 14.6597 18.0435 14.6732 18.0464 14.6868C18.0435 14.701 18.0423 14.7155 18.0429 14.7299C18.0429 18.9912 34.447 22.4456 54.6832 22.4456C74.9193 22.4456 91.3235 18.9912 91.3235 14.7299C91.3235 14.7163 91.3199 14.7004 91.3199 14.6868C91.3199 14.6732 91.3235 14.6597 91.3235 14.646C91.3235 14.6323 91.3199 14.6166 91.3199 14.6029C91.3199 14.5894 91.3235 14.5758 91.3235 14.5621" stroke="url(#paint_linear_85_337_0)" stroke-opacity="1.000000" stroke-width="1.000000"/>
	</g>
	<path id="path" d="M90.966 110.399C90.966 106.138 74.5619 102.684 54.3257 102.684C34.0896 102.684 17.6855 106.138 17.6855 110.399C17.6849 110.413 17.6861 110.427 17.689 110.44C17.6861 110.455 17.6849 110.469 17.6855 110.483C17.6849 110.497 17.6861 110.51 17.689 110.524C17.6842 110.553 17.6842 110.582 17.689 110.61C17.6861 110.624 17.6849 110.637 17.6855 110.651C17.6849 110.665 17.6861 110.68 17.689 110.694C17.6861 110.708 17.6849 110.721 17.6855 110.735C17.6849 110.749 17.6861 110.764 17.689 110.778C17.6861 110.791 17.6849 110.805 17.6855 110.819C17.6902 110.847 17.6902 110.876 17.6855 110.905C17.6849 110.918 17.6861 110.932 17.689 110.946C17.686 110.96 17.6849 110.974 17.6855 110.989C17.6849 111.002 17.6861 111.016 17.689 111.029C17.6861 111.044 17.6849 111.058 17.6855 111.072C17.6849 111.086 17.6861 111.1 17.689 111.113C17.6861 111.128 17.6849 111.142 17.6855 111.156C17.6849 111.17 17.6861 111.184 17.689 111.197C17.6842 111.226 17.6842 111.254 17.689 111.283C17.6861 111.297 17.6849 111.31 17.6855 111.324C17.6849 111.338 17.6861 111.353 17.689 111.367C17.6861 111.38 17.6849 111.394 17.6855 111.408C17.6849 111.422 17.6861 111.437 17.689 111.451C17.6861 111.464 17.6849 111.478 17.6855 111.492C17.6849 111.506 17.686 111.52 17.689 111.535C17.6861 111.548 17.6849 111.562 17.6855 111.575C17.6902 111.604 17.6902 111.633 17.6855 111.662C17.6849 111.675 17.6861 111.689 17.689 111.702C17.686 111.717 17.6849 111.731 17.6855 111.745C17.6849 111.759 17.6861 111.773 17.689 111.786C17.6861 111.8 17.6849 111.815 17.6855 111.829C17.6849 111.843 17.6861 111.856 17.689 111.87C17.6861 111.884 17.6849 111.899 17.6855 111.913C17.6849 111.927 17.6861 111.94 17.689 111.954C17.6842 111.983 17.6842 112.011 17.689 112.04C17.6861 112.053 17.6849 112.067 17.6855 112.081C17.6849 112.095 17.6861 112.109 17.689 112.124C17.6861 112.137 17.6849 112.151 17.6855 112.165C17.6849 112.179 17.6861 112.193 17.689 112.208C17.6861 112.221 17.6849 112.235 17.6855 112.248C17.6902 112.277 17.6902 112.306 17.6855 112.335C17.6849 112.348 17.6861 112.362 17.689 112.375C17.686 112.39 17.6849 112.404 17.6855 112.418C17.6849 112.432 17.6861 112.446 17.689 112.459C17.6861 112.473 17.6849 112.488 17.6855 112.502C17.6849 112.516 17.6861 112.529 17.689 112.543C17.6861 112.557 17.6849 112.572 17.6855 112.586C17.6849 112.6 17.6861 112.613 17.689 112.627C17.6842 112.656 17.6842 112.684 17.689 112.713C17.6861 112.726 17.6849 112.74 17.6855 112.754C17.6849 112.768 17.6861 112.782 17.689 112.797C17.6861 112.81 17.6849 112.824 17.6855 112.838C17.6849 112.852 17.6861 112.866 17.689 112.881C17.6861 112.894 17.6849 112.908 17.6855 112.921C17.6849 112.936 17.686 112.95 17.689 112.964C17.6861 112.978 17.6849 112.992 17.6855 113.005C17.6902 113.034 17.6902 113.063 17.6855 113.091C17.6849 113.105 17.6861 113.119 17.689 113.132C17.686 113.146 17.6849 113.161 17.6855 113.175C17.6849 113.189 17.6861 113.203 17.689 113.216C17.6861 113.23 17.6849 113.245 17.6855 113.259C17.6849 113.273 17.6861 113.286 17.689 113.3C17.6842 113.328 17.6842 113.357 17.689 113.386C17.6861 113.399 17.6849 113.413 17.6855 113.427C17.6849 113.441 17.6861 113.455 17.689 113.47C17.6861 113.483 17.6849 113.497 17.6855 113.51C17.6849 113.525 17.6861 113.539 17.689 113.554C17.6861 113.567 17.6849 113.581 17.6855 113.594C17.6849 113.609 17.686 113.623 17.689 113.637C17.6861 113.651 17.6849 113.665 17.6855 113.678C17.6902 113.707 17.6902 113.736 17.6855 113.764C17.6849 113.778 17.6861 113.792 17.689 113.805C17.686 113.819 17.6849 113.834 17.6855 113.848C17.6849 113.862 17.686 113.875 17.689 113.889C17.6861 113.903 17.6849 113.918 17.6855 113.932C17.6849 113.946 17.6861 113.959 17.689 113.973C17.6861 113.987 17.6849 114.001 17.6855 114.016C17.6849 114.03 17.6861 114.043 17.689 114.057C17.6842 114.085 17.6842 114.114 17.689 114.143C17.6861 114.156 17.6849 114.17 17.6855 114.183C17.6849 114.198 17.6861 114.212 17.689 114.227C17.6861 114.24 17.6849 114.254 17.6855 114.267C17.6849 114.282 17.6861 114.296 17.689 114.31C17.6861 114.324 17.6849 114.338 17.6855 114.351C17.6902 114.38 17.6902 114.409 17.6855 114.437C17.6849 114.451 17.6861 114.464 17.689 114.478C17.686 114.492 17.6849 114.507 17.6855 114.521C17.6849 114.535 17.6861 114.548 17.689 114.562C17.6861 114.576 17.6849 114.591 17.6855 114.605C17.6849 114.619 17.6861 114.632 17.689 114.646C17.6861 114.66 17.6849 114.674 17.6855 114.689C17.6855 118.95 34.0896 122.405 54.3257 122.405C74.5619 122.405 90.966 118.95 90.966 114.689C90.966 114.675 90.9624 114.659 90.9624 114.646C90.9624 114.632 90.966 114.619 90.966 114.605C90.966 114.591 90.9624 114.576 90.9624 114.562C90.9624 114.548 90.966 114.535 90.966 114.521C90.966 114.508 90.9624 114.492 90.9624 114.478C90.9624 114.464 90.966 114.451 90.966 114.437C90.966 114.424 90.9624 114.408 90.9624 114.394C90.9624 114.381 90.966 114.367 90.966 114.351C90.966 114.335 90.9624 114.324 90.9624 114.31C90.9624 114.297 90.966 114.281 90.966 114.267C90.966 114.254 90.9624 114.24 90.9624 114.227C90.9624 114.213 90.966 114.197 90.966 114.183C90.966 114.17 90.9624 114.156 90.9624 114.143C90.9624 114.129 90.966 114.113 90.966 114.1C90.966 114.086 90.9624 114.072 90.9624 114.057C90.9624 114.041 90.966 114.029 90.966 114.016C90.966 114.002 90.9624 113.989 90.9624 113.973C90.9624 113.957 90.966 113.946 90.966 113.932C90.966 113.918 90.9624 113.903 90.9624 113.889C90.9624 113.875 90.966 113.862 90.966 113.848C90.966 113.835 90.9624 113.819 90.9624 113.805C90.9624 113.792 90.966 113.778 90.966 113.764C90.966 113.751 90.9624 113.735 90.9624 113.721C90.9624 113.708 90.966 113.694 90.966 113.678C90.966 113.662 90.9624 113.651 90.9624 113.637C90.9624 113.624 90.966 113.61 90.966 113.594C90.966 113.578 90.9624 113.567 90.9624 113.554C90.9624 113.54 90.966 113.524 90.966 113.51C90.966 113.497 90.9624 113.483 90.9624 113.47C90.9624 113.456 90.966 113.44 90.966 113.427C90.966 113.413 90.9624 113.399 90.9624 113.386C90.9624 113.372 90.966 113.356 90.966 113.343C90.966 113.329 90.9624 113.316 90.9624 113.3C90.9624 113.284 90.966 113.273 90.966 113.259C90.966 113.245 90.9624 113.23 90.9624 113.216C90.9624 113.202 90.966 113.189 90.966 113.175C90.966 113.162 90.9624 113.146 90.9624 113.132C90.9624 113.119 90.966 113.105 90.966 113.091C90.966 113.078 90.9624 113.062 90.9624 113.048C90.9624 113.035 90.966 113.021 90.966 113.005C90.966 112.989 90.9624 112.978 90.9624 112.964C90.9624 112.951 90.966 112.937 90.966 112.921C90.966 112.906 90.9624 112.894 90.9624 112.881C90.9624 112.867 90.966 112.851 90.966 112.838C90.966 112.824 90.9624 112.81 90.9624 112.797C90.9624 112.783 90.966 112.767 90.966 112.754C90.966 112.74 90.9624 112.726 90.9624 112.713C90.9624 112.699 90.966 112.683 90.966 112.67C90.966 112.656 90.9624 112.643 90.9624 112.627C90.9624 112.611 90.966 112.6 90.966 112.586C90.966 112.573 90.9624 112.559 90.9624 112.543C90.9624 112.527 90.966 112.516 90.966 112.502C90.966 112.489 90.9624 112.473 90.9624 112.459C90.9624 112.446 90.966 112.432 90.966 112.418C90.966 112.405 90.9624 112.389 90.9624 112.375C90.9624 112.362 90.966 112.348 90.966 112.335C90.966 112.321 90.9624 112.305 90.9624 112.292C90.9624 112.278 90.966 112.264 90.966 112.248C90.966 112.233 90.9624 112.221 90.9624 112.208C90.9624 112.194 90.966 112.178 90.966 112.165C90.966 112.151 90.9624 112.137 90.9624 112.124C90.9624 112.11 90.966 112.094 90.966 112.081C90.966 112.067 90.9624 112.054 90.9624 112.04C90.9624 112.026 90.966 112.01 90.966 111.997C90.966 111.983 90.9624 111.97 90.9624 111.954C90.9624 111.938 90.966 111.927 90.966 111.913C90.966 111.9 90.9624 111.886 90.9624 111.87C90.9624 111.854 90.966 111.843 90.966 111.829C90.966 111.816 90.9624 111.8 90.9624 111.786C90.9624 111.773 90.966 111.759 90.966 111.745C90.966 111.732 90.9624 111.716 90.9624 111.702C90.9624 111.689 90.966 111.675 90.966 111.662C90.966 111.648 90.9624 111.632 90.9624 111.619C90.9624 111.605 90.966 111.591 90.966 111.575C90.966 111.56 90.9624 111.548 90.9624 111.535C90.9624 111.521 90.966 111.507 90.966 111.492C90.966 111.476 90.9624 111.464 90.9624 111.451C90.9624 111.437 90.966 111.421 90.966 111.408C90.966 111.394 90.9624 111.381 90.9624 111.367C90.9624 111.353 90.966 111.338 90.966 111.324C90.966 111.31 90.9624 111.297 90.9624 111.283C90.9624 111.27 90.966 111.254 90.966 111.24C90.966 111.226 90.9624 111.213 90.9624 111.197C90.9624 111.181 90.966 111.17 90.966 111.156C90.966 111.143 90.9624 111.129 90.9624 111.113C90.9624 111.097 90.966 111.086 90.966 111.072C90.966 111.059 90.9624 111.043 90.9624 111.029C90.9624 111.016 90.966 111.002 90.966 110.989C90.966 110.975 90.9624 110.959 90.9624 110.946C90.9624 110.932 90.966 110.918 90.966 110.905C90.966 110.891 90.9624 110.875 90.9624 110.862C90.9624 110.848 90.966 110.834 90.966 110.819C90.966 110.803 90.9624 110.791 90.9624 110.778C90.9624 110.764 90.966 110.748 90.966 110.735C90.966 110.721 90.9624 110.708 90.9624 110.694C90.9624 110.68 90.966 110.665 90.966 110.651C90.966 110.637 90.9624 110.624 90.9624 110.61C90.9624 110.597 90.966 110.581 90.966 110.567C90.966 110.554 90.9624 110.54 90.9624 110.524C90.9624 110.508 90.966 110.497 90.966 110.483C90.966 110.47 90.9624 110.456 90.9624 110.44C90.9624 110.427 90.966 110.413 90.966 110.399Z" fill="url(#paint_linear_85_338_0)" fill-opacity="1.000000" fill-rule="evenodd"/>
	<path id="path" d="M91.2127 11.3278L91.2127 115.161L17.8571 115.161L17.8571 11.3278L91.2127 11.3278Z" fill="#36416C" fill-opacity="0.531304" fill-rule="evenodd"/>
	<path id="path" d="M91.2127 115.161L17.8571 115.161L17.8571 11.3278L91.2127 11.3278L91.2127 115.161Z" stroke="#B3C4FF" stroke-opacity="1.000000" stroke-width="1.000000" stroke-linejoin="round"/>
	<path id="path" d="M91.2127 11.3278L91.2127 115.161L17.8571 115.161L17.8571 11.3278L91.2127 11.3278Z" fill="#36416C" fill-opacity="0.531304" fill-rule="evenodd"/>
	<path id="path" d="M91.2127 115.161L17.8571 115.161L17.8571 11.3278L91.2127 11.3278L91.2127 115.161Z" stroke="#B3C4FF" stroke-opacity="1.000000" stroke-width="1.000000" stroke-linejoin="round"/>
	<path id="path" d="M91.2127 115.155C91.2127 119.432 74.7943 122.898 54.5367 122.898C34.2791 122.898 17.8571 119.43 17.8571 115.155C17.8571 110.88 34.2791 107.41 54.5367 107.41C74.7943 107.41 91.2127 110.878 91.2127 115.155Z" fill="#7490EA" fill-opacity="1.000000" fill-rule="evenodd"/>
	<path id="path" d="M54.5367 122.898C34.2791 122.898 17.8571 119.43 17.8571 115.155C17.8571 110.88 34.2791 107.41 54.5367 107.41C74.7943 107.41 91.2127 110.878 91.2127 115.155C91.2127 119.432 74.7943 122.898 54.5367 122.898Z" stroke="#B3C4FF" stroke-opacity="1.000000" stroke-width="1.000000" stroke-linejoin="round"/>
	<path id="path" d="M91.2127 115.155C91.2127 119.432 74.7943 122.898 54.5367 122.898C34.2791 122.898 17.8571 119.43 17.8571 115.155C17.8571 110.88 34.2791 107.41 54.5367 107.41C74.7943 107.41 91.2127 110.878 91.2127 115.155Z" fill="#3D55A0" fill-opacity="1.000000" fill-rule="evenodd"/>
	<path id="path" d="M54.5367 122.898C34.2791 122.898 17.8571 119.43 17.8571 115.155C17.8571 110.88 34.2791 107.41 54.5367 107.41C74.7943 107.41 91.2127 110.878 91.2127 115.155C91.2127 119.432 74.7943 122.898 54.5367 122.898Z" stroke="#B3C4FF" stroke-opacity="1.000000" stroke-width="1.000000" stroke-linejoin="round"/>
	<g opacity="0.300000">
		<path id="rect" d="M26.5921 15.8452L26.5793 121.173L17.8535 121.173L17.5515 11.9281L26.5921 15.8452Z" fill="url(#paint_radial_85_346_0)" fill-opacity="0.400000" fill-rule="evenodd"/>
	</g>
	<g opacity="0.300000">
		<path id="rect" d="M90.9735 11.95L91.1341 121.173L82.4084 121.173L82.5699 16.0701L90.9735 11.95Z" fill="url(#paint_radial_85_347_0)" fill-opacity="0.400000" fill-rule="evenodd"/>
	</g>
	<path id="path" d="M91.2127 10.7749C91.2127 15.0521 74.7943 18.5178 54.5367 18.5178C34.2791 18.5178 17.8571 15.0498 17.8571 10.7749C17.8571 6.49988 34.2791 3.02966 54.5367 3.02966C74.7943 3.02966 91.2127 6.49768 91.2127 10.7749Z" fill="url(#paint_linear_85_348_0)" fill-opacity="1.000000" fill-rule="evenodd"/>
	<path id="path" d="M54.5367 18.5178C34.2791 18.5178 17.8571 15.0498 17.8571 10.7749C17.8571 6.49988 34.2791 3.02966 54.5367 3.02966C74.7943 3.02966 91.2127 6.49768 91.2127 10.7749C91.2127 15.0521 74.7943 18.5178 54.5367 18.5178Z" stroke="#B3C4FF" stroke-opacity="1.000000" stroke-width="1.000000" stroke-linejoin="round"/>
	<path id="path" d="M91.2127 10.7749C91.2127 15.0521 74.7943 18.5178 54.5367 18.5178C34.2791 18.5178 17.8571 15.0498 17.8571 10.7749C17.8571 6.49988 34.2791 3.02966 54.5367 3.02966C74.7943 3.02966 91.2127 6.49768 91.2127 10.7749Z" fill="url(#paint_linear_85_349_0)" fill-opacity="1.000000" fill-rule="evenodd"/>
	<path id="path" d="M54.5367 18.5178C34.2791 18.5178 17.8571 15.0498 17.8571 10.7749C17.8571 6.49988 34.2791 3.02966 54.5367 3.02966C74.7943 3.02966 91.2127 6.49768 91.2127 10.7749C91.2127 15.0521 74.7943 18.5178 54.5367 18.5178Z" stroke="#B3C4FF" stroke-opacity="1.000000" stroke-width="1.000000" stroke-linejoin="round"/>
	<g opacity="0.200000">
		<path id="path" d="M54.4938 22.8202C34.2576 22.8202 17.8535 19.3544 17.8535 15.0795C17.8535 10.8046 34.2577 7.33655 54.4938 7.33655C74.73 7.33655 91.1341 10.8022 91.1341 15.0795C91.1341 19.3567 74.73 22.8202 54.4938 22.8202Z" stroke="#B3C4FF" stroke-opacity="1.000000" stroke-width="1.000000" stroke-linejoin="round"/>
	</g>
	<g opacity="0.200000">
		<path id="ellipse" d="M91.1341 106.651C91.1341 110.927 74.7296 114.393 54.4938 114.393C34.258 114.393 17.8535 110.927 17.8535 106.651C17.8535 102.376 34.258 98.9097 54.4938 98.9097C74.7296 98.9097 91.1341 102.376 91.1341 106.651Z" stroke="#B3C4FF" stroke-opacity="1.000000" stroke-width="1.000000" stroke-linejoin="round"/>
	</g>
	<path id="path" d="M73.1357 9.03394C73.1357 11.2053 64.8103 12.962 54.5367 12.962C44.2632 12.962 35.9378 11.2031 35.9378 9.03394C35.9378 6.86475 44.2668 5.10352 54.5367 5.10352C64.8103 5.10352 73.1357 6.86243 73.1357 9.03394Z" fill="url(#paint_linear_85_352_0)" fill-opacity="1.000000" fill-rule="evenodd"/>
	<path id="path" d="M54.5367 12.962C44.2632 12.962 35.9378 11.2031 35.9378 9.03394C35.9378 6.86475 44.2668 5.10352 54.5367 5.10352C64.8103 5.10352 73.1357 6.86243 73.1357 9.03394C73.1357 11.2053 64.8103 12.962 54.5367 12.962Z" stroke="#0A275F" stroke-opacity="1.000000" stroke-width="2.000000" stroke-linejoin="round"/>
	<path id="path" d="M72.3778 4.69775C72.3778 2.61023 64.3742 0.916992 54.5045 0.916992C44.6349 0.916992 36.6312 2.61023 36.6312 4.69775C36.6312 4.70911 36.6348 4.72046 36.6348 4.73413C36.6348 4.74768 36.6312 4.75903 36.6312 4.77039C36.6312 4.78174 36.6348 4.79529 36.6348 4.80884C36.6348 4.82251 36.6312 4.83154 36.6312 4.84521C36.6312 4.85876 36.6348 4.87012 36.6348 4.88147C36.6348 4.89282 36.6312 4.90637 36.6312 4.92004C36.6312 4.93359 36.6348 4.94263 36.6348 4.9563C36.6348 4.96985 36.6312 4.9812 36.6312 4.99255C36.6312 5.00391 36.6348 5.01746 36.6348 5.02881C36.6348 5.04016 36.6312 5.05371 36.6312 5.06738C36.6312 5.08093 36.6348 5.09229 36.6348 5.10364C36.6348 5.11499 36.6312 5.12854 36.6312 5.13989C36.6312 5.15125 36.6348 5.16479 36.6348 5.17847C36.6348 5.19202 36.6312 5.20337 36.6312 5.21472C36.6312 5.22607 36.6348 5.23962 36.6348 5.25098C36.6348 5.26233 36.6312 5.27588 36.6312 5.28955C36.6312 5.3031 36.6348 5.31445 36.6348 5.32581C36.6348 5.33716 36.6312 5.35071 36.6312 5.36206C36.6312 5.37341 36.6348 5.38696 36.6348 5.40063C36.6348 5.41418 36.6312 5.42554 36.6312 5.43689C36.6312 5.44824 36.6348 5.46179 36.6348 5.47314C36.6348 5.4845 36.6312 5.49817 36.6312 5.51172C36.6312 5.52539 36.6348 5.53662 36.6348 5.54797C36.6348 5.55933 36.6312 5.57288 36.6312 5.58423C36.6312 5.59558 36.6348 5.60925 36.6348 5.6228C36.6348 5.63647 36.6312 5.64551 36.6312 5.65906C36.6312 5.67273 36.6348 5.68396 36.6348 5.69531C36.6348 5.70667 36.6312 5.72034 36.6312 5.73389C36.6312 5.74756 36.6348 5.75659 36.6348 5.77014C36.6348 5.78381 36.6312 5.79517 36.6312 5.80652C36.6312 5.81775 36.6348 5.83142 36.6348 5.84497C36.6348 5.85864 36.6312 5.86768 36.6312 5.88123C36.6312 5.8949 36.6348 5.90625 36.6348 5.9176C36.6348 5.92883 36.6312 5.9425 36.6312 5.95605C36.6312 5.96973 36.6348 5.97876 36.6348 5.99231C36.6348 6.00598 36.6312 6.01733 36.6312 6.02869C36.6312 6.04004 36.6348 6.05359 36.6348 6.06494C36.6348 6.07629 36.6312 6.08984 36.6312 6.10352C36.6312 6.11707 36.6348 6.12842 36.6348 6.13977C36.6348 6.15112 36.6312 6.16467 36.6312 6.17603C36.6312 6.18738 36.6348 6.20093 36.6348 6.2146C36.6348 6.22815 36.6312 6.2395 36.6312 6.25085C36.6312 6.26221 36.6348 6.27576 36.6348 6.28711C36.6348 6.29846 36.6312 6.31201 36.6312 6.32568C36.6312 6.33923 36.6348 6.35059 36.6348 6.36194C36.6348 6.37329 36.6312 6.38684 36.6312 6.39819C36.6312 6.40955 36.6348 6.4231 36.6348 6.43677C36.6348 6.45032 36.6312 6.46167 36.6312 6.47302C36.6312 6.48438 36.6348 6.49792 36.6348 6.50928C36.6348 6.52063 36.6312 6.53418 36.6312 6.54785C36.6312 6.5614 36.6348 6.57275 36.6348 6.58411C36.6348 6.59546 36.6312 6.60901 36.6312 6.62036C36.6312 6.63171 36.6348 6.64526 36.6348 6.65894C36.6348 6.67249 36.6312 6.68152 36.6312 6.69519C36.6312 6.70886 36.6348 6.72009 36.6348 6.73145C36.6348 6.7428 36.6312 6.75635 36.6312 6.77002C36.6312 6.78357 36.6348 6.79272 36.6348 6.80627C36.6348 6.81995 36.6312 6.83118 36.6312 6.84253C36.6312 6.85388 36.6348 6.86743 36.6348 6.8811C36.6348 6.89478 36.6312 6.90381 36.6312 6.91736C36.6312 6.93103 36.6348 6.94226 36.6348 6.95361C36.6348 6.96497 36.6312 6.97864 36.6312 6.99219C36.6312 7.00586 36.6348 7.01489 36.6348 7.02844C36.6348 7.04211 36.6312 7.05334 36.6312 7.0647C36.6312 7.07605 36.6348 7.08972 36.6348 7.10107C36.6348 7.11243 36.6312 7.12598 36.6312 7.13953C36.6312 7.1532 36.6348 7.16455 36.6348 7.17578C36.6348 7.18713 36.6312 7.20081 36.6312 7.21216C36.6312 7.22351 36.6348 7.23706 36.6348 7.25061C36.6348 7.26428 36.6312 7.27563 36.6312 7.28687C36.6312 7.29822 36.6348 7.31189 36.6348 7.32324C36.6348 7.33459 36.6312 7.34814 36.6312 7.36169C36.6312 7.37537 36.6348 7.38672 36.6348 7.39807C36.6348 7.40942 36.6312 7.42297 36.6312 7.43433C36.6312 7.44568 36.6348 7.45923 36.6348 7.4729C36.6348 7.48645 36.6312 7.4978 36.6312 7.50916C36.6312 7.52051 36.6348 7.53406 36.6348 7.54541C36.6348 7.55676 36.6312 7.57031 36.6312 7.58398C36.6312 7.59753 36.6348 7.60889 36.6348 7.62024C36.6348 7.63159 36.6312 7.64514 36.6312 7.65649C36.6312 7.66785 36.6348 7.6814 36.6348 7.69507C36.6348 7.70862 36.6312 7.71765 36.6312 7.73132C36.6312 7.74487 36.6348 7.75623 36.6348 7.76758C36.6348 7.77893 36.6312 7.79248 36.6312 7.80615C36.6312 7.8197 36.6348 7.82874 36.6348 7.84241C36.6348 7.85596 36.6312 7.86731 36.6312 7.87866C36.6312 7.89001 36.6348 7.90356 36.6348 7.91724C36.6348 7.93079 36.6312 7.93982 36.6312 7.95349C36.6312 7.96704 36.6348 7.97839 36.6348 7.98975C36.6348 8.0011 36.6312 8.01465 36.6312 8.026C36.6312 8.03735 36.6348 8.0509 36.6348 8.06458C36.6348 8.07825 36.6312 8.08948 36.6312 8.10083C36.6312 8.11218 36.6348 8.12573 36.6348 8.13708C36.6348 8.14844 36.6312 8.16211 36.6312 8.17566C36.6312 8.18933 36.6348 8.20056 36.6348 8.21191C36.6348 8.22327 36.6312 8.23682 36.6312 8.24817C36.6312 8.25952 36.6348 8.27319 36.6348 8.28674C36.6348 8.30042 36.6312 8.31165 36.6312 8.323C36.6312 8.33435 36.6348 8.34802 36.6348 8.35925C36.6348 8.37061 36.6312 8.38428 36.6312 8.39783C36.6312 8.4115 36.6348 8.42273 36.6348 8.43408C36.6348 8.44543 36.6312 8.45911 36.6312 8.47046C36.6312 10.558 44.6349 12.2512 54.5045 12.2512C64.3742 12.2512 72.3778 10.558 72.3778 8.47046C72.3778 8.45911 72.3743 8.44543 72.3743 8.43408C72.3743 8.42273 72.3778 8.40918 72.3778 8.39783C72.3778 8.38647 72.3743 8.37292 72.3743 8.35925C72.3743 8.3457 72.3778 8.33435 72.3778 8.323C72.3778 8.31165 72.3743 8.2981 72.3743 8.28674C72.3743 8.27539 72.3778 8.26184 72.3778 8.24817C72.3778 8.23462 72.3743 8.22559 72.3743 8.21191C72.3743 8.19836 72.3778 8.18701 72.3778 8.17566C72.3778 8.16431 72.3743 8.15076 72.3743 8.13708C72.3743 8.12354 72.3778 8.1145 72.3778 8.10083C72.3778 8.08728 72.3743 8.07593 72.3743 8.06458C72.3743 8.05322 72.3778 8.03967 72.3778 8.026C72.3778 8.01245 72.3743 8.00342 72.3743 7.98975C72.3743 7.9762 72.3778 7.96484 72.3778 7.95349C72.3778 7.94214 72.3743 7.92859 72.3743 7.91724C72.3743 7.90588 72.3778 7.89233 72.3778 7.87866C72.3778 7.86499 72.3743 7.85376 72.3743 7.84241C72.3743 7.83105 72.3778 7.8175 72.3778 7.80615C72.3778 7.7948 72.3743 7.78113 72.3743 7.76758C72.3743 7.75391 72.3778 7.74268 72.3778 7.73132C72.3778 7.71997 72.3743 7.70642 72.3743 7.69507C72.3743 7.68372 72.3778 7.67004 72.3778 7.65649C72.3778 7.64282 72.3743 7.63159 72.3743 7.62024C72.3743 7.60889 72.3778 7.59521 72.3778 7.58398C72.3778 7.57263 72.3743 7.55896 72.3743 7.54541C72.3743 7.53174 72.3778 7.52051 72.3778 7.50916C72.3778 7.4978 72.3743 7.48413 72.3743 7.4729C72.3743 7.46155 72.3778 7.44788 72.3778 7.43433C72.3778 7.42065 72.3743 7.40942 72.3743 7.39807C72.3743 7.38672 72.3778 7.37305 72.3778 7.36169C72.3778 7.35034 72.3743 7.33679 72.3743 7.32324C72.3743 7.30957 72.3778 7.30054 72.3778 7.28687C72.3778 7.27332 72.3743 7.26196 72.3743 7.25061C72.3743 7.23926 72.3778 7.22571 72.3778 7.21216C72.3778 7.19849 72.3743 7.18945 72.3743 7.17578C72.3743 7.16223 72.3778 7.15088 72.3778 7.13953C72.3778 7.12817 72.3743 7.11462 72.3743 7.10107C72.3743 7.0874 72.3778 7.07837 72.3778 7.0647C72.3778 7.05115 72.3743 7.03979 72.3743 7.02844C72.3743 7.01709 72.3778 7.00354 72.3778 6.99219C72.3778 6.98083 72.3743 6.96729 72.3743 6.95361C72.3743 6.94006 72.3778 6.92871 72.3778 6.91736C72.3778 6.90601 72.3743 6.89246 72.3743 6.8811C72.3743 6.86975 72.3778 6.8562 72.3778 6.84253C72.3778 6.82898 72.3743 6.81763 72.3743 6.80627C72.3743 6.79492 72.3778 6.78137 72.3778 6.77002C72.3778 6.75867 72.3743 6.74512 72.3743 6.73145C72.3743 6.7179 72.3778 6.70654 72.3778 6.69519C72.3778 6.68384 72.3743 6.67029 72.3743 6.65894C72.3743 6.64758 72.3778 6.63403 72.3778 6.62036C72.3778 6.60681 72.3743 6.59546 72.3743 6.58411C72.3743 6.57275 72.3778 6.5592 72.3778 6.54785C72.3778 6.5365 72.3743 6.52295 72.3743 6.50928C72.3743 6.49573 72.3778 6.48657 72.3778 6.47302C72.3778 6.45935 72.3743 6.44812 72.3743 6.43677C72.3743 6.42542 72.3778 6.41187 72.3778 6.39819C72.3778 6.38452 72.3743 6.37549 72.3743 6.36194C72.3743 6.34827 72.3778 6.33704 72.3778 6.32568C72.3778 6.31433 72.3743 6.30066 72.3743 6.28711C72.3743 6.27344 72.3778 6.2644 72.3778 6.25085C72.3778 6.23718 72.3743 6.22595 72.3743 6.2146C72.3743 6.20325 72.3778 6.18958 72.3778 6.17603C72.3778 6.16235 72.3743 6.15332 72.3743 6.13977C72.3743 6.1261 72.3778 6.11487 72.3778 6.10352C72.3778 6.09216 72.3743 6.07849 72.3743 6.06494C72.3743 6.05127 72.3778 6.04224 72.3778 6.02869C72.3778 6.01501 72.3743 6.00366 72.3743 5.99231C72.3743 5.98108 72.3778 5.96741 72.3778 5.95605C72.3778 5.9447 72.3743 5.93115 72.3743 5.9176C72.3743 5.90393 72.3778 5.89258 72.3778 5.88123C72.3778 5.86987 72.3743 5.85632 72.3743 5.84497C72.3743 5.83362 72.3778 5.82007 72.3778 5.80652C72.3778 5.79285 72.3743 5.78149 72.3743 5.77014C72.3743 5.75879 72.3778 5.74524 72.3778 5.73389C72.3778 5.72253 72.3743 5.70898 72.3743 5.69531C72.3743 5.68176 72.3778 5.67041 72.3778 5.65906C72.3778 5.64771 72.3743 5.63416 72.3743 5.6228C72.3743 5.61145 72.3778 5.5979 72.3778 5.58423C72.3778 5.57068 72.3743 5.55933 72.3743 5.54797C72.3743 5.53662 72.3778 5.52307 72.3778 5.51172C72.3778 5.50037 72.3743 5.48682 72.3743 5.47314C72.3743 5.45959 72.3778 5.45056 72.3778 5.43689C72.3778 5.42334 72.3743 5.41199 72.3743 5.40063C72.3743 5.38928 72.3778 5.37573 72.3778 5.36206C72.3778 5.34851 72.3743 5.33948 72.3743 5.32581C72.3743 5.31226 72.3778 5.3009 72.3778 5.28955C72.3778 5.2782 72.3743 5.26465 72.3743 5.25098C72.3743 5.23743 72.3778 5.22839 72.3778 5.21472C72.3778 5.20117 72.3743 5.18982 72.3743 5.17847C72.3743 5.16711 72.3778 5.15356 72.3778 5.13989C72.3778 5.12634 72.3743 5.11719 72.3743 5.10364C72.3743 5.08997 72.3778 5.07874 72.3778 5.06738C72.3778 5.05603 72.3743 5.04248 72.3743 5.02881C72.3743 5.01514 72.3778 5.0061 72.3778 4.99255C72.3778 4.97888 72.3743 4.96765 72.3743 4.9563C72.3743 4.94495 72.3778 4.93127 72.3778 4.92004C72.3778 4.90869 72.3743 4.89502 72.3743 4.88147C72.3743 4.8678 72.3778 4.85657 72.3778 4.84521C72.3778 4.83386 72.3743 4.82019 72.3743 4.80884C72.3743 4.79761 72.3778 4.78394 72.3778 4.77039C72.3778 4.75671 72.3743 4.74536 72.3743 4.73413C72.3743 4.72046 72.3778 4.70911 72.3778 4.69775Z" fill="url(#paint_linear_85_353_0)" fill-opacity="1.000000" fill-rule="evenodd"/>
	<g filter="url(#filter_85_354_dd)">
		<path id="path" d="M55.9244 93.6743C56.234 93.7965 56.5083 93.9734 56.7472 94.2051C56.9862 94.4368 57.1715 94.7054 57.3032 95.0111C57.4348 95.3168 57.5027 95.636 57.5069 95.9688C57.511 96.3016 57.4511 96.6224 57.3271 96.9313C57.2032 97.2402 57.0246 97.5134 56.7915 97.751C56.5584 97.9885 56.2886 98.1722 55.9822 98.302C55.6757 98.4319 55.3561 98.4978 55.0233 98.5C54.6905 98.5021 54.37 98.4402 54.0619 98.3145C53.7538 98.1886 53.4816 98.0083 53.2455 97.7738C53.0093 97.5393 52.8273 97.2684 52.6993 96.9612C52.5714 96.6539 52.5073 96.3339 52.5072 96.0011C52.504 95.6725 52.5638 95.356 52.6866 95.0513C52.8094 94.7465 52.9859 94.4769 53.216 94.2424C53.4461 94.0079 53.7123 93.8264 54.0146 93.6979C54.3169 93.5693 54.6323 93.5034 54.9608 93.5005C55.2936 93.4943 55.6148 93.5522 55.9244 93.6743Z" fill="#B7C8FF" fill-opacity="1.000000" fill-rule="evenodd"/>
	</g>
	<g filter="url(#filter_85_355_dd)">
		<path id="circle" d="M48.0408 99.9425C49.1453 99.9425 50.0408 100.838 50.0408 101.943C50.0408 103.047 49.1453 103.943 48.0408 103.943C46.9362 103.943 46.0408 103.047 46.0408 101.943C46.0408 100.838 46.9362 99.9425 48.0408 99.9425Z" fill="#B3C4FF" fill-opacity="0.474162" fill-rule="evenodd"/>
	</g>
	<g filter="url(#filter_85_356_dd)">
		<path id="circle" d="M58.5181 109.909C59.6226 109.909 60.5181 110.804 60.5181 111.909C60.5181 113.014 59.6226 113.909 58.5181 113.909C57.4135 113.909 56.5181 113.014 56.5181 111.909C56.5181 110.804 57.4135 109.909 58.5181 109.909Z" fill="#B3C4FF" fill-opacity="0.474162" fill-rule="evenodd"/>
	</g>
	<path id="path" d="M72.385 4.27173C72.385 6.35486 64.392 8.04346 54.5367 8.04346C44.6815 8.04346 36.6885 6.35486 36.6885 4.27173C36.6885 2.1886 44.6778 0.5 54.5367 0.5C64.3921 0.5 72.385 2.1886 72.385 4.27173Z" fill="url(#paint_linear_85_357_0)" fill-opacity="1.000000" fill-rule="evenodd"/>
	<path id="path" d="M54.5367 8.04346C44.6815 8.04346 36.6885 6.35486 36.6885 4.27173C36.6885 2.1886 44.6778 0.5 54.5367 0.5C64.3921 0.5 72.385 2.1886 72.385 4.27173C72.385 6.35486 64.392 8.04346 54.5367 8.04346Z" stroke="#B3C4FF" stroke-opacity="1.000000" stroke-width="1.000000" stroke-linejoin="round"/>
	<path id="path" d="M72.385 4.27173C72.385 6.35486 64.392 8.04346 54.5367 8.04346C44.6815 8.04346 36.6885 6.35486 36.6885 4.27173C36.6885 2.1886 44.6778 0.5 54.5367 0.5C64.3921 0.5 72.385 2.1886 72.385 4.27173Z" fill="url(#paint_linear_85_358_0)" fill-opacity="1.000000" fill-rule="evenodd"/>
	<path id="path" d="M54.5367 8.04346C44.6815 8.04346 36.6885 6.35486 36.6885 4.27173C36.6885 2.1886 44.6778 0.5 54.5367 0.5C64.3921 0.5 72.385 2.1886 72.385 4.27173C72.385 6.35486 64.392 8.04346 54.5367 8.04346Z" stroke="url(#paint_linear_85_358_1)" stroke-opacity="1.000000" stroke-width="1.000000" stroke-linejoin="round"/>
	<path id="ellipse" d="M99.0091 117.993C99.0091 123.871 79.0837 128.636 54.5045 128.636C29.9254 128.636 10 123.871 10 117.993" stroke="url(#paint_linear_85_360_0)" stroke-opacity="0.810000" stroke-width="1.000000" stroke-linejoin="round"/>
	<path id="ellipse" d="M99.0091 122.753C99.0091 128.631 79.0837 133.396 54.5045 133.396C29.9254 133.396 10 128.631 10 122.753" stroke="url(#paint_linear_85_361_0)" stroke-opacity="0.810000" stroke-width="1.000000" stroke-linejoin="round"/>
</svg>
