<svg width="30.000000" height="30.000000" viewBox="0 0 30 30" fill="none" xmlns="http://www.w3.org/2000/svg" xmlns:xlink="http://www.w3.org/1999/xlink">
	<desc>
			Created with Pixso.
	</desc>
	<defs>
		<filter id="filter_85_15_dd" x="3.500183" y="5.499878" width="22.609985" height="22.609985" filterUnits="userSpaceOnUse" color-interpolation-filters="sRGB">
			<feFlood flood-opacity="0" result="BackgroundImageFix"/>
			<feColorMatrix in="SourceAlpha" type="matrix" values="0 0 0 0 0 0 0 0 0 0 0 0 0 0 0 0 0 0 127 0" result="hardAlpha"/>
			<feOffset dx="0" dy="2"/>
			<feGaussianBlur stdDeviation="0.666667"/>
			<feComposite in2="hardAlpha" operator="out" k2="-1" k3="1"/>
			<feColorMatrix type="matrix" values="0 0 0 0 0.031373 0 0 0 0 0.16471 0 0 0 0 0.24706 0 0 0 0.6 0"/>
			<feBlend mode="normal" in2="BackgroundImageFix" result="effect_dropShadow_1"/>
			<feBlend mode="normal" in="SourceGraphic" in2="effect_dropShadow_1" result="shape"/>
		</filter>
		<filter id="filter_85_16_dd" x="5.000000" y="9.745117" width="19.800659" height="16.917847" filterUnits="userSpaceOnUse" color-interpolation-filters="sRGB">
			<feFlood flood-opacity="0" result="BackgroundImageFix"/>
			<feColorMatrix in="SourceAlpha" type="matrix" values="0 0 0 0 0 0 0 0 0 0 0 0 0 0 0 0 0 0 127 0" result="hardAlpha"/>
			<feOffset dx="0" dy="2"/>
			<feGaussianBlur stdDeviation="0.666667"/>
			<feComposite in2="hardAlpha" operator="out" k2="-1" k3="1"/>
			<feColorMatrix type="matrix" values="0 0 0 0 0 0 0 0 0 0 0 0 0 0 0 0 0 0 0.25 0"/>
			<feBlend mode="normal" in2="BackgroundImageFix" result="effect_dropShadow_1"/>
			<feBlend mode="normal" in="SourceGraphic" in2="effect_dropShadow_1" result="shape"/>
		</filter>
		<filter id="filter_85_17_dd" x="14.735962" y="9.745117" width="8.064697" height="7.380371" filterUnits="userSpaceOnUse" color-interpolation-filters="sRGB">
			<feFlood flood-opacity="0" result="BackgroundImageFix"/>
			<feColorMatrix in="SourceAlpha" type="matrix" values="0 0 0 0 0 0 0 0 0 0 0 0 0 0 0 0 0 0 127 0" result="hardAlpha"/>
			<feOffset dx="0" dy="2"/>
			<feGaussianBlur stdDeviation="0.666667"/>
			<feComposite in2="hardAlpha" operator="out" k2="-1" k3="1"/>
			<feColorMatrix type="matrix" values="0 0 0 0 0 0 0 0 0 0 0 0 0 0 0 0 0 0 0.25 0"/>
			<feBlend mode="normal" in2="BackgroundImageFix" result="effect_dropShadow_1"/>
			<feBlend mode="normal" in="SourceGraphic" in2="effect_dropShadow_1" result="shape"/>
		</filter>
		<filter id="filter_85_18_dd" x="14.732605" y="10.705566" width="4.003357" height="4.006714" filterUnits="userSpaceOnUse" color-interpolation-filters="sRGB">
			<feFlood flood-opacity="0" result="BackgroundImageFix"/>
			<feColorMatrix in="SourceAlpha" type="matrix" values="0 0 0 0 0 0 0 0 0 0 0 0 0 0 0 0 0 0 127 0" result="hardAlpha"/>
			<feOffset dx="0" dy="2"/>
			<feGaussianBlur stdDeviation="0.666667"/>
			<feComposite in2="hardAlpha" operator="out" k2="-1" k3="1"/>
			<feColorMatrix type="matrix" values="0 0 0 0 0 0 0 0 0 0 0 0 0 0 0 0 0 0 0.25 0"/>
			<feBlend mode="normal" in2="BackgroundImageFix" result="effect_dropShadow_1"/>
			<feBlend mode="normal" in="SourceGraphic" in2="effect_dropShadow_1" result="shape"/>
		</filter>
		<filter id="filter_85_19_dd" x="12.763000" y="14.827393" width="5.885132" height="6.293335" filterUnits="userSpaceOnUse" color-interpolation-filters="sRGB">
			<feFlood flood-opacity="0" result="BackgroundImageFix"/>
			<feColorMatrix in="SourceAlpha" type="matrix" values="0 0 0 0 0 0 0 0 0 0 0 0 0 0 0 0 0 0 127 0" result="hardAlpha"/>
			<feOffset dx="0" dy="2"/>
			<feGaussianBlur stdDeviation="0.666667"/>
			<feComposite in2="hardAlpha" operator="out" k2="-1" k3="1"/>
			<feColorMatrix type="matrix" values="0 0 0 0 0 0 0 0 0 0 0 0 0 0 0 0 0 0 0.25 0"/>
			<feBlend mode="normal" in2="BackgroundImageFix" result="effect_dropShadow_1"/>
			<feBlend mode="normal" in="SourceGraphic" in2="effect_dropShadow_1" result="shape"/>
		</filter>
		<filter id="filter_85_20_dd" x="7.000000" y="10.477051" width="15.638916" height="12.185913" filterUnits="userSpaceOnUse" color-interpolation-filters="sRGB">
			<feFlood flood-opacity="0" result="BackgroundImageFix"/>
			<feColorMatrix in="SourceAlpha" type="matrix" values="0 0 0 0 0 0 0 0 0 0 0 0 0 0 0 0 0 0 127 0" result="hardAlpha"/>
			<feOffset dx="0" dy="2"/>
			<feGaussianBlur stdDeviation="0.666667"/>
			<feComposite in2="hardAlpha" operator="out" k2="-1" k3="1"/>
			<feColorMatrix type="matrix" values="0 0 0 0 0 0 0 0 0 0 0 0 0 0 0 0 0 0 0.25 0"/>
			<feBlend mode="normal" in2="BackgroundImageFix" result="effect_dropShadow_1"/>
			<feBlend mode="normal" in="SourceGraphic" in2="effect_dropShadow_1" result="shape"/>
		</filter>
		<linearGradient id="paint_linear_85_15_0" x1="7.254252" y1="5.999876" x2="21.837585" y2="23.609943" gradientUnits="userSpaceOnUse">
			<stop stop-color="#FFFFFF"/>
			<stop offset="1.000000" stop-color="#2EB7FF"/>
		</linearGradient>
		<linearGradient id="paint_linear_85_17_0" x1="18.768291" y1="9.745117" x2="18.768291" y2="13.125462" gradientUnits="userSpaceOnUse">
			<stop stop-color="#FFFFFF"/>
			<stop offset="1.000000" stop-color="#8CD7FF"/>
		</linearGradient>
		<linearGradient id="paint_linear_85_18_0" x1="16.734287" y1="10.705566" x2="16.734287" y2="10.712317" gradientUnits="userSpaceOnUse">
			<stop stop-color="#FFFFFF"/>
			<stop offset="1.000000" stop-color="#8CD7FF"/>
		</linearGradient>
		<linearGradient id="paint_linear_85_19_0" x1="15.705561" y1="14.827393" x2="15.705561" y2="17.120766" gradientUnits="userSpaceOnUse">
			<stop stop-color="#FFFFFF"/>
			<stop offset="1.000000" stop-color="#8CD7FF"/>
		</linearGradient>
		<linearGradient id="paint_linear_85_20_0" x1="14.819456" y1="10.477051" x2="14.819456" y2="18.663002" gradientUnits="userSpaceOnUse">
			<stop stop-color="#FFFFFF"/>
			<stop offset="1.000000" stop-color="#8CD7FF"/>
		</linearGradient>
	</defs>
	<rect id="画板 311" width="30.000000" height="30.000000" fill="#FFFFFF" fill-opacity="0"/>
	<rect id="矩形 248" width="30.000000" height="30.000000" fill="#074165" fill-opacity="0"/>
	<g filter="url(#filter_85_15_dd)"/>
	<path id="path" d="M6.0108 15.2369C6.01788 15.3809 6.02844 15.5245 6.0426 15.668C6.0567 15.8113 6.07434 15.9543 6.09546 16.0968C6.11664 16.2394 6.14124 16.3813 6.16937 16.5227C6.19751 16.6639 6.22906 16.8046 6.26404 16.9443C6.29907 17.0841 6.33746 17.2229 6.37933 17.3608C6.42114 17.4988 6.46637 17.6355 6.51489 17.7712C6.56342 17.9069 6.6153 18.0413 6.67041 18.1744C6.72559 18.3075 6.78394 18.4392 6.84558 18.5695C6.90717 18.6997 6.97192 18.8285 7.03986 18.9556C7.10779 19.0826 7.17877 19.208 7.25287 19.3315C7.32697 19.4552 7.40405 19.5769 7.48407 19.6967C7.56415 19.8165 7.64709 19.9343 7.73297 20.05C7.81879 20.1658 7.90741 20.2793 7.99884 20.3907C8.09027 20.5021 8.18433 20.6112 8.28113 20.7179C8.37787 20.8247 8.47723 20.9291 8.5791 21.031C8.68103 21.1328 8.78534 21.2322 8.89209 21.329C8.9989 21.4258 9.10797 21.5198 9.21936 21.6112C9.33075 21.7026 9.44434 21.7913 9.56006 21.8771C9.67578 21.963 9.79358 22.0459 9.91339 22.126C10.0332 22.2061 10.1549 22.2831 10.2785 22.3572C10.4021 22.4313 10.5275 22.5023 10.6545 22.5702C10.7816 22.6382 10.9103 22.7029 11.0406 22.7645C11.1708 22.8262 11.3026 22.8845 11.4357 22.9397C11.5688 22.9948 11.7032 23.0466 11.8389 23.0952C11.9745 23.1437 12.1113 23.189 12.2492 23.2307C12.3871 23.2726 12.5259 23.311 12.6658 23.3459C12.8055 23.381 12.9461 23.4126 13.0874 23.4407C13.2288 23.4688 13.3707 23.4934 13.5132 23.5145C13.6558 23.5358 13.7987 23.5533 13.9421 23.5675C14.0856 23.5815 14.2292 23.5922 14.3732 23.5992C14.5171 23.6063 14.6611 23.6099 14.8052 23.6099C14.9493 23.6099 15.0933 23.6063 15.2372 23.5992C15.3812 23.5922 15.5248 23.5815 15.6682 23.5675C15.8116 23.5533 15.9546 23.5358 16.0972 23.5145C16.2397 23.4934 16.3816 23.4688 16.5229 23.4407C16.6643 23.4126 16.8048 23.381 16.9446 23.3459C17.0844 23.311 17.2233 23.2726 17.3611 23.2307C17.499 23.189 17.6358 23.1437 17.7715 23.0952C17.9072 23.0466 18.0416 22.9948 18.1747 22.9396C18.3079 22.8845 18.4395 22.8262 18.5698 22.7645C18.7001 22.7029 18.8287 22.6381 18.9558 22.5702C19.0829 22.5023 19.2083 22.4313 19.3318 22.3572C19.4554 22.2831 19.5771 22.2061 19.697 22.126C19.8168 22.0459 19.9346 21.963 20.0503 21.8771C20.1661 21.7913 20.2796 21.7026 20.391 21.6112C20.5024 21.5198 20.6115 21.4258 20.7183 21.329C20.825 21.2322 20.9294 21.1328 21.0312 21.031C21.1332 20.9291 21.2325 20.8247 21.3293 20.7179C21.426 20.6112 21.5201 20.5021 21.6115 20.3907C21.7029 20.2793 21.7916 20.1658 21.8774 20.05C21.9633 19.9342 22.0462 19.8165 22.1263 19.6967C22.2063 19.5769 22.2834 19.4552 22.3575 19.3315C22.4316 19.208 22.5026 19.0826 22.5705 18.9556C22.6384 18.8285 22.7032 18.6997 22.7648 18.5695C22.8264 18.4392 22.8848 18.3075 22.9399 18.1744C22.9951 18.0413 23.0469 17.9069 23.0955 17.7712C23.144 17.6355 23.1892 17.4988 23.231 17.3608C23.2729 17.2229 23.3113 17.0841 23.3463 16.9443C23.3813 16.8046 23.4129 16.6639 23.441 16.5227C23.4691 16.3813 23.4937 16.2394 23.5149 16.0968C23.536 15.9543 23.5536 15.8113 23.5678 15.668C23.5819 15.5245 23.5925 15.3809 23.5995 15.2369C23.6066 15.093 23.6102 14.949 23.6102 14.8049C23.6102 14.6608 23.6066 14.5167 23.5996 14.3728C23.5925 14.2289 23.5819 14.0852 23.5678 13.9419C23.5536 13.7985 23.536 13.6555 23.5149 13.5129C23.4937 13.3704 23.4691 13.2284 23.441 13.0872C23.4129 12.9458 23.3813 12.8052 23.3463 12.6654C23.3113 12.5256 23.2729 12.3868 23.231 12.2489C23.1892 12.1111 23.144 11.9742 23.0955 11.8385C23.0469 11.7029 22.9951 11.5685 22.9399 11.4353C22.8848 11.3022 22.8264 11.1705 22.7648 11.0403C22.7032 10.91 22.6384 10.7814 22.5705 10.6542C22.5026 10.5271 22.4316 10.4019 22.3575 10.2782C22.2834 10.1547 22.2063 10.0328 22.1263 9.91309C22.0462 9.79321 21.9633 9.67554 21.8774 9.55969C21.7916 9.44397 21.7029 9.33044 21.6115 9.21899C21.5201 9.10767 21.426 8.99854 21.3293 8.89185C21.2325 8.78503 21.1332 8.68066 21.0312 8.57886C20.9294 8.47693 20.825 8.37756 20.7183 8.28076C20.6115 8.18408 20.5024 8.08997 20.391 7.99854C20.2796 7.9071 20.1661 7.81848 20.0503 7.73267C19.9346 7.64685 19.8168 7.56384 19.697 7.48376C19.5771 7.40369 19.4554 7.32666 19.3318 7.25256C19.2083 7.17847 19.0829 7.10754 18.9558 7.03955C18.8287 6.97168 18.7001 6.90686 18.5698 6.84521C18.4395 6.78369 18.3079 6.72522 18.1747 6.67017C18.0416 6.61499 17.9072 6.56311 17.7715 6.51453C17.6358 6.46606 17.499 6.4209 17.3611 6.37903C17.2233 6.33716 17.0844 6.29871 16.9446 6.26379C16.8049 6.22876 16.6643 6.19714 16.5229 6.16907C16.3817 6.14099 16.2397 6.11633 16.0972 6.09521C15.9546 6.07397 15.8116 6.0564 15.6682 6.04224C15.5248 6.0282 15.3812 6.01758 15.2372 6.0105C15.0933 6.00342 14.9493 5.99988 14.8052 5.99988C14.6611 5.99988 14.5171 6.00342 14.3732 6.0105C14.2292 6.01758 14.0856 6.0282 13.9421 6.04224C13.7987 6.0564 13.6558 6.07397 13.5132 6.09521C13.3707 6.11633 13.2288 6.14099 13.0874 6.16907C12.9461 6.19714 12.8055 6.22876 12.6658 6.26379C12.5259 6.29871 12.3871 6.33716 12.2492 6.37903C12.1113 6.4209 11.9745 6.46606 11.8389 6.51453C11.7032 6.56311 11.5688 6.61499 11.4357 6.67017C11.3026 6.72522 11.1708 6.78369 11.0406 6.84521C10.9103 6.90686 10.7816 6.97168 10.6545 7.03955C10.5275 7.10754 10.4021 7.17847 10.2785 7.25256C10.1549 7.32666 10.0332 7.40369 9.91339 7.48376C9.79358 7.56384 9.67578 7.64685 9.56006 7.73267C9.44434 7.81848 9.33075 7.9071 9.21936 7.99854C9.10797 8.08997 8.9989 8.18408 8.89209 8.28076C8.78534 8.37756 8.68103 8.47693 8.5791 8.57886C8.47723 8.68066 8.37787 8.78503 8.28113 8.89185C8.18433 8.99854 8.09027 9.10767 7.99884 9.21899C7.90741 9.33044 7.81879 9.44397 7.73297 9.55969C7.64709 9.67554 7.56415 9.79321 7.48407 9.91309C7.40405 10.0328 7.32697 10.1547 7.25287 10.2782C7.17877 10.4019 7.10779 10.5271 7.03986 10.6542C6.97192 10.7814 6.90717 10.91 6.84558 11.0403C6.78394 11.1705 6.72559 11.3022 6.67041 11.4353C6.6153 11.5685 6.56342 11.7029 6.51489 11.8385C6.46637 11.9742 6.42114 12.1111 6.37933 12.2489C6.33752 12.3868 6.29907 12.5256 6.26404 12.6654C6.22906 12.8052 6.19751 12.9458 6.16937 13.0872C6.14124 13.2284 6.11664 13.3704 6.09546 13.5129C6.07434 13.6555 6.0567 13.7985 6.0426 13.9419C6.02844 14.0852 6.01788 14.2289 6.0108 14.3728C6.00372 14.5167 6.00018 14.6608 6.00018 14.8049C6.00018 14.949 6.00372 15.093 6.0108 15.2369Z" stroke="url(#paint_linear_85_15_0)" stroke-opacity="1.000000" stroke-width="1.000000"/>
	<g filter="url(#filter_85_16_dd)">
		<g filter="url(#filter_85_17_dd)">
			<path id="path" d="M18.2796 12.6335C19.4237 12.5604 19.5798 12.4674 20.2556 13.1255C21.3283 12.6069 20.6847 10.7455 19.4756 11.1377C19.5341 10.2677 17.9188 8.7345 16.736 10.7068C16.774 10.7201 18.2668 11.2487 18.2796 12.6335Z" fill="url(#paint_linear_85_17_0)" fill-opacity="1.000000" fill-rule="nonzero"/>
		</g>
		<g filter="url(#filter_85_18_dd)">
			<path id="path" d="M16.7326 10.7056L16.7326 10.7123C16.7337 10.7103 16.735 10.7087 16.736 10.7068C16.7355 10.7067 16.7326 10.7056 16.7326 10.7056Z" fill="url(#paint_linear_85_18_0)" fill-opacity="1.000000" fill-rule="nonzero"/>
		</g>
		<g filter="url(#filter_85_19_dd)">
			<path id="path" d="M15.725 14.8274C15.4326 14.8274 15.1985 14.9337 15.023 15.1396C14.8539 15.3458 14.763 15.6316 14.763 15.9907L14.7695 15.9907C14.7695 16.343 14.8539 16.6155 15.0295 16.8153C15.2051 17.0145 15.4326 17.1207 15.725 17.1207C16.024 17.1207 16.258 17.0214 16.4141 16.8285C16.5699 16.6288 16.6481 16.3499 16.6481 15.9774C16.6481 15.6051 16.5699 15.326 16.4141 15.1263C16.258 14.927 16.024 14.8274 15.725 14.8274Z" fill="url(#paint_linear_85_19_0)" fill-opacity="1.000000" fill-rule="nonzero"/>
		</g>
		<g filter="url(#filter_85_20_dd)">
			<path id="path" d="M18.8712 13.3781L17.5775 13.3315C17.1029 9.73499 12.2148 9.1167 11.1748 13.9298L10.6678 13.9564C8.00275 15.2793 9.04919 18.2246 10.2517 18.6566L10.2517 18.663C13.1443 18.663 16.037 18.663 18.9296 18.663C20.9901 18.1115 21.4386 14.5082 18.8712 13.3781ZM13.4044 15.0601C13.1963 14.9004 12.9623 14.8207 12.7023 14.8207C12.4033 14.8207 12.1564 14.927 11.9678 15.1396C11.7792 15.3527 11.6818 15.6384 11.6818 15.9907C11.6818 16.3429 11.7729 16.6155 11.9483 16.8152C12.1304 17.0144 12.3644 17.1143 12.6699 17.1143C12.9233 17.1143 13.1703 17.0277 13.3979 16.8551L13.3979 17.347L13.3979 17.3604C13.1703 17.5 12.8973 17.5664 12.5724 17.5664C12.1434 17.5664 11.799 17.4268 11.5388 17.1409C11.2789 16.8615 11.1489 16.496 11.1489 16.0438C11.1489 15.5455 11.2919 15.1465 11.5714 14.8407C11.8509 14.5348 12.2343 14.3818 12.7023 14.3818C12.9753 14.3818 13.2093 14.4283 13.4044 14.5281L13.4044 15.0601ZM16.778 17.1276C16.505 17.4198 16.1474 17.5729 15.6926 17.5729C15.2505 17.5729 14.8929 17.4331 14.6264 17.1473C14.3599 16.8615 14.23 16.4827 14.23 16.0173L14.23 16.0109C14.23 15.5056 14.3664 15.113 14.6393 14.8207C14.9124 14.5281 15.283 14.3885 15.7575 14.3885C16.206 14.3885 16.5504 14.5281 16.804 14.8074C17.0574 15.0865 17.1876 15.4722 17.1876 15.9641C17.1876 16.4427 17.051 16.835 16.778 17.1276ZM18.9491 17.2938L18.9491 17.4932L17.9026 17.4932L17.9026 17.3003L18.4031 16.7886C18.5395 16.6489 18.6371 16.5358 18.6826 16.4492C18.7281 16.3695 18.754 16.2834 18.754 16.1899C18.754 16.0906 18.7281 16.0109 18.6696 15.9573C18.6176 15.9042 18.533 15.8776 18.4291 15.8776C18.273 15.8776 18.1301 15.944 17.987 16.0773L17.987 15.851C18.1237 15.7448 18.2795 15.6917 18.4615 15.6917C18.6176 15.6917 18.741 15.7314 18.832 15.818C18.9231 15.9042 18.9686 16.0173 18.9686 16.1633C18.9686 16.2765 18.9426 16.3828 18.8842 16.4895C18.8257 16.5958 18.715 16.7286 18.5525 16.8949L18.1561 17.287L18.1561 17.2938L18.9491 17.2938Z" fill="url(#paint_linear_85_20_0)" fill-opacity="1.000000" fill-rule="nonzero"/>
		</g>
	</g>
</svg>
