<svg width="297.747559" height="23.039062" viewBox="0 0 297.748 23.0391" fill="none" xmlns="http://www.w3.org/2000/svg" xmlns:xlink="http://www.w3.org/1999/xlink">
	<desc>
			Created with Pixso.
	</desc>
	<defs>
		<linearGradient id="paint_linear_2_1525_0" x1="148.906219" y1="-8.250000" x2="148.906219" y2="42.935936" gradientUnits="userSpaceOnUse">
			<stop stop-color="#FFFFFF"/>
			<stop offset="1.000000" stop-color="#B4E5FF"/>
		</linearGradient>
	</defs>
	<path id="建德南方工厂能源调度" d="M9.89064 17.0234L15.3281 17.0234L15.1406 18.5234L21.2188 18.5234L21.4141 17.0234L26.9141 17.0234L27.2344 14.5938L21.7656 14.5938L21.8906 13.6641L26.7578 13.6641L27.1094 11.2266L22.2422 11.2266L22.3672 10.3359L27.2344 10.3359L27.6797 6.97656L28.9297 6.97656L29.25 4.53906L28.0313 4.53906L28.5156 1.21094L23.6172 1.21094L23.8125 0L16.5156 0L17.5703 1.21094L13.3125 1.21094L12.961 3.64844L17.2188 3.64844L17.0938 4.53906L11.6172 4.53906L11.2969 6.97656L16.7344 6.97656L16.6094 7.89844L11.7813 7.89844L11.4297 10.3359L16.2578 10.3359L16.1328 11.2266L11.2969 11.2266L10.9453 13.6641L15.8125 13.6641L15.6797 14.5938L10.211 14.5938L9.89064 17.0234ZM31.7931 4.89062L38.676 3.64844L39.1838 0L32.3088 1.24219L31.7931 4.89062ZM72.1956 1.21094L72.1331 1.53125L61.8285 1.53125L61.4066 4.57031L71.7113 4.57031L71.4925 6.07812L62.3988 6.07812L60.0003 23.0391L64.8675 23.0391L66.8519 9.11719L81.4456 9.11719L79.9066 20.0625L77.0238 23.0391L82.1488 23.0391Q82.6131 23.0391 83.0219 22.8884Q83.4248 22.74 83.7738 22.4453Q84.1153 22.1601 84.3288 21.7991Q84.5598 21.4087 84.641 20.9297L86.7191 6.07812L77.6019 6.07812L77.7972 4.57031L88.1644 4.57031L88.5785 1.53125L78.2425 1.53125L78.4691 0L71.1722 0L72.1956 1.21094ZM110.004 12.125L108.911 20.0625L106.036 23.0391L112.372 23.0391Q112.856 23.0391 113.28 22.8776Q113.668 22.7294 114.004 22.4453Q114.332 22.1684 114.541 21.8201Q114.78 21.4216 114.864 20.9297L116.528 9.08594L100.559 9.08594L101.809 5.46875L118.254 5.46875L118.676 2.42969L108.34 2.42969L108.692 0L101.395 0L102.418 1.21094L102.254 2.42969L91.9185 2.42969L91.5044 5.46875L95.731 5.46875L89.6216 23.0391L95.6997 23.0391L99.5044 12.125L110.004 12.125ZM195.009 7.29688L194.563 1.82031L190.306 1.82031L190.47 4.0625L187.649 4.21875L189.954 0L183.267 0L184.001 0.859375L182.017 4.57031L181.634 7.29688L190.688 6.75L190.751 7.29688L195.009 7.29688ZM201.603 5.85156L207.493 4.85938L207.938 1.82031L202.017 2.8125L202.431 0L196.962 0L195.423 10.9453L206.657 10.9453L207.235 6.6875L205.86 7.89844L201.313 7.89844L201.603 5.85156ZM283.216 1.21094L283.122 1.82031L271.599 1.82031L272.591 2.97656L268.591 23.0391L274.068 23.0391L277.685 4.85938L297.294 4.85938L297.747 1.82031L289.232 1.82031L289.49 0L282.193 0L283.216 1.21094ZM39.1838 12L56.8791 12L57.8713 4.82812L51.8556 4.82812L51.9885 3.89844L58.0353 3.89844L58.4181 1.3125L52.34 1.3125L52.5275 0.03125L46.0666 0.03125L46.9338 0.859375L46.8635 1.3125L40.6291 1.3125L40.2385 3.89844L46.4806 3.89844L46.3556 4.82812L40.176 4.82812L39.1838 12ZM5.76564 20.6094L8.51564 22.4922L26.7578 22.4922L27.2031 19.1328L10.625 19.1328L7.46095 16.9922L10.0469 11.5469L10.4688 8.50781L8.03127 8.50781L11.1406 3.64844L11.586 0.609375L3.07814 0.609375L2.62502 3.64844L6.27345 3.64844L1.60158 10.9453L5.25002 10.9453L5.18752 11.5469L3.81252 14.4609L1.34377 12.7656L0.73439 17.1797L2.08595 18.1094L1.52588e-05 22.4922L4.8672 22.4922L5.76564 20.6094ZM212.56 0.609375L212.911 6.07812L217.974 6.07812L217.614 0.609375L212.56 0.609375ZM237.81 3.35938L238.193 0.609375L219.122 0.609375L219.763 1.75781L215.989 23.0391L220.208 23.0391L223.669 3.35938L237.81 3.35938ZM246.564 5.02344L245.861 0.609375L241.314 0.609375L242.017 5.02344L246.564 5.02344ZM264.579 20.9297L267.423 0.609375L248.29 0.609375L249.283 1.75781L245.634 23.0391L250.275 23.0391L253.478 3.58594L262.626 3.58594L260.322 20.0938L257.509 23.0391L262.111 23.0391Q262.595 23.0391 263.019 22.8776Q263.407 22.7294 263.743 22.4453Q264.078 22.1625 264.284 21.8054Q264.51 21.4125 264.579 20.9297ZM177.809 3.64844L178.223 0.640625L152.559 0.640625L153.552 1.75781L149.427 23.0078L155.317 23.0078L159.091 3.64844L177.809 3.64844ZM132.258 4.25781L130.212 18.8438L119.876 18.8438L119.462 21.8828L146.212 21.8828L146.626 18.8438L136.29 18.8438L138.337 4.25781L148.063 4.25781L148.485 1.21094L122.946 1.21094L122.532 4.25781L132.258 4.25781ZM21.9531 4.53906L22.086 3.64844L23.9063 3.64844L23.7813 4.53906L21.9531 4.53906ZM255.329 7.64844L255.142 8.99219L252.993 8.99219L252.642 11.4219L261.087 11.4219L261.439 8.99219L259.236 8.99219L259.423 7.64844L261.345 7.64844L261.697 5.21094L259.775 5.21094L259.939 4.03125L255.845 4.03125L255.681 5.21094L253.798 5.21094L253.439 7.64844L255.329 7.64844ZM226.864 20.0625L224.786 23.0391L229.044 23.0391Q229.207 23.0391 229.36 23.0008Q229.81 22.8883 230.177 22.4453Q230.677 21.8516 230.802 20.9297L231.669 14.5938L236.021 14.5938L237.302 5.375L232.052 5.375L232.88 4.09375L228.755 4.09375L227.888 5.375L224.083 5.375L222.802 14.5938L227.599 14.5938L226.864 20.0625ZM35.9885 22.9453L38.0041 8.50781L38.5119 4.85938L31.6369 6.10938L31.1213 9.75781L32.34 9.53125L30.4806 22.9453L35.9885 22.9453ZM295.888 6.36719L296.021 5.46875L289.935 5.46875L289.81 6.36719L284.943 6.36719L285.076 5.46875L278.997 5.46875L278.865 6.36719L277.654 6.36719L277.294 8.79688L278.513 8.79688L278.037 12.1562L295.06 12.1562L295.537 8.79688L296.755 8.79688L297.107 6.36719L295.888 6.36719ZM241.158 9.375L239.236 22.9453L245.509 21.0234L245.954 17.7266L244.806 18.1719L246.501 6.23438L239.939 6.23438L239.493 9.375L241.158 9.375ZM23.461 6.97656L23.3281 7.89844L21.4766 7.89844L21.6016 6.97656L23.461 6.97656ZM45.301 7.29688L44.9806 9.60156L43.6994 9.60156L44.0197 7.29688L45.301 7.29688ZM48.9806 9.60156L47.7619 9.60156L48.0822 7.29688L49.301 7.29688L48.9806 9.60156ZM51.7619 9.60156L52.0822 7.29688L53.3635 7.29688L53.0431 9.60156L51.7619 9.60156ZM211.638 7.29688L211.989 12.7656L217.044 12.7656L216.693 7.29688L211.638 7.29688ZM233.521 8.96094L226.896 8.96094L227.06 7.83594L233.685 7.83594L233.521 8.96094ZM187.493 21.8828L186.079 23.0391L190.595 23.0391Q191.08 23.0391 191.503 22.8776Q191.891 22.7294 192.228 22.4453Q192.555 22.1684 192.764 21.8201Q193.004 21.4216 193.087 20.9297L194.915 7.89844L181.54 7.89844L179.392 23.0391L184.868 23.0391L185.438 18.8438L187.907 18.8438L187.493 21.8828ZM289.458 8.79688L289.333 9.72656L284.466 9.72656L284.591 8.79688L289.458 8.79688ZM74.5003 12.1562L72.93 12.1562L72.4535 10.3359L67.8753 10.3359L68.3519 12.1562L67.2972 12.1562L66.9144 14.875L71.0394 14.875L70.8831 16.125L66.7581 16.125L66.3675 18.8438L70.5003 18.8438L70.016 22.2031L74.5628 22.2031L75.0394 18.8438L79.1722 18.8438L79.555 16.125L75.43 16.125L75.5863 14.875L79.7113 14.875L80.1019 12.1562L79.0394 12.1562L80.0316 10.3359L75.4925 10.3359L74.5003 12.1562ZM188.837 12.1562L186.399 12.1562L186.626 10.625L189.056 10.625L188.837 12.1562ZM233.232 10.9766L233.075 12.0938L226.45 12.0938L226.607 10.9766L233.232 10.9766ZM199.907 18.0156L205.798 17.0234L206.212 13.9844L200.321 14.9766L200.704 12.1562L195.235 12.1562L193.696 23.0391L204.931 23.0391L205.54 18.8125L204.165 20.0312L204.228 20.0625L199.618 20.0625L199.907 18.0156ZM259.908 19.2969L260.868 12.4141L252.704 12.4141L251.743 19.2969L259.908 19.2969ZM56.5275 15.3594L56.8791 12.7969L38.7385 12.7969L38.3869 15.3594L56.5275 15.3594ZM276.849 16.4141L281.365 19.4219L274.677 23.0391L283.185 23.0391L285.169 21.9531L286.833 23.0391L295.349 23.0391L289.685 19.4219L295.091 16.4141L295.537 13.0859L277.294 13.0859L276.912 15.8047L276.849 16.4141ZM211.763 13.9844L208.818 23.0391L213.841 23.0391L216.786 13.9844L211.763 13.9844ZM257.314 14.4922L256.931 17.2422L255.298 17.2422L255.681 14.4922L257.314 14.4922ZM188.29 16.0938L185.829 16.0938L186.017 14.9062L188.454 14.9062L188.29 16.0938ZM50.5744 15.7734L46.9963 15.7734L47.3478 18.8438L50.9338 18.8438L50.5744 15.7734ZM224.341 22.4922L226.357 15.7734L223.247 15.7734L221.2 22.4922L224.341 22.4922ZM235.568 22.4609L235.474 15.7734L232.31 15.7734L232.403 22.4609L235.568 22.4609ZM285.872 16.9922L284.021 15.8047L288.052 15.8047L285.872 16.9922ZM42.2619 15.9688L41.3635 22.4922L51.6056 22.4922L52.1135 18.7188L51.1838 19.6797L46.2228 19.6797L46.7385 15.9688L42.2619 15.9688ZM36.9181 22.4922L40.34 22.4922L41.715 16.5703L38.3244 16.5703L36.9181 22.4922ZM56.051 16.5703L52.6916 16.5703L52.5275 22.4922L55.926 22.4922L56.051 16.5703Z" fill="url(#paint_linear_2_1525_0)" fill-opacity="1.000000" fill-rule="evenodd"/>
</svg>
